<svg xmlns="http://www.w3.org/2000/svg" viewBox="0 0 991.17 274.53"><defs><style>.cls-1{fill:#fff;}</style></defs><g id="Layer_2" data-name="Layer 2"><g id="Layer_1-2" data-name="Layer 1"><path class="cls-1" d="M135.16,115.15l-10.24,15.2-9.56-14.22a40.07,40.07,0,0,1-11.13-6.61l20.69,30.77L146,109a36.65,36.65,0,0,1-8.55,5.27c-.8.32-1.56.62-2.31.9"/><path class="cls-1" d="M39.25,2.9,34.94,6.44l51.1,76a22.34,22.34,0,0,1,5.57-1.68Z"/><path class="cls-1" d="M214.68,2.14l-3.86.75L158.4,80.67a19.27,19.27,0,0,1,5.71,1.47L214.33,7.62Z"/><path class="cls-1" d="M125.63,77.48c-.19.35-.34.62-.41.76Zm26.65-22.59a5.45,5.45,0,0,1-.78-.66m3.74-4.82a5.77,5.77,0,0,1-1.09,1.16,7.44,7.44,0,0,1-1.17.78c-.42.24-.89.49-1.31.68a3.44,3.44,0,0,1-1.25.35,6.19,6.19,0,0,1-1.71-.16,16.93,16.93,0,0,1-1.9-.49c-.38-.15-.32-.22-.25-.29a1,1,0,0,1,.4-.23,7.34,7.34,0,0,1,1-.29c.37-.08.74-.11,1.22-.24a8,8,0,0,0,1.57-.59,6.45,6.45,0,0,0,1.25-.83,2.52,2.52,0,0,0,.73-.93,5.87,5.87,0,0,0,.43-1.53,3.09,3.09,0,0,0-.1-1.25,4.4,4.4,0,0,0-.44-1.07c-.21-.37-.49-.77-.86-1.37s-.84-1.38-1.23-2.15-.7-1.54-1-2.3-.68-1.5-1-2.29a15.38,15.38,0,0,1-.59-2.28,7.41,7.41,0,0,1-.11-1.76c0-.52.15-1,.18-1.48a4.27,4.27,0,0,0-.13-1.33,5.61,5.61,0,0,0-.51-1.27,3.05,3.05,0,0,0-.63-.78c-.22-.2-.45-.37-.69-.58a6.42,6.42,0,0,0-.79-.61,2,2,0,0,0-.86-.24,4.58,4.58,0,0,0-1.1,0,11.23,11.23,0,0,0-1.1.26l-.9.22c-.34.09-.77.23-1.23.39l-1.18.44c-.24.1-.24.1-.21,0l.15-.44a1.58,1.58,0,0,1,.33-.58c.2-.2.53-.41.83-.7a7.53,7.53,0,0,1,.93-1,3.89,3.89,0,0,1,1.37-.51,7.23,7.23,0,0,1,1.49-.18,10.69,10.69,0,0,1,1.74.12,12.23,12.23,0,0,1,1.81.43,4.56,4.56,0,0,1,1.64.91,12.85,12.85,0,0,1,1.65,2,26.87,26.87,0,0,1,1.5,2.28c.4.7.64,1.28.89,1.77s.49.89.78,1.59.62,1.68.95,2.77.66,2.26.9,3.41a27.93,27.93,0,0,1,.49,3.35,23.61,23.61,0,0,1,.09,3,10,10,0,0,1-.3,2.26A4.63,4.63,0,0,1,155.24,49.41Zm-3.67,4c0-.14,0-.14.2-.19m-.54,8.48a13.06,13.06,0,0,1-1.37,2.2A26.12,26.12,0,0,1,148.14,66c-.54.61-1,1-1.42,1.43s-.7.76-1.28,1.26-1.43,1.14-2.37,1.81-2,1.37-3,2A27.88,27.88,0,0,1,137,74.07a24.84,24.84,0,0,1-2.84,1.06,10.81,10.81,0,0,1-2.28.46,5,5,0,0,1-1.73-.17,6,6,0,0,1-1.47-.65,8,8,0,0,1-1.13-.85c-.36-.32-.76-.69-1.07-1a3.41,3.41,0,0,1-.75-1.06,6.64,6.64,0,0,1-.39-1.67,12.85,12.85,0,0,1-.14-2c0-.41.11-.38.2-.34a1.16,1.16,0,0,1,.35.31,6.56,6.56,0,0,1,.6.86c.2.33.35.67.63,1.08A7.78,7.78,0,0,0,128,71.41a6.7,6.7,0,0,0,1.21.91,2.34,2.34,0,0,0,1.13.38,5.49,5.49,0,0,0,1.61-.09,3.36,3.36,0,0,0,1.19-.5,4.52,4.52,0,0,0,.88-.78c.29-.31.59-.71,1.05-1.26s1.06-1.24,1.68-1.86,1.27-1.18,1.89-1.74,1.23-1.14,1.9-1.65a15.6,15.6,0,0,1,2-1.31,7.41,7.41,0,0,1,1.65-.68c.52-.14,1-.2,1.49-.32A4.39,4.39,0,0,0,147,62a5.64,5.64,0,0,0,1.06-.9,2.9,2.9,0,0,0,.55-.85c.12-.28.21-.55.33-.85a5.91,5.91,0,0,0,.34-.94,2,2,0,0,0-.05-.9,4.34,4.34,0,0,0-.38-1,10.06,10.06,0,0,0-.6-1c-.19-.27-.31-.49-.51-.77s-.47-.66-.77-1l-.81-1c-.16-.2-.16-.2-.07-.2h.47a1.45,1.45,0,0,1,.67.12c.26.13.56.37.94.55a6.67,6.67,0,0,1,1.21.58,3.85,3.85,0,0,1,.95,1.12,7.32,7.32,0,0,1,.65,1.35,10.94,10.94,0,0,1,.44,1.69,10.61,10.61,0,0,1,.17,1.85A4.4,4.4,0,0,1,151.23,61.66ZM124,74.45a4.44,4.44,0,0,1,.46-.81m-1.68.11a11,11,0,0,1-1.39,1,10.67,10.67,0,0,1-1.64.78,4.15,4.15,0,0,1-1.81.31,12.26,12.26,0,0,1-2.47-.53c-.89-.26-1.82-.56-2.55-.86s-1.29-.61-1.78-.84-.93-.4-1.58-.76-1.52-1-2.45-1.6-1.91-1.38-2.81-2.14a28.81,28.81,0,0,1-2.45-2.32A25.86,25.86,0,0,1,100,64.49a10.8,10.8,0,0,1-1.17-2,4.69,4.69,0,0,1-.43-1.67,6.47,6.47,0,0,1,.1-1.6,7.66,7.66,0,0,1,.4-1.34c.17-.44.37-.94.56-1.35a3.52,3.52,0,0,1,.73-1.06,6.38,6.38,0,0,1,1.39-.94,15.44,15.44,0,0,1,1.74-.79c.38-.13.38,0,.37.07a1,1,0,0,1-.16.43,6.85,6.85,0,0,1-.58.86c-.24.3-.5.56-.78,1a9,9,0,0,0-.82,1.45,7.24,7.24,0,0,0-.43,1.43,2.54,2.54,0,0,0,0,1.19,6.3,6.3,0,0,0,.62,1.48,3.4,3.4,0,0,0,.86.93,4.56,4.56,0,0,0,1,.56c.39.16.85.31,1.5.54s1.49.57,2.27.94,1.49.78,2.21,1.17,1.45.76,2.15,1.21a14.77,14.77,0,0,1,1.87,1.44,8,8,0,0,1,1.18,1.31c.3.44.52.9.79,1.28a4.08,4.08,0,0,0,.93,1,5.27,5.27,0,0,0,1.17.69,3,3,0,0,0,1,.22c.29,0,.57,0,.89,0a5.22,5.22,0,0,0,1,0,1.79,1.79,0,0,0,.8-.35,4.31,4.31,0,0,0,.82-.7,9.49,9.49,0,0,0,.67-.9l.54-.73c.2-.28.44-.66.68-1.07s.49-.86.62-1.09.12-.22.15-.13l.16.43a1.37,1.37,0,0,1,.11.67c0,.28-.14.65-.18,1.07a7.82,7.82,0,0,1-.12,1.33,3.88,3.88,0,0,1-.71,1.26A7.25,7.25,0,0,1,122.82,73.75Zm-29-25.41a12.66,12.66,0,0,1-.19-2.6A24.45,24.45,0,0,1,93.78,43c.08-.82.23-1.45.32-2s.12-1,.29-1.78.49-1.78.87-2.88.8-2.29,1.29-3.4a29,29,0,0,1,1.58-3.1,24.91,24.91,0,0,1,1.7-2.57,11.16,11.16,0,0,1,1.6-1.74,4.83,4.83,0,0,1,1.52-.9,6.47,6.47,0,0,1,1.6-.37,8.52,8.52,0,0,1,1.43,0c.49,0,1,.1,1.5.17a3.68,3.68,0,0,1,1.25.41,6.56,6.56,0,0,1,1.32,1.11,13.68,13.68,0,0,1,1.28,1.49c.23.34.14.37,0,.39a1,1,0,0,1-.47,0,6.94,6.94,0,0,1-1-.33c-.36-.15-.69-.33-1.15-.49a8.08,8.08,0,0,0-1.66-.39,6.54,6.54,0,0,0-1.53,0,2.57,2.57,0,0,0-1.16.38,5.91,5.91,0,0,0-1.27,1,3.4,3.4,0,0,0-.68,1.12,4.51,4.51,0,0,0-.25,1.15c-.05.43-.06.93-.11,1.65s-.13,1.64-.27,2.52-.34,1.69-.51,2.52-.34,1.66-.57,2.48a15,15,0,0,1-.88,2.26,8,8,0,0,1-1,1.55c-.35.42-.73.78-1,1.15a4.38,4.38,0,0,0-.68,1.21,5.53,5.53,0,0,0-.34,1.36,2.92,2.92,0,0,0,.06,1c.06.29.15.57.23.89a6.26,6.26,0,0,0,.29,1,2.07,2.07,0,0,0,.57.69,4.66,4.66,0,0,0,.93.6c.36.17.76.29,1.07.41l.88.32c.33.11.77.24,1.25.36l1.24.3c.26.06.26.06.18.11l-.38.29a1.54,1.54,0,0,1-.63.3c-.28.06-.68,0-1.1.13a7.76,7.76,0,0,1-1.34.26,3.92,3.92,0,0,1-1.44-.33,7.88,7.88,0,0,1-1.35-.7,10,10,0,0,1-1.37-1.09A10.19,10.19,0,0,1,94.68,50,4.35,4.35,0,0,1,93.86,48.34Zm48.63,2.9a3.09,3.09,0,0,0,.77.65c.37.22.85.41,1.29.69a4.76,4.76,0,0,1,1.17,1.16,9.87,9.87,0,0,1,.87,1.51,3.3,3.3,0,0,1,.41,1.27,3,3,0,0,1-.27,1.41,3.14,3.14,0,0,1-1,1.26,8.76,8.76,0,0,1-1.95,1c-.8.33-1.73.66-2.63,1.05a23.34,23.34,0,0,0-2.55,1.3A17.35,17.35,0,0,0,136.48,64a13.1,13.1,0,0,0-3.12,3.36c-.28.44-.43.71-.64,1a3.51,3.51,0,0,1-.84.94,4.06,4.06,0,0,1-1.24.51,2.74,2.74,0,0,1-1.24.07,3.19,3.19,0,0,1-1.4-.74,8.87,8.87,0,0,1-1.37-1.53,7.63,7.63,0,0,1-.93-1.55c-.2-.45-.26-.81-.35-1s-.21-.27-.33-.24a.65.65,0,0,0-.35.35,7.4,7.4,0,0,0-.35.93,9.24,9.24,0,0,1-.8,1.76A6.09,6.09,0,0,1,122,69.54a4.44,4.44,0,0,1-1.81.78,1.9,1.9,0,0,1-1.37-.32,9,9,0,0,1-1.28-1.2c-.48-.51-1-1.11-1.56-1.68s-1-1.12-1.41-1.61a16.94,16.94,0,0,0-1.41-1.4c-.52-.45-1.09-.9-1.64-1.31a15.74,15.74,0,0,0-1.81-1.14,16.13,16.13,0,0,0-2.3-1c-.72-.26-1.29-.38-1.88-.61a4.37,4.37,0,0,1-1.57-1,2.48,2.48,0,0,1-.66-1.36,3.31,3.31,0,0,1,0-1.37,4,4,0,0,1,.54-1.09,6.1,6.1,0,0,1,.75-1,9.84,9.84,0,0,1,1.1-.78c.48-.33,1.11-.81,1.44-1.1s.36-.37.32-.44a.52.52,0,0,0-.35-.1,5.62,5.62,0,0,0-.84,0,11.35,11.35,0,0,1-1.62,0,7.93,7.93,0,0,1-1.75-.47,7.52,7.52,0,0,1-1.47-.75,4.22,4.22,0,0,1-1.13-1,2.32,2.32,0,0,1-.37-1.2A4.86,4.86,0,0,1,100,47a3.08,3.08,0,0,1,.58-1.24c.28-.36.67-.66,1-1a5.74,5.74,0,0,0,.7-1.16c.24-.46.54-1,.84-1.67a11.68,11.68,0,0,0,.83-2.13c.23-.81.38-1.74.56-2.59s.39-1.59.49-2.43.11-1.77.15-2.51a8,8,0,0,1,.26-1.69,2.42,2.42,0,0,1,.53-1,3,3,0,0,1,1.09-.84,3.84,3.84,0,0,1,1.75-.28,6.46,6.46,0,0,1,2,.41,5,5,0,0,1,1.54,1c.52.45,1.09,1.05,1.42,1.35s.42.3.49.24a.62.62,0,0,0,.18-.31.66.66,0,0,0-.07-.59c-.15-.3-.48-.75-.69-1.2a5,5,0,0,1-.38-1.48,16.23,16.23,0,0,1-.13-1.91,4.53,4.53,0,0,1,.25-1.69,2.41,2.41,0,0,1,1-1,5.48,5.48,0,0,1,1.47-.66,3.4,3.4,0,0,1,1.64-.09c.53.12,1,.42,1.65.63a12.05,12.05,0,0,0,2.27.43c.82.08,1.63.14,2.36.19s1.4.08,2.18.06a19,19,0,0,0,2.42-.18,14.19,14.19,0,0,0,1.84-.39,10,10,0,0,0,1.43-.45,8.81,8.81,0,0,1,1.27-.62,4.4,4.4,0,0,1,1.66-.12,2.24,2.24,0,0,1,1.33.56,4.2,4.2,0,0,1,1,1.45,6.18,6.18,0,0,1,.42,1.83,9.08,9.08,0,0,1,0,1.81,2.8,2.8,0,0,1-.38,1.12,11.83,11.83,0,0,0-.57,1.11c-.11.3-.05.45,0,.52a.39.39,0,0,0,.35.05.77.77,0,0,0,.42-.23c.14-.13.26-.34.56-.64a5.55,5.55,0,0,1,1.35-1,7.36,7.36,0,0,1,1.81-.59A3.58,3.58,0,0,1,142.4,28a3.42,3.42,0,0,1,1.59.86,3.73,3.73,0,0,1,.92,1.56,7.63,7.63,0,0,1,.23,1.87c0,.77.06,1.76.14,2.76a22.49,22.49,0,0,0,.49,3.07,17.92,17.92,0,0,0,.94,3A13.47,13.47,0,0,0,148,43.31c.48.69,1,1.41,1.4,1.95a3.76,3.76,0,0,1,.67,1.28,3.14,3.14,0,0,1,0,1.22,4.12,4.12,0,0,1-.44,1.38,2.61,2.61,0,0,1-1.33,1.08,13.21,13.21,0,0,1-2.68.81,6.91,6.91,0,0,1-1.85.09c-.48,0-.9-.06-1.13-.06S142.37,51.09,142.49,51.24ZM110,22.33c.06-.46.15-1,.26-1.47a8.24,8.24,0,0,1,.38-1.35,6.62,6.62,0,0,1,.79-1.41,5.07,5.07,0,0,1,1.29-1.17,10.88,10.88,0,0,1,2.1-1,25.05,25.05,0,0,1,2.91-.85,28.1,28.1,0,0,1,3.39-.59c1.19-.13,2.44-.19,3.59-.22s2.22,0,3,0,1.23.16,1.78.24,1.2.13,2,.29a27,27,0,0,1,2.68.71,12.63,12.63,0,0,1,2.41.94A4.41,4.41,0,0,1,138,17.75a10.78,10.78,0,0,1,1,1.59,10.53,10.53,0,0,1,.66,1.61,7.9,7.9,0,0,1,.29,1.48,4,4,0,0,1-.08,1.46,7.87,7.87,0,0,1-.63,1.19c-.2.38-.29.75-.43,1a1.33,1.33,0,0,1-.46.5l-.38.28c-.07.06-.07.06-.05-.2s0-.77.06-1.26,0-.94,0-1.29-.05-.6-.06-.92,0-.74-.09-1.13a4.9,4.9,0,0,0-.32-1.06,1.94,1.94,0,0,0-.5-.74,5.48,5.48,0,0,0-.83-.56c-.28-.17-.52-.33-.78-.47a2.93,2.93,0,0,0-.94-.36,5.72,5.72,0,0,0-1.39-.08,4.14,4.14,0,0,0-1.34.3c-.44.17-.89.43-1.38.63a7.83,7.83,0,0,1-1.74.45,15.93,15.93,0,0,1-2.4.17c-.84,0-1.67-.12-2.51-.19s-1.67-.13-2.55-.26-1.77-.32-2.47-.48-1.17-.3-1.59-.39a4.76,4.76,0,0,0-1.17-.09,3.41,3.41,0,0,0-1.25.31,6,6,0,0,0-1.34.89,2.62,2.62,0,0,0-.69,1,6.65,6.65,0,0,0-.41,1.45,8.14,8.14,0,0,0-.09,1.68c0,.49.11.85.15,1.24a6.47,6.47,0,0,1,0,1.05,1.07,1.07,0,0,1-.1.46c0,.09-.1.17-.36-.15a17.44,17.44,0,0,1-1.06-1.65,6.47,6.47,0,0,1-.69-1.58A3.5,3.5,0,0,1,110,22.33Zm45.8,29.35a10.63,10.63,0,0,0,1.32-1.29,8.9,8.9,0,0,0,1.29-2.16,9.71,9.71,0,0,0,.67-2.42,11.11,11.11,0,0,0,.09-2.55c-.06-1-.21-2.08-.38-3.27s-.35-2.43-.68-3.86a36.3,36.3,0,0,0-1.35-4.43,25.69,25.69,0,0,0-1.67-3.57,15.58,15.58,0,0,0-1.87-2.66A14.43,14.43,0,0,0,150.53,23a8.27,8.27,0,0,0-2.84-1.17,11.88,11.88,0,0,0-1.9-.23c-.35,0-.35,0-.29-.33s.18-1,.24-1.44.07-.82.15-1.17.28-.72.37-1a1.45,1.45,0,0,0,.06-.68c0-.14-.09-.17-.24-.12a1.75,1.75,0,0,0-.63.36c-.22.2-.44.47-.65.67a1.68,1.68,0,0,1-.77.42c-.35.11-.84.2-1.2.28a6.39,6.39,0,0,0-.73.17c-.12,0-.12,0-.31-.29s-.54-1-.94-1.58A9.76,9.76,0,0,0,139.44,15a9.49,9.49,0,0,0-2.17-1.61,12,12,0,0,0-2.8-1,35.7,35.7,0,0,0-3.66-.68,33.68,33.68,0,0,0-3.92-.29c-1.44,0-3.12,0-4.6.11a36.21,36.21,0,0,0-4,.5,26.39,26.39,0,0,0-3.22.76,14.38,14.38,0,0,0-2.53,1A7.37,7.37,0,0,0,111,15a9.19,9.19,0,0,0-1.23,1.45,5.54,5.54,0,0,0-.63,1.35c-.14.41-.23.77-.28,1s0,.18-.33.15l-1.34-.14a3.57,3.57,0,0,1-1.17-.23,6.5,6.5,0,0,1-.94-.64,3.62,3.62,0,0,0-.87-.45,1.05,1.05,0,0,0-.59-.08c-.12.05-.15.17-.11.34a3.17,3.17,0,0,0,.34.65,2.53,2.53,0,0,1,.44,1.18,13.4,13.4,0,0,1-.06,1.92,2.64,2.64,0,0,0,0,.83c0,.11.06.11-.28.16s-1,.13-1.65.26a9.08,9.08,0,0,0-1.76.51,8,8,0,0,0-1.83,1A8.15,8.15,0,0,0,97,26.05,21.89,21.89,0,0,0,95.4,28.8c-.49.95-.88,1.86-1.29,2.78s-.84,1.82-1.2,2.75a23.94,23.94,0,0,0-1,3.08,40.83,40.83,0,0,0-.8,4.1,31.32,31.32,0,0,0-.31,3.8,13.41,13.41,0,0,0,.23,2.87,9.87,9.87,0,0,0,.82,2.43A4.78,4.78,0,0,0,93.06,52l1.4,1.26c.3.27.3.27-.07.75s-1.09,1.41-1.61,2-.82.93-1,1.13-.11.28.07.3a3.93,3.93,0,0,0,.85-.11,2.67,2.67,0,0,1,1.1,0,7.19,7.19,0,0,1,1.33.52c.4.18.67.31.81.36s.14.06.08.49a20.46,20.46,0,0,0-.23,2.07A7.44,7.44,0,0,0,96,63a9.85,9.85,0,0,0,.8,2.07A11.3,11.3,0,0,0,98,67c.52.65,1.19,1.35,1.82,2s1.25,1.27,1.89,1.87,1.3,1.22,2,1.81,1.56,1.17,2.32,1.67,1.46.93,2.3,1.39,1.8.94,2.7,1.32a20.82,20.82,0,0,0,2.58.89,19.58,19.58,0,0,0,2.56.57,6.43,6.43,0,0,0,2.06,0,7.31,7.31,0,0,0,1.95-.68,12.76,12.76,0,0,0,1.48-.92c.29-.19.29-.19.51,0s.64.5,1,.8a6.57,6.57,0,0,1,.83.79,1.28,1.28,0,0,1,.25.78c0,.41.1,1.07.15,1.68a13.59,13.59,0,0,0,.15,1.46c.08.3.2.36.37.4a.45.45,0,0,0,.48-.13c.11-.15.11-.45.11-1.08v-2c0-.47,0-.47.26-.76s.77-.87,1.18-1.26a5.86,5.86,0,0,1,.9-.73c.18-.12.24-.15.41-.06a4.91,4.91,0,0,1,.71.53,7.37,7.37,0,0,0,.85.65,2.78,2.78,0,0,0,1.19.37,9.92,9.92,0,0,0,2,0,13.86,13.86,0,0,0,2-.36,9.15,9.15,0,0,0,1.31-.43c.41-.16.86-.38,1.64-.77s1.87-1,3.07-1.69a36.56,36.56,0,0,0,3.86-2.61A44.5,44.5,0,0,0,149,68.8a33.63,33.63,0,0,0,3.38-3.86A10.08,10.08,0,0,0,154,61.87a7.07,7.07,0,0,0,.21-2.28c0-.64-.09-1.15-.08-1.53a1.45,1.45,0,0,1,.32-.9,3.1,3.1,0,0,1,.88-.76,3.17,3.17,0,0,1,1.24-.3l1.74-.16c.4,0,.4,0,0-.45s-1.09-1.28-1.61-2a14.28,14.28,0,0,1-1-1.39C155.56,51.91,155.56,51.91,155.83,51.68Z"/><path class="cls-1" d="M136.74,48.17a6.2,6.2,0,0,1-.52,1.77,5,5,0,0,1-1,1.42,4.6,4.6,0,0,1-1.33.9,4.39,4.39,0,0,1-1.48.36,4.46,4.46,0,0,1-1.42-.15,7.82,7.82,0,0,1-1.07-.39c-.21-.09-.21-.09-.2.19a7.63,7.63,0,0,1,0,1.48,6.75,6.75,0,0,1-.47,1.82,2.84,2.84,0,0,1-.88,1.14,6.33,6.33,0,0,1-1.35.74,4.33,4.33,0,0,1-1.24.31,6.49,6.49,0,0,1-1.25,0,3.46,3.46,0,0,1-1.31-.3,4.2,4.2,0,0,1-1.21-.95,5.31,5.31,0,0,1-.88-1.26,3.77,3.77,0,0,1-.42-1.4,5.61,5.61,0,0,1,0-1.22c0-.27,0-.33,0-.36s-.09,0-.19,0a3,3,0,0,1-.63.24,9.08,9.08,0,0,1-1.61.29,6.28,6.28,0,0,1-1.9-.09,3.32,3.32,0,0,1-1.4-.81,5.63,5.63,0,0,1-1-1.19,5.45,5.45,0,0,1-.57-1.33,4.17,4.17,0,0,1-.13-1.68A4.88,4.88,0,0,1,114,46,4.44,4.44,0,0,1,115,44.84a6.09,6.09,0,0,1,1.17-.78,2.15,2.15,0,0,1,1-.19c.3,0,.6,0,.75,0s.14-.07.13-.17a.86.86,0,0,0-.15-.42,3.86,3.86,0,0,0-.52-.6,3.69,3.69,0,0,1-.76-1.07,4.42,4.42,0,0,1-.38-1.78,3.71,3.71,0,0,1,.45-1.78,5.41,5.41,0,0,1,1.3-1.52,6,6,0,0,1,1.88-1.1,3.18,3.18,0,0,1,2-.07,4.15,4.15,0,0,1,1.67,1.17,17.91,17.91,0,0,1,1.29,1.58c.25.35.25.35.51.05s.76-.9,1.23-1.39A5.82,5.82,0,0,1,128,35.63a4.21,4.21,0,0,1,1.66-.45,3,3,0,0,1,1.61.36A6.8,6.8,0,0,1,133,36.88a4.13,4.13,0,0,1,.92,1.66,4,4,0,0,1,.17,1.64,4.28,4.28,0,0,1-.55,1.66c-.32.54-.77,1-1,1.31s-.08.3.27.38a11.24,11.24,0,0,1,1.53.38,3.19,3.19,0,0,1,1.35.9,4.21,4.21,0,0,1,.84,1.61,4.49,4.49,0,0,1,.12,1.75m3.12-7.52s-.19,0-.54,0a6.75,6.75,0,0,1-1.37,0,5.08,5.08,0,0,1-1.23-.38l-.88-.3c-.18-.08-.21-.14-.24-.49s-.07-1-.11-1.58a4.45,4.45,0,0,0-.4-1.72,6.27,6.27,0,0,0-1.29-1.63,3.85,3.85,0,0,0-1.52-1,5.35,5.35,0,0,0-1.94-.19,10.31,10.31,0,0,0-1.7.28,6.41,6.41,0,0,1-.63.14c-.07,0-.07,0-.38-.27s-.91-.87-1.32-1.28a4,4,0,0,1-.74-.88,5.6,5.6,0,0,1-.23-.64,2.09,2.09,0,0,0-.27-.47c-.08-.09-.11-.09-.18.12s-.2.64-.26.9-.06.35-.08.44,0,.18-.33.53-.84,1-1.11,1.26-.28.31-.56.23-.87-.23-1.42-.32a8.42,8.42,0,0,0-1.56-.11,5.78,5.78,0,0,0-1.48.23,4.1,4.1,0,0,0-1.39.75,4.72,4.72,0,0,0-1,1.24,6.38,6.38,0,0,0-.56,1.33c-.16.45-.31.94-.46,1.51s-.3,1.25-.38,1.58-.08.34-.7.47L111,41c-.67.15-.77.18-.81.22s0,.11.27.37,1,.71,1.4,1.11a2.84,2.84,0,0,1,.8,1,1.52,1.52,0,0,1,.1.82,1.92,1.92,0,0,1-.32.82,10.48,10.48,0,0,0-.87,1.44,5.21,5.21,0,0,0-.36,1.75,7,7,0,0,0,.1,1.66,4.29,4.29,0,0,0,.58,1.49,5.3,5.3,0,0,0,1,1.11,7.91,7.91,0,0,0,1,.73,4.44,4.44,0,0,0,.92.39c.31.09.61.15.81.2s.29.07.35.18a1.46,1.46,0,0,1,.1.61c0,.32,0,.77,0,1.11a5.31,5.31,0,0,1,0,.79,2.39,2.39,0,0,1-.23.73c-.1.21-.22.36-.27.47a.19.19,0,0,0,0,.23.93.93,0,0,0,.18.16.5.5,0,0,0,.26.08.47.47,0,0,0,.32-.15c.14-.12.32-.34.55-.52a3.11,3.11,0,0,1,.83-.47,5.69,5.69,0,0,1,1.05-.32,1.09,1.09,0,0,1,.86.12,5.87,5.87,0,0,1,1,.87,7,7,0,0,0,1,.89,6.51,6.51,0,0,0,1.57.84,4.39,4.39,0,0,0,1.68.24,9.31,9.31,0,0,0,1.63-.2,2.89,2.89,0,0,0,1.08-.41,7.47,7.47,0,0,0,1.18-.94,4.84,4.84,0,0,0,.81-1,2.27,2.27,0,0,0,.25-.59c0-.1,0-.1.23-.09a7.13,7.13,0,0,0,1,0,9.14,9.14,0,0,0,1-.1c.22,0,.22,0,.29.07a4.25,4.25,0,0,0,.44.53,3,3,0,0,0,.69.53.41.41,0,0,0,.41.06.55.55,0,0,0,.19-.18s.08,0,0-.19a6,6,0,0,1-.36-.82,3.65,3.65,0,0,1-.11-1.27c0-.47.12-1,.17-1.32a3.39,3.39,0,0,0,.05-.56c0-.08,0-.08.18-.14l.92-.3a4.16,4.16,0,0,0,1.16-.5,6.29,6.29,0,0,0,1.09-1,5.43,5.43,0,0,0,.93-1.31,4.62,4.62,0,0,0,.41-1.74,5,5,0,0,0-.3-1.7,15.24,15.24,0,0,0-.7-1.61c-.23-.48-.41-.84-.51-1s-.08-.19.08-.5a14.19,14.19,0,0,1,.81-1.4,3.73,3.73,0,0,1,.85-.9c.27-.21.55-.39.71-.53S139.91,40.69,139.86,40.65Z"/><path class="cls-1" d="M164.14,141.64v51.6H131.93c5.4-2.7,14.58-5.9,27.67-5.72l1.59,0V135.34l-1.54,0c-20-.3-31.24,6.8-34.58,9.29-3.34-2.49-14.62-9.58-34.57-9.29l-1.54,0v52.21l1.59,0c13.09-.18,22.27,3,27.67,5.72h-32v-51.6h-4v56h85.59v-56Zm-37.5,5.72c2.36-1.8,12.76-8.81,31.42-8.92v45.95c-16.6.09-26.93,5.29-31.42,8.21Zm-34.55-8.92c18.66.11,29.06,7.12,31.42,8.92V192.6c-4.5-2.92-14.83-8.12-31.42-8.21Z"/><path class="cls-1" d="M132,154l-1.36-1.63c.24-.21,6.27-5.11,25-7.15l.23,2.12C137.88,149.29,132,154,132,154"/><path class="cls-1" d="M132,163.55l-1.36-1.64c.24-.21,6.27-5.11,25-7.15l.23,2.13c-17.94,2-23.81,6.61-23.87,6.66"/><path class="cls-1" d="M132,173.11l-1.36-1.64c.24-.21,6.27-5.11,25-7.15l.23,2.12c-17.94,2-23.81,6.62-23.87,6.67"/><path class="cls-1" d="M132,182.67,130.59,181c.24-.2,6.27-5.1,25-7.14l.23,2.12c-17.94,2-23.81,6.62-23.87,6.67"/><path class="cls-1" d="M118.41,154l1.36-1.63c-.24-.21-6.27-5.11-25-7.15l-.24,2.12c18,2,23.82,6.62,23.88,6.66"/><path class="cls-1" d="M118.41,163.55l1.36-1.64c-.24-.21-6.27-5.11-25-7.15l-.24,2.13c18,2,23.82,6.61,23.88,6.66"/><path class="cls-1" d="M118.41,173.11l1.36-1.64c-.24-.21-6.27-5.11-25-7.15l-.24,2.12c18,2,23.82,6.62,23.88,6.67"/><path class="cls-1" d="M118.41,182.67l1.36-1.65c-.24-.2-6.27-5.1-25-7.14L94.53,176c18,2,23.82,6.62,23.88,6.67"/><path class="cls-1" d="M212.6,85.15a10.67,10.67,0,0,1,1.2-.65l0-5.48a20.77,20.77,0,0,0-6.37,2.71L196,89.31a15.14,15.14,0,0,1-15.45,0L169.49,82c-7.1-4.71-18.65-4.71-25.75,0L133,89.1a15.18,15.18,0,0,1-15.46,0L106.86,82c-7.1-4.7-18.65-4.71-25.75,0L69.74,89.56a14.72,14.72,0,0,1-15.27-.07l-11.3-7.63a21.85,21.85,0,0,0-8.81-3.24l0,5.07A12,12,0,0,1,38,85.23l11.3,7.63a21,21,0,0,0,6.81,2.86v.07c.73.17,1.49.29,2.25.4l.26,0a25.33,25.33,0,0,0,3.41.25h.12a27.08,27.08,0,0,0,3.4-.23l.26,0c.77-.1,1.53-.21,2.26-.37v-.08A21,21,0,0,0,74.89,93l11.37-7.54a15.14,15.14,0,0,1,15.45,0l10.64,7c7.11,4.71,18.66,4.71,25.76,0l10.78-7.14a15.14,15.14,0,0,1,15.45,0l11.08,7.34c7.1,4.71,18.65,4.72,25.75,0Zm1.09,24.08,0-5.48a20.59,20.59,0,0,0-6.38,2.71L195.91,114a15.17,15.17,0,0,1-15.45,0l-11.08-7.34c-7.1-4.71-18.65-4.72-25.75,0l-10.78,7.14a15.17,15.17,0,0,1-15.45,0l-10.64-7.06c-7.11-4.71-18.66-4.71-25.76,0l-11.37,7.54a14.7,14.7,0,0,1-15.26-.07l-11.31-7.63a21.86,21.86,0,0,0-8.81-3.25l0,5.07A12.18,12.18,0,0,1,37.88,110l11.31,7.63a20.81,20.81,0,0,0,6.8,2.86v.07c.73.17,1.49.28,2.25.4l.27,0a23.76,23.76,0,0,0,3.4.26H62a23.78,23.78,0,0,0,3.4-.23l.26,0c.77-.11,1.53-.22,2.27-.38v-.07a21,21,0,0,0,6.82-2.8l11.37-7.53a15.18,15.18,0,0,1,15.46,0l10.64,7.06c7.1,4.7,18.65,4.71,25.75,0l10.78-7.15a15.14,15.14,0,0,1,15.45,0l11.08,7.34c7.1,4.71,18.65,4.71,25.75,0l11.43-7.58A12.49,12.49,0,0,1,213.69,109.23Z"/><path class="cls-1" d="M212.75,147.17c0,40.12-75.08,74.86-87.72,80.41-12.64-5.55-87.72-40.25-87.72-80.41V5H212.75Zm4.83-1.4V0H32.26V145.77c0,48.15,86.38,85.38,90.1,86.94l2.34.92,1.93-.92C130.34,231.15,217.58,193.92,217.58,145.77Z"/><polygon class="cls-1" points="273.65 20.04 267.12 18.7 267.12 14.45 290.33 14.45 290.33 18.7 283.8 19.42 282.98 20.87 296.34 68.75 313.03 14.45 320.28 14.45 337.28 69.89 349.82 21.29 348.68 19.84 341.74 18.7 341.74 14.45 363.19 14.45 363.19 18.7 356.24 20.04 339.77 83.98 332.72 83.98 315.2 27.3 298 83.98 291.06 83.98 273.65 20.04"/><path class="cls-1" d="M401.32,78.7c-6.84,4.35-12.75,6.22-19.28,6.22-13.88,0-23.31-10.26-23.31-25.39,0-15.45,9.95-26.33,23.94-26.33,11.5,0,18.65,7.67,18.65,20.11,0,.72,0,1.86-.1,3.42H367.64a31.2,31.2,0,0,0,1.24,10.15C371.27,74.55,377.17,79,385,79c5.18,0,9.22-1.45,16.37-6ZM392.1,52.37c0-4.87-.31-7-1.45-9.32a9.81,9.81,0,0,0-9.12-5.29c-7.36,0-12.23,5.39-13.37,14.61Z"/><polygon class="cls-1" points="409.09 80.25 415.21 79.73 416.97 78.08 416.97 14.65 408.99 14.65 408.99 11.44 421.63 7.71 425.57 7.71 425.57 78.08 427.44 79.73 433.45 80.25 433.45 83.98 409.09 83.98 409.09 80.25"/><polygon class="cls-1" points="442.88 80.25 448.99 79.73 450.75 78.08 450.75 14.65 442.77 14.65 442.77 11.44 455.42 7.71 459.36 7.71 459.36 78.08 461.22 79.73 467.23 80.25 467.23 83.98 442.88 83.98 442.88 80.25"/><path class="cls-1" d="M492.93,33.62V78.08l1.76,1.65,5.6.52V84H476.87V80.25l5.59-.52,1.76-1.65V40.56h-7.35V37.35l12-3.73Zm2.28-17a6,6,0,0,1-11.92,0,6,6,0,1,1,11.92,0Z"/><path class="cls-1" d="M509.1,80.25l5.59-.52,1.77-1.65V40.56H509.1V37.35l12-3.73h3.93v5.7c9.13-4.87,12.65-6.12,17.21-6.12,8.6,0,13.47,5.7,13.47,15.65V78.08l1.76,1.65,5.6.52V84h-22.7V80.25l5-.52,1.76-1.65V50.61c0-7.35-3-10.57-9.85-10.57-3.83,0-6.73.73-12.23,3.32V78.08l1.77,1.65,5,.52V84H509.1Z"/><path class="cls-1" d="M617.18,36v4.87h-11.4a16.89,16.89,0,0,1,2.9,9.54c0,9.84-8,16.37-20,16.37a8.61,8.61,0,0,1-1.55-.1A10.7,10.7,0,0,0,586,71.44a12.51,12.51,0,0,0,.2,2.39l9.95,1.55c12.75,2,17.62,5.49,17.62,12.44,0,10.26-12.12,18.75-26.84,18.75-11.61,0-18.65-5.07-18.65-13.36,0-6.74,4.14-11.4,11.19-12.85a11,11,0,0,1-1-4.46c0-2.9,1.46-5.7,5-10.05-8.29-2.18-12.85-7.77-12.85-15.65,0-10.05,8.08-17,19.89-17A26.07,26.07,0,0,1,602.36,36ZM585.47,80.87c-6.11,2.18-8.91,5.5-8.91,10.26,0,6.33,5.8,10.68,14.09,10.68,8.81,0,15.44-4.77,15.44-11.19,0-4.67-2.17-6.33-10.57-7.88Zm-6-31c0,7.67,4,12.75,10.16,12.75S599.77,57.56,599.77,50c0-7.77-4-12.74-10.36-12.74C583.4,37.25,579.46,42.32,579.46,49.89Z"/><path class="cls-1" d="M636.15,7.71v29c5.38-2.49,9.74-3.53,14.19-3.53,12.44,0,20.52,9.54,20.52,24.25,0,17.1-10.67,26.53-30.05,26.53H627.54V14.65h-8V11.44l12.75-3.73Zm0,71.51c3.73.2,4.35.2,5.69.2,13.37,0,19.69-6.63,19.69-20.62,0-12.85-5.8-20.1-16.06-20.1a34.29,34.29,0,0,0-9.32,1.55Z"/><path class="cls-1" d="M728.07,59.11c0,15-10.06,25.81-24.15,25.81s-24-10.68-24-25.81c0-15.44,9.84-25.91,24.25-25.91,13.88,0,23.94,10.88,23.94,25.91M689.62,59c0,12.85,5.7,21.35,14.3,21.35s14.41-8.4,14.41-21.25c0-13.06-5.7-21.35-14.62-21.35C695.21,37.76,689.62,46.16,689.62,59Z"/><path class="cls-1" d="M733.56,80.25l5.59-.52,1.77-1.65V40.56h-7.36V37.35l12-3.73h3.94v9.74a118.26,118.26,0,0,1,11.09-10,10.31,10.31,0,0,1,2.48-.21,14.75,14.75,0,0,1,6.32,1.35v8.91H766.1a6.12,6.12,0,0,0-5.18-2.49c-3.42,0-6.64,2.18-11.4,7.57V78.08l1.76,1.65,7.25.52V84h-25Z"/><path class="cls-1" d="M822.06,59.11c0,15-10,25.81-24.15,25.81s-24-10.68-24-25.81c0-15.44,9.85-25.91,24.25-25.91,13.89,0,23.94,10.88,23.94,25.91M783.61,59c0,12.85,5.7,21.35,14.3,21.35s14.41-8.4,14.41-21.25c0-13.06-5.7-21.35-14.61-21.35C789.21,37.76,783.61,46.16,783.61,59Z"/><path class="cls-1" d="M843.09,33.1V67.4c0,7.46,3.11,10.88,10.06,10.88,3.83,0,7.25-.83,12-3V40.15h-7.36V36.93l12-3.83h3.94v45l1.87,1.65,4.86.52V84H865.17v-5.8c-7.57,5.08-11.71,6.74-17.1,6.74-8.71,0-13.58-5.7-13.58-15.76v-29h-7.35V36.93l12-3.83Z"/><path class="cls-1" d="M934,36v4.87h-11.4a16.89,16.89,0,0,1,2.9,9.54c0,9.84-8,16.37-20,16.37a8.77,8.77,0,0,1-1.56-.1,10.83,10.83,0,0,0-1.14,4.76,11.93,11.93,0,0,0,.21,2.39l10,1.55c12.75,2,17.62,5.49,17.62,12.44,0,10.26-12.13,18.75-26.84,18.75-11.61,0-18.66-5.07-18.66-13.36,0-6.74,4.15-11.4,11.2-12.85a11,11,0,0,1-1-4.46c0-2.9,1.45-5.7,5-10.05-8.29-2.18-12.85-7.77-12.85-15.65,0-10.05,8.09-17,19.9-17A26.1,26.1,0,0,1,919.16,36ZM902.27,80.87c-6.12,2.18-8.92,5.5-8.92,10.26,0,6.33,5.81,10.68,14.1,10.68,8.81,0,15.44-4.77,15.44-11.19,0-4.67-2.18-6.33-10.57-7.88Zm-6-31c0,7.67,4,12.75,10.15,12.75S916.57,57.56,916.57,50c0-7.77-4-12.74-10.37-12.74C900.19,37.25,896.26,42.32,896.26,49.89Z"/><path class="cls-1" d="M953.15,7.71V39.32c8.7-4.67,12.85-6.12,17.2-6.12,8.5,0,13.47,5.81,13.47,15.65V78.08l1.77,1.65,5.58.52V84H968.49V80.25l5-.52,1.76-1.65V50.61c0-7.35-3-10.57-10-10.57-3.73,0-6.73.83-12.12,3.32V78.08L955,79.73l4.87.52V84H937.19V80.25l5.6-.52,1.76-1.65V14.65h-8V11.44l12.64-3.73Z"/><path class="cls-1" d="M273.34,168.86h6.11l1.24,11.91,1.35,1.77a24.93,24.93,0,0,0,11.4,2.38c10.05,0,15.86-4.66,15.86-12.75,0-4.25-1.35-6.73-5-9.12-2.59-1.76-3.31-2.07-12.95-6.22-12.64-5.28-16.89-9.94-16.89-18.23,0-12.34,9.32-20.21,24.14-20.21a56.08,56.08,0,0,1,17.41,2.9v16.06h-5.39l-1.55-9.84-1.56-1.76a18.93,18.93,0,0,0-9.32-2.18c-8.5,0-14.1,4.87-14.1,12.33,0,4.25,1.56,6.84,5.5,9.43,2.17,1.35,4.87,2.59,12.54,5.81,12.54,5.07,16.78,9.84,16.78,18.55,0,12.64-10.77,20.72-27.35,20.72a47.59,47.59,0,0,1-18.24-3.31Z"/><path class="cls-1" d="M366.81,184.82c-6.53,3.62-11.29,5.07-17,5.07-13.89,0-23.22-10.25-23.22-25.59,0-15.55,9.95-25.91,24.87-25.91,9.23,0,15.24,3.83,15.24,9.84a5.33,5.33,0,0,1-5.6,5.6,8.36,8.36,0,0,1-4.87-1.45v-8.5a10.2,10.2,0,0,0-5.18-1.35c-8.91,0-15,8.5-15,20.73,0,12.75,6.64,20.52,17.52,20.52,4.56,0,8-1.14,13.26-4.35Z"/><path class="cls-1" d="M389.69,112.89V144.5c8.71-4.66,12.85-6.11,17.2-6.11,8.5,0,13.48,5.8,13.48,15.65v29.22l1.76,1.66,5.6.52v3.73H405v-3.73l5-.52,1.75-1.66V155.8c0-7.36-3-10.57-9.94-10.57-3.73,0-6.74.83-12.13,3.32v34.71l1.87,1.66,4.87.52v3.73h-22.7v-3.73l5.6-.52,1.76-1.66V119.84h-8v-3.21l12.64-3.74Z"/><path class="cls-1" d="M479.54,164.3c0,15-10.06,25.8-24.15,25.8s-24-10.67-24-25.8c0-15.44,9.84-25.91,24.25-25.91,13.88,0,23.94,10.88,23.94,25.91m-38.45-.11c0,12.85,5.7,21.35,14.3,21.35s14.41-8.39,14.41-21.24c0-13.06-5.7-21.35-14.62-21.35C446.69,143,441.09,151.34,441.09,164.19Z"/><path class="cls-1" d="M535.91,164.3c0,15-10,25.8-24.14,25.8s-24-10.67-24-25.8c0-15.44,9.85-25.91,24.25-25.91,13.89,0,23.94,10.88,23.94,25.91m-38.45-.11c0,12.85,5.7,21.35,14.31,21.35s14.4-8.39,14.4-21.24c0-13.06-5.7-21.35-14.61-21.35C503.06,143,497.46,151.34,497.46,164.19Z"/><polygon class="cls-1" points="540.52 185.44 546.64 184.92 548.4 183.26 548.4 119.84 540.42 119.84 540.42 116.63 553.06 112.89 557 112.89 557 183.26 558.87 184.92 564.88 185.44 564.88 189.17 540.52 189.17 540.52 185.44"/><polygon class="cls-1" points="273.7 260.13 276.31 259.91 277.08 259.27 277.08 234.08 276.31 233.44 273.34 233.21 273.34 231.34 295.27 231.34 295.27 238.47 292.76 238.47 292.07 234.13 291.48 233.44 281.2 233.44 281.2 245.46 288.69 245.46 289.33 244.82 289.79 241.49 291.94 241.49 291.94 251.59 289.79 251.59 289.33 248.25 288.69 247.57 281.2 247.57 281.2 259.27 281.98 259.91 285.22 260.13 285.22 262.01 273.7 262.01 273.7 260.13"/><path class="cls-1" d="M319,251c0,6.62-4.43,11.38-10.65,11.38s-10.6-4.71-10.6-11.38,4.34-11.43,10.69-11.43c6.13,0,10.56,4.8,10.56,11.43m-16.95,0c0,5.67,2.51,9.42,6.3,9.42s6.35-3.7,6.35-9.37-2.51-9.42-6.44-9.42C304.51,241.62,302.05,245.33,302.05,251Z"/><path class="cls-1" d="M329.11,239.57v15.12c0,3.3,1.37,4.8,4.44,4.8a12,12,0,0,0,5.3-1.32V242.68H335.6v-1.42l5.3-1.69h1.74V259.4l.82.73,2.15.23V262h-6.76v-2.56c-3.34,2.24-5.17,3-7.55,3-3.83,0-6-2.51-6-7V242.68h-3.25v-1.42l5.3-1.69Z"/><path class="cls-1" d="M349.59,260.36l2.47-.23.78-.73V242.86h-3.25v-1.42l5.31-1.64h1.73v2.51c4-2.15,5.58-2.7,7.59-2.7,3.79,0,5.94,2.52,5.94,6.9V259.4l.78.73,2.47.23V262h-10v-1.65l2.19-.23.78-.73V247.29c0-3.24-1.33-4.66-4.34-4.66a11.46,11.46,0,0,0-5.4,1.46V259.4l.78.73,2.19.23V262h-10Z"/><path class="cls-1" d="M388.86,231.43V230l5.58-1.65h1.74v31l.77.73,2.2.23V262h-6.77v-2.38c-2.65,2-4.57,2.79-7,2.79-5.21,0-8.87-4.43-8.87-10.69,0-7.18,4.8-12.12,11.84-12.12a23.86,23.86,0,0,1,4,.41v-8.59Zm3.52,10.83a16.16,16.16,0,0,0-4-.64c-4.71,0-7.81,3.75-7.81,9.33,0,5.25,2.65,8.59,6.8,8.59a9.6,9.6,0,0,0,5-1.6Z"/><path class="cls-1" d="M421.6,259.68a15.18,15.18,0,0,1-8.5,2.74c-6.13,0-10.29-4.53-10.29-11.2s4.39-11.61,10.56-11.61c5.07,0,8.23,3.38,8.23,8.87,0,.32,0,.82-.05,1.51H406.74a13.81,13.81,0,0,0,.55,4.48,7.13,7.13,0,0,0,7.09,5.34c2.28,0,4.06-.63,7.22-2.65Zm-4.07-11.61a8.42,8.42,0,0,0-.64-4.11,4.32,4.32,0,0,0-4-2.34c-3.25,0-5.4,2.38-5.9,6.45Z"/><path class="cls-1" d="M438.42,231.43V230l5.58-1.65h1.73v31l.78.73,2.2.23V262h-6.77v-2.38c-2.65,2-4.57,2.79-7,2.79-5.21,0-8.87-4.43-8.87-10.69,0-7.18,4.8-12.12,11.84-12.12a23.86,23.86,0,0,1,4,.41v-8.59Zm3.52,10.83a16.16,16.16,0,0,0-4-.64c-4.71,0-7.81,3.75-7.81,9.33,0,5.25,2.64,8.59,6.8,8.59a9.6,9.6,0,0,0,5-1.6Z"/><polygon class="cls-1" points="478.84 230.79 478.84 259.22 479.39 259.91 484.51 260.13 484.51 262.01 468.6 262.01 468.6 260.04 474.04 259.81 474.59 258.99 474.59 234.45 467.14 235.68 467.14 233.76 477.47 230.79 478.84 230.79"/><path class="cls-1" d="M507.82,231.34v3.57H494.29v9.14a17.51,17.51,0,0,1,4.94-.74c5.94,0,9.92,3.52,9.92,8.83,0,6-5,10.42-11.89,10.42-4.61,0-8.13-1.92-8.13-4.44a2.43,2.43,0,0,1,2.6-2.42,6.53,6.53,0,0,1,1.15.14l1.83,3.93a7.93,7.93,0,0,0,3.06.64c4.29,0,7.22-3.06,7.22-7.5s-3.11-6.76-9.6-6.76a25.62,25.62,0,0,0-3.93.27V231.34Z"/><path class="cls-1" d="M517.57,262.19c6.94-3.15,11.65-7.54,13.48-12.57a16.55,16.55,0,0,1-6.9,1.79c-5.53,0-9.33-4-9.33-9.83,0-6.35,4.58-10.79,11.16-10.79,6.39,0,10.33,4.39,10.33,11.57,0,6.85-3.48,13.11-9.79,17.73a32,32,0,0,1-7.9,4.2Zm14.58-19.74c0-6-2.38-9.46-6.54-9.46-3.93,0-6.49,3.19-6.49,8.18s2.42,7.76,6.72,7.76a12.43,12.43,0,0,0,5.8-1.59A23.44,23.44,0,0,0,532.15,242.45Z"/><path class="cls-1" d="M560.54,231.34v3.57H547v9.14a17.39,17.39,0,0,1,4.93-.74c5.95,0,9.92,3.52,9.92,8.83,0,6-5,10.42-11.88,10.42-4.62,0-8.14-1.92-8.14-4.44a2.43,2.43,0,0,1,2.61-2.42,6.55,6.55,0,0,1,1.14.14l1.83,3.93a8,8,0,0,0,3.06.64c4.3,0,7.22-3.06,7.22-7.5s-3.1-6.76-9.59-6.76a25.53,25.53,0,0,0-3.93.27V231.34Z"/><path class="cls-1" d="M50.25,240.34a3.93,3.93,0,0,1-2.44,2,4.43,4.43,0,0,1-3.41-.56,10.19,10.19,0,0,1-1.47-1,11.37,11.37,0,0,1-1.12-1l-.36-.42,1.62-2.85.77.44a.35.35,0,0,1,.17.46,8.62,8.62,0,0,1-.37.82l-.34.73A7.15,7.15,0,0,0,45,240.4a4.18,4.18,0,0,0,1.27.51,2.43,2.43,0,0,0,1,0,2.27,2.27,0,0,0,1.47-1.16,1.78,1.78,0,0,0-.06-1.88A5.46,5.46,0,0,0,48,237a23.36,23.36,0,0,1-1.61-1.83,3.81,3.81,0,0,1-.56-1,3.15,3.15,0,0,1,.36-2.6,3.36,3.36,0,0,1,2.15-1.65,4,4,0,0,1,3.08.48,9.68,9.68,0,0,1,2.81,2.46l-1.48,2.61L52,235a.35.35,0,0,1-.17-.46s.23-.53.67-1.48a7.85,7.85,0,0,0-1.7-1.37,2.58,2.58,0,0,0-1.86-.38,1.85,1.85,0,0,0-1.26,1,1.71,1.71,0,0,0,.11,1.81,5.1,5.1,0,0,0,.66.89c.77.86,1.3,1.48,1.58,1.86a3,3,0,0,1,.27,3.54"/><path class="cls-1" d="M62.56,249.59l-.3.66-3.43-1.53.3-.66a.28.28,0,0,1,.35-.18l.77.11.14-2.83-5.16-2.29-2,2,.6.5a.29.29,0,0,1,.1.38l-.29.66-3.43-1.52.29-.67a.29.29,0,0,1,.34-.17l.76.09,9.15-8.89,1.64.73-.5,12.75.58.5a.29.29,0,0,1,.1.37m-2.1-5.79.27-5.38a10.43,10.43,0,0,1,.14-1.29c-.35.43-.63.76-.85,1L56.2,241.9Z"/><path class="cls-1" d="M73.22,254.19l-.4-.14-.15-.05-6.87-2.39-1.24-.44.26-.74a.35.35,0,0,1,.37-.23l1,.15,3.43-9.84-.92-.54a.36.36,0,0,1-.15-.41l.26-.75,1.25.44,1.67.58h0l1.24.43-.26.75a.34.34,0,0,1-.37.22l-1-.14L68,250.78l4.45,1.56c.22-.48.4-.9.44-1a.39.39,0,0,1,.46-.17l.83.29Z"/><path class="cls-1" d="M90.31,245.08l-.2.76a.31.31,0,0,1-.36.26L88.69,246,87,252.46a5.27,5.27,0,0,1-2.29,3.31,5.57,5.57,0,0,1-7.39-1.91,5.27,5.27,0,0,1-.41-4l1.65-6.41-.95-.46a.31.31,0,0,1-.18-.4l.19-.76L82.1,243l-.2.76a.32.32,0,0,1-.36.26l-1.23-.1-1.65,6.4a3.86,3.86,0,0,0,.21,2.83,3.21,3.21,0,0,0,2.2,1.65,3.27,3.27,0,0,0,2.72-.37A3.85,3.85,0,0,0,85.33,252L87,245.6l-1.12-.5a.32.32,0,0,1-.19-.4l.2-.76,1.44.37,1.71.44Z"/><path class="cls-1" d="M98.27,255.94a4,4,0,0,1-1.62,2.68,4.45,4.45,0,0,1-3.41.62,10.25,10.25,0,0,1-1.73-.48,13.76,13.76,0,0,1-1.4-.6l-.48-.27.57-3.23.87.15a.35.35,0,0,1,.32.37c0,.08,0,.39-.08.91s-.07.78-.07.79a6.53,6.53,0,0,0,2.08.88,4.14,4.14,0,0,0,1.37.06,2.42,2.42,0,0,0,.91-.34,2.22,2.22,0,0,0,1-1.58,1.78,1.78,0,0,0-.68-1.75,5.34,5.34,0,0,0-.91-.61q-1.62-.82-2.13-1.17a4,4,0,0,1-.88-.81,3.11,3.11,0,0,1-.54-2.57,3.37,3.37,0,0,1,1.47-2.27,4,4,0,0,1,3.06-.59,10,10,0,0,1,3.48,1.37l-.52,3-.87-.15a.33.33,0,0,1-.31-.37s0-.58.14-1.63a7.83,7.83,0,0,0-2.07-.71,2.63,2.63,0,0,0-1.88.27,1.83,1.83,0,0,0-.86,1.31,1.74,1.74,0,0,0,.7,1.68,5.16,5.16,0,0,0,.93.61c1,.55,1.72,1,2.11,1.22a3,3,0,0,1,1.44,3.25"/><path class="cls-1" d="M110.56,249.81l-.93,10.38,1.08.32c.15,0,.21.16.19.35l-.07.78-4.39-.4.07-.78a.31.31,0,0,1,.3-.31l1.06-.12.93-10.38-1.07-.31a.29.29,0,0,1-.19-.35l.07-.78,4.39.39-.07.78a.31.31,0,0,1-.31.32Z"/><path class="cls-1" d="M125.09,258.54l.2-7.93-1.21-.25a.3.3,0,0,1-.26-.34l0-.79,1.49,0,1.55,0,1.32,0,0,.79a.31.31,0,0,1-.29.33l-1,.18-.29,11.75-.9,0A.74.74,0,0,1,125,262L117.71,252c0,.31,0,.6,0,.85l-.21,8,1.21.24a.32.32,0,0,1,.27.35l0,.78-4.36-.11,0-.78a.31.31,0,0,1,.29-.33l1-.19.27-10.42-1-.23a.31.31,0,0,1-.26-.35l0-.78,2.22.05a.88.88,0,0,1,.35.07,1,1,0,0,1,.26.25l7.32,10.06a8.61,8.61,0,0,1,0-.9"/><path class="cls-1" d="M148.38,260.3l.07.72-3.73.38-.07-.72a.29.29,0,0,1,.21-.33l.73-.29-1.29-2.52-5.61.57-.76,2.73.77.14a.29.29,0,0,1,.28.28l.07.72-3.73.38-.08-.72a.29.29,0,0,1,.21-.32l.71-.29,3.51-12.27,1.79-.19,5.91,11.31.75.14a.28.28,0,0,1,.26.28m-4.7-4-2.44-4.8a8.29,8.29,0,0,1-.51-1.19c-.1.55-.18,1-.26,1.28L139,256.79Z"/><path class="cls-1" d="M161.85,257.84l.14.77-.32.06-1,.18-.57.1a.77.77,0,0,1-.77-.24l-4.18-4a.89.89,0,0,0-.39-.25,1.25,1.25,0,0,0-.55,0l-1.15.21.74,4.06,1.06,0a.34.34,0,0,1,.33.28l.14.78-1.29.23h0l-1.73.32-1.3.23-.14-.77a.33.33,0,0,1,.22-.38l1-.39-1.86-10.26-1.06,0a.34.34,0,0,1-.33-.28l-.14-.78,1.3-.23,3.46-.63a7.89,7.89,0,0,1,2.16-.13,4.05,4.05,0,0,1,1.6.44,2.94,2.94,0,0,1,1.06,1,3.73,3.73,0,0,1,.55,1.42,3.91,3.91,0,0,1,0,1.32,3.36,3.36,0,0,1-.43,1.18,3.73,3.73,0,0,1-.85,1,5.38,5.38,0,0,1-1.24.75,1.94,1.94,0,0,1,.67.44l3.48,3.3,1.05,0a.34.34,0,0,1,.33.28m-6-5.15a2.87,2.87,0,0,0,.88-.7,2.2,2.2,0,0,0,.44-.91,2.74,2.74,0,0,0,0-1.07,2.11,2.11,0,0,0-1.07-1.6,3.73,3.73,0,0,0-2.37-.18l-1.73.32.88,4.86,1.65-.3A4.48,4.48,0,0,0,155.82,252.69Z"/><path class="cls-1" d="M175.8,251.25a5.87,5.87,0,0,1-.71,2.34,6.27,6.27,0,0,1-4,3l-5.81,1.63-.21-.76a.29.29,0,0,1,.17-.39l.94-.49-2.8-10-1.06.09a.32.32,0,0,1-.36-.26l-.21-.76,5.81-1.62a6.29,6.29,0,0,1,5,.47,6.54,6.54,0,0,1,3,4.1,7.48,7.48,0,0,1,.27,2.7m-2.92-4.2a4.56,4.56,0,0,0-1.33-1.3,4.33,4.33,0,0,0-3.61-.39l-2.83.79,2.75,9.84,2.83-.79a4.37,4.37,0,0,0,2.89-2.21,5.32,5.32,0,0,0,.2-4A6.64,6.64,0,0,0,172.88,247.05Z"/><path class="cls-1" d="M187.53,237.44l.27.74a.31.31,0,0,1-.14.42l-.91.56,2.31,6.2a5.26,5.26,0,0,1,0,4,5.59,5.59,0,0,1-7.15,2.66,5.27,5.27,0,0,1-2.63-3.06l-2.3-6.2-1.05.16a.31.31,0,0,1-.38-.22l-.27-.74,4.29-1.59.27.74a.3.3,0,0,1-.15.41l-1.06.62,2.3,6.2a3.9,3.9,0,0,0,1.79,2.2,3.61,3.61,0,0,0,4.77-1.76,4,4,0,0,0-.09-2.83l-2.31-6.21-1.2.22a.32.32,0,0,1-.39-.21l-.27-.74,1.4-.52,1.65-.62Z"/><path class="cls-1" d="M193.31,236.3l4.41,9.44,1.1-.26c.14,0,.25,0,.33.2l.34.71-4,1.87-.33-.71a.32.32,0,0,1,.1-.43l.86-.63-4.41-9.44-1.09.27c-.15,0-.26,0-.34-.21l-.33-.71,4-1.87.33.72a.31.31,0,0,1-.11.42Z"/><path class="cls-1" d="M208,237.55a3.94,3.94,0,0,1,.38,3.12,4.44,4.44,0,0,1-2.29,2.58,12.23,12.23,0,0,1-3.13,1.09l-.55.09-1.55-2.89.78-.42a.34.34,0,0,1,.48.1q.08.09.51.75l.42.67a6.7,6.7,0,0,0,2.19-.6,4.56,4.56,0,0,0,1.11-.79,2.59,2.59,0,0,0,.51-.83,2.28,2.28,0,0,0-.2-1.86,1.76,1.76,0,0,0-1.62-.95,5.24,5.24,0,0,0-1.09.08q-1.78.34-2.4.39a3.37,3.37,0,0,1-1.19-.09,3.12,3.12,0,0,1-2-1.68,3.35,3.35,0,0,1-.25-2.7,4,4,0,0,1,2-2.35,9.59,9.59,0,0,1,3.59-1.07l1.42,2.64-.78.42a.34.34,0,0,1-.48-.1s-.33-.48-.9-1.36a8.22,8.22,0,0,0-2.06.72,2.62,2.62,0,0,0-1.31,1.37,1.86,1.86,0,0,0,.13,1.57,1.72,1.72,0,0,0,1.59.87,4.84,4.84,0,0,0,1.11-.08c1.14-.2,1.94-.31,2.41-.35a3,3,0,0,1,3.14,1.66"/><path class="cls-1" d="M225,228.35a193.34,193.34,0,0,0-.81-23.7,155.62,155.62,0,0,1-17.94,14.94l-3.94-5.54c-47.22,32.34-107.54,32.34-154.75,0l-3.95,5.55a155.62,155.62,0,0,1-17.94-14.94,193.27,193.27,0,0,0-.81,23.7,182.93,182.93,0,0,1-24.85,2,186.88,186.88,0,0,0,60.45,39.61l2.7-6.9a171.47,171.47,0,0,0,123.54,0l2.7,6.9a187,187,0,0,0,60.45-39.6,184.69,184.69,0,0,1-24.85-2M58.42,265.57c-21.05-8.8-33.34-17.84-50.87-32.38,7.52-.25,20.3-1.7,20.6-2.08A174.69,174.69,0,0,1,28.32,211c5.19,4.84,7.33,7.11,13,11.12-5.49,7.7-9.32,13.76-14.81,21.46a159.11,159.11,0,0,0,33.36,18.18C59.07,263.73,59.21,263.63,58.42,265.57ZM30.74,243.06c6.5-9.3,10.83-15.39,17.33-24.69,47.12,31.64,106.44,31.45,153.56-.2,6.5,9.31,10.83,15.59,17.33,24.89C159,280.71,90.89,279.91,30.74,243.06Zm159.14,18.53a159,159,0,0,0,33.47-18c-5.48-7.7-9.86-13.76-15.35-21.46,5.65-4,8.38-5.57,13.58-10.41a161.5,161.5,0,0,1,.37,19.18c.3.38,12.68,2.16,20.2,2.41-16.64,15.61-29.82,23.64-50.88,32.44C190.49,263.83,190.66,263.53,189.88,261.59Z"/></g></g></svg>