<?xml version="1.0" encoding="UTF-8"?>
<svg width="1200pt" height="1200pt" version="1.1" viewBox="0 0 1200 1200" xmlns="http://www.w3.org/2000/svg">
 <path d="m1200 600c0 214.36-114.36 412.44-300 519.62-185.64 107.18-414.36 107.18-600 0-185.64-107.18-300-305.26-300-519.62s114.36-412.44 300-519.62c185.64-107.18 414.36-107.18 600 0 185.64 107.18 300 305.26 300 519.62" fill="#b3b3ff"/>
 <path d="m631.49 667.15c-7.5625 7.7812-14.363 16.27-20.309 25.348-12.395-18.273-33.023-29.234-55.105-29.281h-11.887v-140.91h45.105c0.003906 68.879-0.94141 58.648 42.195 144.84z"/>
 <path d="m687.14 966.6c-14.879 4.7227 2.4414 3.3867-310.87 3.3867-25.258-0.007812-48.711-13.094-61.988-34.578-13.273-21.488-14.484-48.316-3.1914-70.91l127.37-254.66c15.742-31.488 13.383-54.004 13.383-87.535h45.105v140.67h-11.414c-12.484-0.03125-24.727 3.4297-35.34 9.9961-10.617 6.5664-19.18 15.977-24.723 27.16l-88.562 177.28c-6.7617 13.656-6.0078 29.832 1.9961 42.801 8.0039 12.965 22.125 20.891 37.363 20.965h270.96c12.133 10.184 25.551 18.734 39.91 25.426z"/>
 <path d="m630.86 925.43h-254.58c-9.7852-0.039063-18.855-5.125-23.996-13.453-5.1406-8.3242-5.6211-18.715-1.2734-27.48l88.559-177.12h0.003906c4.2266-8.5859 10.773-15.82 18.898-20.887 8.125-5.0625 17.5-7.7539 27.074-7.7656h11.414v100.45l-45.027 45.027c-4.4258 4.4297-6.9062 10.434-6.9062 16.691 0 6.2617 2.4844 12.266 6.9102 16.691 4.4219 4.4297 10.426 6.918 16.684 6.9219 6.2617-0.003906 12.266-2.4961 16.688-6.9258l14.012-14.012h0.003906c3.1289 6.4648 9.0312 11.152 16.039 12.738 7.0039 1.5859 14.352-0.10156 19.961-4.5859 5.6094-4.4883 8.875-11.281 8.8672-18.465v-33.062c2.7656 1.1719 5.7383 1.7578 8.7383 1.7305 6.2617-0.003907 12.262-2.4961 16.688-6.9219 4.4219-4.4297 6.9102-10.43 6.9102-16.691 0-6.2578-2.4844-12.262-6.9062-16.691l-25.43-25.426v-57.465h11.414c9.5625-0.015625 18.934 2.6367 27.07 7.6562 8.1328 5.0234 14.707 12.211 18.984 20.762 0.55078 1.3398 0-0.94531-5.1953 11.73-15.371 33.965-20.305 71.73-14.18 108.5 6.125 36.777 23.031 70.902 48.578 98.055z"/>
 <path d="m731.15 764.76 66.836 66.836c5.9336-3.3359 10.688-8.4219 13.617-14.562l-65.809-65.891c-6.1797 2.9062-11.297 7.668-14.645 13.617z"/>
 <path d="m677.7 830.65 54.395 54.473c-0.41797-15.562-3.4531-30.941-8.9727-45.5-14.531-5.5117-29.887-8.5469-45.422-8.9727z"/>
 <path d="m764.37 747.45 50.934 51.012h-0.003907c-1.1094-14.312-4.1836-28.406-9.1289-41.879-13.449-4.957-27.516-8.0312-41.801-9.1328z"/>
 <path d="m735.71 827.03c14.246 5.3867 29.262 8.4688 44.477 9.1328l-53.531-53.531h0.003906c0.64453 15.188 3.6992 30.172 9.0508 44.398z"/>
 <path d="m768.15 623.62c-45.758-0.019532-89.652 18.125-122.04 50.453-32.383 32.328-50.609 76.188-50.672 121.95s18.043 89.668 50.34 122.08c32.297 32.414 76.141 50.684 121.9 50.785 45.758 0.10547 89.688-17.961 122.13-50.227 32.445-32.27 50.754-76.098 50.898-121.86 0.125-30.363-7.7695-60.223-22.883-86.559-15.117-26.336-36.914-48.215-63.195-63.426-26.281-15.211-56.113-23.211-86.477-23.199zm-134.69 181.06c-4.3477 0-7.8711-3.5273-7.8711-7.875-0.019532-37.836 14.984-74.133 41.719-100.91 26.734-26.781 63.004-41.844 100.84-41.887 4.3477 0 7.8711 3.5234 7.8711 7.8711s-3.5234 7.8711-7.8711 7.8711c-33.664 0.042968-65.93 13.449-89.711 37.277-23.781 23.824-37.129 56.117-37.109 89.777 0 2.0898-0.82812 4.0898-2.3047 5.5664-1.4766 1.4766-3.4766 2.3086-5.5664 2.3086zm182.87 32.746c-20.152 20.23-47.23 15.742-75.02 7.8711 7.8711 27.078 12.121 55.105-7.8711 75.098v0.003906c-3.0898 3.0625-8.0742 3.0469-11.141-0.039062-3.0664-3.0898-3.0469-8.0742 0.039062-11.141 1.9727-1.9844 3.6914-4.207 5.1172-6.6133l-67.07-67.07c-2.4062 1.4258-4.6289 3.1445-6.6094 5.1172-1.4805 1.4922-3.4922 2.3281-5.5898 2.3281-2.1016 0-4.1133-0.83594-5.5898-2.3281-3.0508-3.0703-3.0508-8.0273 0-11.098 20.074-20.074 47.781-15.742 75.098-7.8711-7.8711-26.609-12.438-54.555 7.8711-75.02 20.309-20.469 47.781-15.742 75.098-7.8711-7.8711-26.609-12.516-54.633 7.8711-75.098l0.003906-0.003906c3.0703-3.0547 8.0312-3.0547 11.102 0 1.4883 1.4766 2.3281 3.4883 2.3281 5.5898 0 2.0977-0.83984 4.1094-2.3281 5.5859-2.2734 2.3281-4.1836 4.9805-5.668 7.875l66.598 66.598v-0.003907c2.8906-1.4844 5.543-3.3945 7.8711-5.6641 1.4766-1.4922 3.4883-2.332 5.5898-2.332 2.0977 0 4.1094 0.83984 5.5859 2.332 3.0547 3.0703 3.0547 8.0273 0 11.098-20.469 20.469-48.492 15.742-75.098 7.8711 7.5586 26.293 12.281 54.082-8.1875 74.551zm29.914 78.719c-1.7422 1.1914-3.8906 1.6328-5.9609 1.2227-2.0703-0.40625-3.8906-1.6289-5.0508-3.3906-1.1602-1.7656-1.5664-3.918-1.125-5.9805 0.44531-2.0664 1.6953-3.8633 3.4766-4.9961 35.852-23.422 57.441-63.371 57.387-106.2 0-4.3477 3.5273-7.8711 7.875-7.8711s7.8711 3.5234 7.8711 7.8711c-0.054688 48.008-24.293 92.754-64.473 119.03z"/>
 <path d="m809.71 700.05c0.79297 15.016 3.8477 29.824 9.0547 43.926 14.102 5.207 28.91 8.2617 43.926 9.0547z"/>
 <path d="m528.45 356.68v73.762h-15.742l-0.003906-73.762c0-4.3477 3.5273-7.8711 7.875-7.8711 4.3477 0 7.8711 3.5234 7.8711 7.8711z"/>
 <path d="m528.45 522.3v310.95c0 4.3477-3.5234 7.8711-7.8711 7.8711-4.3477 0-7.875-3.5234-7.875-7.8711v-310.95z"/>
 <path d="m468.62 848.76c-3.1641-0.011718-6.0117-1.918-7.2305-4.8398-1.2188-2.918-0.57422-6.2852 1.6406-8.543l52.035-52.035c3.0703-3.0508 8.0273-3.0508 11.098 0 1.4922 1.4805 2.332 3.4922 2.332 5.5898 0 2.0977-0.83984 4.1133-2.332 5.5898l-52.109 51.957c-1.4492 1.4336-3.3945 2.25-5.4336 2.2812z"/>
 <path d="m552.77 786.18c-2.0664-0.007812-4.043-0.82812-5.5117-2.2852l-32.355-32.355 0.003906 0.003906c-1.4844-1.4727-2.3203-3.4727-2.3281-5.5625-0.007813-2.0898 0.81641-4.0938 2.2891-5.5781 3.0625-3.0859 8.0508-3.1055 11.137-0.039063l32.355 32.355c2.2695 2.25 2.9531 5.6523 1.7266 8.6055-1.2266 2.957-4.1172 4.875-7.3164 4.8555z"/>
 <path d="m601.66 446.18h-162.16c-6.5234 0-11.809 5.2852-11.809 11.809v36.762c0 6.5195 5.2852 11.809 11.809 11.809h162.16c6.5195 0 11.805-5.2891 11.805-11.809v-36.449c0.085937-3.1836-1.1211-6.2695-3.3438-8.5547-2.2227-2.2812-5.2734-3.5703-8.4609-3.5664zm-44.242 38.098h-73.684c-4.3477 0-7.8711-3.5234-7.8711-7.8711s3.5234-7.8711 7.8711-7.8711h73.684c4.3477 0 7.8711 3.5234 7.8711 7.8711s-3.5234 7.8711-7.8711 7.8711z"/>
 <path d="m647.23 230.02v21.254c0.023437 25.723-9.3594 50.566-26.383 69.852-17.023 19.285-40.508 31.68-66.035 34.848l47.23-47.23c4.668-4.3906 7.3477-10.492 7.4297-16.898 0.082032-6.4023-2.4414-12.57-6.9961-17.078-4.5508-4.5078-10.738-6.9727-17.145-6.832-6.4023 0.14062-12.477 2.8828-16.824 7.5859l-47.23 47.23v0.003906c3.1172-25.59 15.496-49.152 34.801-66.238 19.305-17.086 44.195-26.512 69.977-26.496z"/>
 <path d="m439.41 308.74 47.23 47.23c-25.582-3.0977-49.145-15.461-66.23-34.754-17.09-19.289-26.516-44.172-26.504-69.945v-21.254h21.258c25.719 0 50.555 9.4023 69.824 26.438 19.27 17.039 31.645 40.531 34.793 66.059l-47.23-47.23c-4.3047-4.9766-10.488-7.9336-17.066-8.1562-6.5742-0.22266-12.945 2.3086-17.574 6.9844-4.6328 4.6758-7.1016 11.066-6.8164 17.641s3.2969 12.73 8.3164 16.988z"/>
 <path d="m521.28 322.51c0 1.6523 0 1.7305-0.78906 0.78906z"/>
 <path d="m520.57 364.55c-3.1523-0.046875-5.9688-1.9609-7.168-4.875-1.1992-2.9141-0.54688-6.2578 1.6562-8.5078l64.473-64.551c3.0859-3.0664 8.0742-3.0469 11.137 0.039062 3.0664 3.0859 3.0508 8.0742-0.039063 11.137l-64.473 64.473c-1.4844 1.4727-3.4961 2.2969-5.5859 2.2852z"/>
 <path d="m520.57 323.3c-0.94531 0.94531-0.55078 0.86719-0.78906-0.78906z"/>
 <path d="m520.57 364.55c-2.0664-0.011719-4.0469-0.82812-5.5117-2.2852l-64.629-64.473c-1.4922-1.4766-2.3281-3.4883-2.3281-5.5859 0-2.1016 0.83594-4.1133 2.3281-5.5898 3.0703-3.0547 8.0273-3.0547 11.098 0l64.551 64.551c2.207 2.25 2.8594 5.5938 1.6602 8.5078-1.1992 2.9141-4.0195 4.8281-7.168 4.875z"/>
</svg>
