<?xml version="1.0" encoding="UTF-8"?>
<svg width="1200pt" height="1200pt" version="1.1" viewBox="0 0 1200 1200" xmlns="http://www.w3.org/2000/svg">
 <path d="m1200 600c0 214.36-114.36 412.44-300 519.62-185.64 107.18-414.36 107.18-600 0-185.64-107.18-300-305.26-300-519.62s114.36-412.44 300-519.62c185.64-107.18 414.36-107.18 600 0 185.64 107.18 300 305.26 300 519.62" fill="#b3b3ff"/>
 <path d="m540.96 564.58h23.617c-0.003906-13.609 4.6953-26.805 13.305-37.348 8.6055-10.543 20.59-17.789 33.926-20.512v-12.988h-70.848c-6.5195 0-11.809 5.2852-11.809 11.809v47.23c0 3.1328 1.2461 6.1367 3.4609 8.3477 2.2148 2.2148 5.2148 3.4609 8.3477 3.4609z"/>
 <path d="m942.43 493.73h-129.89c0 21.094-11.254 40.582-29.52 51.129-18.27 10.547-40.773 10.547-59.043 0-18.266-10.547-29.52-30.035-29.52-51.129h-11.809v70.848h259.78c3.1328 0 6.1367-1.2461 8.3516-3.4609 2.2148-2.2109 3.457-5.2148 3.457-8.3477v-47.23c0-3.1328-1.2422-6.1367-3.457-8.3516s-5.2188-3.457-8.3516-3.457z"/>
 <path d="m540.96 659.04h259.78v-11.809c-0.007812-12.418 6.4883-23.93 17.121-30.348l47.941-28.691h-187.98c-6.1289 14.184-17.574 25.402-31.879 31.242-14.309 5.8438-30.332 5.8438-44.641 0-14.305-5.8398-25.75-17.059-31.879-31.242h-28.457c-6.5195 0-11.809 5.2852-11.809 11.805v47.234c0 3.1328 1.2461 6.1328 3.4609 8.3477 2.2148 2.2148 5.2148 3.4609 8.3477 3.4609z"/>
 <path d="m942.43 588.2h-21.016c6.4609 6.5938 9.0898 16.043 6.9648 25.031-2.3672 14.277-11.043 26.723-23.617 33.891l-19.719 11.809 57.387-0.003906c3.1328 0 6.1367-1.2422 8.3516-3.457s3.457-5.2188 3.457-8.3477v-47.117c0-3.1289-1.2422-6.1328-3.457-8.3477s-5.2188-3.457-8.3516-3.457z"/>
 <path d="m800.74 682.66h-259.78c-6.5195 0-11.809 5.2891-11.809 11.809v47.234c0 3.1289 1.2461 6.1328 3.4609 8.3477 2.2148 2.2148 5.2148 3.4609 8.3477 3.4609h224.35c8.668-11.562 21.27-19.543 35.426-22.438z"/>
 <path d="m942.43 682.66h-70.848v70.848h70.848v0.003906c3.1328 0 6.1367-1.2461 8.3516-3.4609s3.457-5.2188 3.457-8.3477v-47.234c0-3.1289-1.2422-6.1328-3.457-8.3477-2.2148-2.2148-5.2188-3.4609-8.3516-3.4609z"/>
 <path d="m401.04 582.29h-1.7695v-47.23c22.125-17.715 39.977-40.18 52.242-65.727 12.266-25.551 18.625-53.535 18.605-81.875 0-18.984-10.129-36.527-26.566-46.016-16.441-9.4922-36.699-9.4922-53.137 0-16.441 9.4883-26.57 27.031-26.57 46.016v129.89c-4.6523 2.9688-9.4609 5.6914-14.406 8.1484l-34.125 17.004c-20.934 10.371-38.547 26.398-50.84 46.266-12.293 19.867-18.773 42.785-18.707 66.148v2.3633-0.003907c0.054687 32.008 12.293 62.793 34.223 86.105s51.914 37.406 83.855 39.414v36.605c-0.058594 3.0312-1.3516 5.9023-3.582 7.957-2.2305 2.0508-5.1992 3.1016-8.2266 2.9062-6.5195 0-11.805-5.2852-11.805-11.809 0-6.3281-3.3789-12.176-8.8594-15.34-5.4766-3.1602-12.23-3.1602-17.711 0-5.4805 3.1641-8.8555 9.0117-8.8555 15.34-0.003906 12.691 5.1016 24.852 14.168 33.738 9.0625 8.8867 21.32 13.75 34.008 13.496 12.27-0.03125 24.023-4.918 32.695-13.594 8.6758-8.6719 13.562-20.43 13.594-32.695v-37.312c26.129-3.4883 50.105-16.34 67.477-36.164 17.371-19.828 26.961-45.281 26.988-71.645-0.125-24.48-9.9531-47.91-27.332-65.156-17.375-17.242-40.883-26.891-65.363-26.828zm-1.7695-194.83c0-6.3281 3.375-12.176 8.8555-15.34 5.4805-3.1641 12.23-3.1641 17.711 0 5.4805 3.1641 8.8555 9.0117 8.8555 15.34 0.12109 36.004-12.418 70.902-35.422 98.598zm-35.426 202.27c-11.566 4.7812-22.051 11.848-30.816 20.781-18.141 17.973-28.309 42.477-28.223 68.012v4.1328c0 6.3281 3.375 12.176 8.8555 15.34 5.4805 3.1641 12.234 3.1641 17.711 0 5.4805-3.1641 8.8594-9.0117 8.8594-15.34v-4.1328c0.1875-18.801 8.8672-36.508 23.613-48.176v116.9c-22.543-1.9219-43.543-12.23-58.848-28.895-15.305-16.66-23.801-38.457-23.809-61.082v-2.3633 0.003906c-0.035156-16.781 4.625-33.238 13.453-47.512 8.8242-14.27 21.469-25.789 36.496-33.258l32.707-16.293zm72.973 136.38h0.003906c-10.219 10.309-23.305 17.305-37.551 20.07v-128.47c15.387-0.54297 30.344 5.1602 41.461 15.812 11.121 10.652 17.461 25.348 17.578 40.746 0.046874 19.457-7.6914 38.121-21.488 51.84z"/>
 <path d="m588.2 564.58c0 12.656 6.75 24.352 17.711 30.676 10.961 6.3281 24.465 6.3281 35.422 0 10.961-6.3242 17.715-18.02 17.715-30.676v-134.73l106.27-57.977v88.559h-0.003906c-9.5195-3.3633-20.023-2.5078-28.871 2.3555-8.8516 4.8672-15.203 13.277-17.461 23.117-2.2578 9.8438-0.21094 20.184 5.6328 28.418 5.8398 8.2383 14.918 13.59 24.953 14.715 10.039 1.1211 20.074-2.0938 27.594-8.8359 7.5156-6.7422 11.797-16.371 11.77-26.469v-141.7c0-4.168-2.1992-8.0273-5.7852-10.152-3.6523-2.1094-8.1562-2.1094-11.809 0l-129.89 70.848c-3.6797 2.0664-5.9727 5.9375-6.0234 10.156v108.4-0.003906c-10.824-3.8242-22.836-2.168-32.219 4.4492-9.3867 6.6133-14.98 17.367-15.012 28.852z"/>
 <path d="m905.36 605.79c-3.3281-5.6094-10.57-7.4609-16.18-4.1328l-59.039 35.426v-0.003906c-3.5859 2.1289-5.7852 5.9883-5.7852 10.156v108.4c-9.5234-3.3672-20.027-2.5117-28.875 2.3555-8.8477 4.8633-15.203 13.273-17.461 23.117-2.2578 9.8438-0.21094 20.18 5.6328 28.418 5.8398 8.2344 14.922 13.59 24.957 14.711s20.07-2.0898 27.59-8.832c7.5156-6.7422 11.801-16.375 11.77-26.473v-134.96l53.254-32h0.003906c5.6055-3.3281 7.457-10.57 4.1328-16.176z"/>
</svg>
