<?xml version="1.0" encoding="UTF-8"?>
<svg width="1200pt" height="1200pt" version="1.1" viewBox="0 0 1200 1200" xmlns="http://www.w3.org/2000/svg">
 <path d="m1200 600c0 214.36-114.36 412.44-300 519.62-185.64 107.18-414.36 107.18-600 0-185.64-107.18-300-305.26-300-519.62s114.36-412.44 300-519.62c185.64-107.18 414.36-107.18 600 0 185.64 107.18 300 305.26 300 519.62" fill="#b3b3ff"/>
 <path d="m600.12 411.66c32.59 0 59.16-26.215 59.16-58.805s-26.215-59.039-58.805-59.16c-32.59 0-59.16 26.215-59.16 58.805s26.215 59.039 58.805 59.16z"/>
 <path d="m812.66 388.64c32.59 0 59.039-26.215 59.16-58.805 0-32.59-26.215-59.039-58.805-59.16-32.59 0-59.16 26.215-59.16 58.805 0 32.59 26.215 59.039 58.805 59.16z"/>
 <path d="m387.81 387.34c32.59 0 59.16-26.215 59.16-58.805s-26.215-59.039-58.805-59.16c-32.59 0-59.16 26.215-59.16 58.805 0 32.59 26.215 59.039 58.805 59.16z"/>
 <path d="m752.68 461.02c15.113-15.941 36.367-25.859 59.867-25.859 45.578 0 82.656 37.078 82.656 82.539 0 0.82812 0 1.5352-0.11719 2.3633 12.633-3.0703 25.152-6.7305 37.551-11.336l9.4453-3.4258 0.23438-57.031c0-24.68-14.762-45.695-35.07-49.477l-9.6836-1.7695c-59.629-11.219-120.44-10.98-180.07 0.82812-3.3047 0.70703-6.375 1.8906-9.4453 3.4258 23.969 8.6211 41.211 31.762 44.516 59.984z"/>
 <path d="m305.04 517.82c0-45.578 37.078-82.539 82.656-82.539 23.379 0 44.516 9.8008 59.512 25.387 3.1875-27.984 20.191-51.363 43.809-60.34-2.7148-1.3008-5.668-2.3633-8.6211-2.9531l-9.6836-1.7695c-59.629-11.219-120.44-10.98-180.07 0.82813-20.074 3.8984-34.832 24.797-34.832 49.238l-0.23438 57.625c15.586 6.375 31.527 11.453 47.586 15.469v-0.82812z"/>
 <path d="m470.11 469.76v41.684c0 2.125 0.23438 4.1328 0.23438 6.2578 0 2.3633-0.11719 4.8398-0.35547 7.2031v2.4805c15.703 6.375 31.527 11.453 47.703 15.469v-1.5352c0-45.578 37.078-82.539 82.656-82.539 45.578 0 82.656 37.078 82.656 82.539v1.7695c12.633-3.0703 25.152-6.8477 37.43-11.336l9.4453-3.4258 0.23438-57.031c0-24.68-14.762-45.695-35.07-49.477l-9.6836-1.7695c-59.629-11.219-120.44-10.98-180.07 0.82812-20.074 3.8984-34.832 24.797-34.832 49.238z"/>
 <path d="m659.16 541.32c0 32.605-26.434 59.039-59.039 59.039-32.609 0-59.043-26.434-59.043-59.039 0-32.609 26.434-59.039 59.043-59.039 32.605 0 59.039 26.43 59.039 59.039"/>
 <path d="m871.59 517.82c0 32.609-26.434 59.043-59.039 59.043-32.609 0-59.039-26.434-59.039-59.043 0-32.605 26.43-59.039 59.039-59.039 32.605 0 59.039 26.434 59.039 59.039"/>
 <path d="m446.73 517.82c0 32.609-26.434 59.043-59.043 59.043-32.605 0-59.039-26.434-59.039-59.043 0-32.605 26.434-59.039 59.039-59.039 32.609 0 59.043 26.434 59.043 59.039"/>
 <path d="m942.43 635.9c0-24.68-14.996-45.695-35.188-49.359l-9.6836-1.7695c-59.629-11.098-120.44-10.629-180.07 1.3008-3.3047 0.70703-6.375 1.8906-9.3281 3.4258 24.09 8.5 41.445 31.883 44.754 60.102 15.113-15.824 36.25-25.625 59.75-25.625 45.578 0 82.656 37.078 82.656 82.539v1.5352c12.754-3.1875 25.387-6.8477 37.785-11.453l9.4453-3.543v-57.031z"/>
 <path d="m292.52 586.07c-20.074 4.0156-34.715 24.914-34.715 49.359v57.625c15.586 6.2578 31.41 11.336 47.352 15.23v-1.6523c0-45.578 37.078-82.539 82.656-82.539 23.496 0 44.633 9.918 59.629 25.625 3.1875-27.867 20.074-51.246 43.57-60.102-2.7148-1.3008-5.668-2.3633-8.6211-2.9531l-9.6836-1.7695c-59.629-11.098-120.44-10.629-180.07 1.3008z"/>
 <path d="m505.07 609.68c-20.074 4.0156-34.715 24.914-34.715 49.359v57.625c15.586 6.2578 31.41 11.336 47.352 15.23v-1.7695c0-45.578 37.078-82.539 82.656-82.539s82.656 37.078 82.656 82.539v1.5352c12.754-3.1875 25.387-6.9648 37.785-11.57l9.4453-3.543v-57.031c0-24.68-14.996-45.695-35.188-49.359l-9.6836-1.7695c-59.629-11.098-120.44-10.629-180.07 1.3008z"/>
 <path d="m600.32 671.24c32.543 0.082031 58.855 26.531 58.77 59.074-0.085938 32.543-26.535 58.852-59.078 58.77-32.539-0.085937-58.852-26.535-58.766-59.078 0.085937-32.543 26.535-58.852 59.074-58.766"/>
 <path d="m871.59 706.51c0 32.605-26.434 59.039-59.039 59.039-32.609 0-59.039-26.434-59.039-59.039 0-32.609 26.43-59.043 59.039-59.043 32.605 0 59.039 26.434 59.039 59.043"/>
 <path d="m446.73 706.51c0 32.605-26.434 59.039-59.043 59.039-32.605 0-59.039-26.434-59.039-59.039 0-32.609 26.434-59.043 59.039-59.043 32.609 0 59.043 26.434 59.043 59.043"/>
 <path d="m932.99 885.16 9.4453-3.543v-57.031c0-24.68-14.996-45.695-35.188-49.359l-9.6836-1.7695c-59.629-11.098-120.44-10.629-180.07 1.3008-3.3047 0.70703-6.375 1.8906-9.3281 3.4258 26.805 9.5664 45.461 37.312 45.461 70.023v53.609c59.75 10.391 121.03 4.9609 179.36-16.648z"/>
 <path d="m446.73 901.82v-54.199c0-32 18.184-59.629 44.281-69.551-2.7148-1.3008-5.668-2.3633-8.6211-2.9531l-9.6836-1.7695c-59.629-11.098-120.44-10.629-180.07 1.3008-20.074 4.0156-34.715 24.914-34.715 49.359v57.625c61.047 24.441 125.75 31.172 188.81 20.074z"/>
 <path d="m720.56 908.78 9.4453-3.543v-57.031c0-24.68-14.996-45.695-35.188-49.359l-9.6836-1.7695c-59.629-11.098-120.44-10.629-180.07 1.3008-20.074 4.0156-34.715 24.914-34.715 49.359v57.625c81.121 32.473 168.5 33.77 250.21 3.543z"/>
</svg>
