<?xml version="1.0" encoding="UTF-8"?>
<svg width="1200pt" height="1200pt" version="1.1" viewBox="0 0 1200 1200" xmlns="http://www.w3.org/2000/svg">
 <path d="m1200 600c0 214.36-114.36 412.44-300 519.62-185.64 107.18-414.36 107.18-600 0-185.64-107.18-300-305.26-300-519.62s114.36-412.44 300-519.62c185.64-107.18 414.36-107.18 600 0 185.64 107.18 300 305.26 300 519.62" fill="#b3b3ff"/>
 <path d="m600 537c-34.598 0-62.965 28.367-62.965 62.965s28.367 62.965 62.965 62.965 62.965-28.367 62.965-62.965-28.367-62.965-62.965-62.965zm0 31.5c17.562 0 31.5 13.902 31.5 31.5 0 17.562-13.902 31.5-31.5 31.5-17.562 0-31.5-13.902-31.5-31.5 0-17.562 13.902-31.5 31.5-31.5z"/>
 <path d="m600 285.11c-22.438 0-43.098 10.953-60.191 28.133-17.094 17.18-31.438 40.738-43.395 69.137-3.1016 7.3203-5.9922 15.027-8.7383 22.969-19.07-3.6602-37.371-5.7852-54.555-6.1406-48.738-1.0625-87.852 12.223-105.83 43.363-11.219 19.426-12.043 42.805-5.7266 66.215 6.3164 23.379 19.543 47.559 38.168 72.117 4.8398 6.375 10.066 12.781 15.617 19.188-9.918 11.453-18.746 22.996-26.363 34.508-5.1641-2.0078-10.773-3.1016-16.648-3.1016-25.891 0-47.23 21.344-47.23 47.23 0 20.988 13.992 38.938 33.062 45.02 0.5 12.016 3.3672 23.41 9.0039 33.504 0.058594 0.058594 0.089844 0.11719 0.14844 0.17578 11.219 19.426 31.055 31.824 54.465 38.051 23.41 6.2305 50.98 6.8477 81.562 3.0117 7.9102-1.0039 16.059-2.3008 24.355-3.8984 2.7461 7.9688 5.668 15.676 8.7695 23.027 11.957 28.398 26.301 51.957 43.395 69.137 17.031 17.152 37.699 28.133 60.133 28.133s43.098-10.953 60.191-28.133c17.094-17.18 31.438-40.738 43.395-69.137 3.1016-7.3516 5.9922-15.055 8.7695-23.027 8.2969 1.5938 16.473 2.9219 24.383 3.8984 30.555 3.8359 58.094 3.2188 81.504-3.0117 23.41-6.2305 43.246-18.598 54.465-38.051h-0.03125c0.058594-0.03125 0.089844-0.089843 0.11719-0.14844 0.03125-0.058594 0.03125-0.11719 0.058593-0.14844 23.5-2.6289 42.035-22.789 42.035-46.938 0-25.891-21.344-47.23-47.23-47.23h-0.089844c-9.9766-20.871-24.5-42.156-42.688-63.172 5.4922-6.3164 10.598-12.637 15.379-18.953 18.598-24.531 31.824-48.707 38.168-72.117 6.3164-23.379 5.4922-46.762-5.7266-66.215-17.977-31.145-57.094-44.426-105.83-43.363-17.18 0.38281-35.453 2.4492-54.492 6.1094-6.6133-19.039-14.258-36.488-22.938-51.926 3.1875-6.2891 5.0195-13.43 5.0195-20.988 0-25.891-21.344-47.23-47.23-47.23-7.5586 0-14.699 1.832-21.078 5.0469-8.4414-3.2773-17.27-5.0469-26.156-5.0469zm0 31.5c0.88672 0 1.7695 0.11719 2.6875 0.17578-1.7422 4.8984-2.6875 10.125-2.6875 15.559 0 25.891 21.344 47.23 47.23 47.23 6.5234 0 12.723-1.3867 18.391-3.8086 5.668 11.039 10.895 23.352 15.617 36.781-26.332 7.0547-53.668 16.828-81.238 28.871-27.629-12.074-55.055-21.844-81.414-28.898 2.2148-6.2305 4.4883-12.223 6.8789-17.918 10.832-25.742 23.645-45.992 36.695-59.098 13.047-13.105 25.504-18.895 37.844-18.895zm47.23 0c8.8867 0 15.734 6.8477 15.734 15.734s-6.8477 15.734-15.734 15.734-15.734-6.8477-15.734-15.734 6.8477-15.734 15.734-15.734zm-214.76 114.1c14.141 0.29688 29.609 2.0977 45.934 5.1367-6.9648 26.035-12.223 54.613-15.617 84.867-24.355 17.949-46.523 36.84-65.828 56.176-4.3086-5.0469-8.3828-10.035-12.133-14.996-16.887-22.258-28.016-43.453-32.855-61.312s-3.543-31.559 2.6289-42.242c9.7422-16.887 35.188-28.547 77.906-27.602zm335.05 0v-0.03125h0.03125c42.688-0.94531 68.102 10.715 77.848 27.602 6.168 10.688 7.4375 24.383 2.6289 42.215-4.8398 17.859-16 39.086-32.887 61.344-3.7188 4.8984-7.7344 9.832-11.957 14.789-19.305-19.277-41.445-38.141-65.859-56.059-3.3359-29.961-8.6211-58.48-15.645-84.785 16.293-3.0391 31.734-4.8398 45.844-5.1367zm-258.27 12.133c16.797 4.4883 34.273 10.184 52.043 16.945-10.746 5.5195-21.492 11.336-32.148 17.504-10.656 6.1406-21.078 12.516-31.203 19.07 3.0391-18.922 6.8203-36.84 11.305-53.52zm181.37 0.03125c4.5156 16.797 8.4141 34.688 11.426 53.52-10.156-6.5234-20.547-12.93-31.203-19.098-10.656-6.1406-21.371-11.984-32.09-17.504 17.711-6.7617 35.129-12.426 51.867-16.914zm-90.625 33.211c18.391 8.4727 36.871 17.949 55.113 28.488 18.273 10.539 35.719 21.816 52.191 33.504 1.8906 20.133 2.9219 40.887 2.9219 61.934 0 21.285-1.0352 42.008-2.8633 61.961-16.383 11.57-33.801 22.848-52.25 33.477-18.449 10.656-36.898 20.102-55.113 28.516-18.215-8.4141-36.664-17.891-55.113-28.547s-35.867-21.875-52.25-33.445c-1.8008-19.957-2.832-40.68-2.832-61.961 0-21.254 1.0039-41.918 2.832-61.875 16.531-11.719 34.008-23.027 52.281-33.562 18.215-10.539 36.695-20.016 55.113-28.488zm-140.72 87.352c-0.58984 12.043-0.97266 24.176-0.97266 36.574 0 12.426 0.38281 24.59 0.97266 36.633-14.848-12.074-28.457-24.324-40.648-36.516 12.281-12.309 25.891-24.621 40.648-36.664zm281.47 0.17578c14.73 12.043 28.309 24.324 40.531 36.605-12.164 12.191-25.77 24.355-40.59 36.398 0.62109-12.016 1.0039-24.176 1.0039-36.605 0-12.25-0.32422-24.383-0.91406-36.367zm-343.7 59.688c19.039 19.039 41.211 37.816 65.711 55.883 3.3945 30.348 8.6211 58.98 15.617 85.078-6.4961 1.2109-12.871 2.2422-19.039 3.0117-27.719 3.4844-51.66 2.5391-69.52-2.2148-17.801-4.7227-29.02-12.637-35.219-23.293-3.0117-5.4023-4.6953-11.75-5.0195-19.188 17.504-6.9375 29.992-24.031 29.992-43.836 0-8.5625-2.332-16.621-6.4062-23.586 6.6992-10.391 14.699-21.047 23.883-31.824zm405.73 0.089844c14.938 17.418 26.805 34.48 34.922 50.391-10.508 8.7383-17.27 21.844-17.27 36.426 0 15.734 7.9102 29.785 19.895 38.375-6.6133 7.2305-16.414 12.84-30.168 16.473-17.859 4.7539-41.801 5.6992-69.52 2.2148-6.168-0.76562-12.547-1.8008-19.039-3.0117 6.9961-26.094 12.223-54.73 15.617-85.078 24.441-18.035 46.555-36.781 65.594-55.793zm-470.43 39.586c8.8867 0 15.734 6.8477 15.734 15.734s-6.8477 15.734-15.734 15.734-15.734-6.8477-15.734-15.734 6.8477-15.734 15.734-15.734zm535.29 31.5c8.8867 0 15.734 6.8477 15.734 15.734s-6.8477 15.734-15.734 15.734c-8.8867 0-15.734-6.8477-15.734-15.734s6.8477-15.734 15.734-15.734zm-165.58 9.0312c-3.0391 18.98-6.8203 36.957-11.305 53.668-16.707-4.457-34.184-10.156-52.133-17.004 10.715-5.4922 21.461-11.219 32.234-17.445 10.746-6.1992 21.078-12.664 31.203-19.219zm-204.13 0.03125c10.125 6.5234 20.457 12.961 31.203 19.16 10.773 6.2305 21.52 11.957 32.266 17.477-17.949 6.8477-35.426 12.574-52.16 17.031-4.5156-16.707-8.2656-34.688-11.305-53.668zm102.08 54.906c27.957 12.223 55.379 22.023 81.441 28.988-2.2148 6.2305-4.5156 12.25-6.9062 17.977-10.832 25.742-23.645 45.992-36.695 59.098-13.047 13.105-25.504 18.895-37.844 18.895s-24.797-5.7852-37.844-18.895c-13.047-13.105-25.832-33.359-36.695-59.098-2.4219-5.7266-4.6953-11.75-6.9062-17.977 26.094-6.9961 53.488-16.797 81.441-28.988z"/>
</svg>
