<?xml version="1.0" encoding="UTF-8"?>
<svg width="1200pt" height="1200pt" version="1.1" viewBox="0 0 1200 1200" xmlns="http://www.w3.org/2000/svg">
 <path d="m1200 600c0 214.36-114.36 412.44-300 519.62-185.64 107.18-414.36 107.18-600 0-185.64-107.18-300-305.26-300-519.62s114.36-412.44 300-519.62c185.64-107.18 414.36-107.18 600 0 185.64 107.18 300 305.26 300 519.62" fill="#b3b3ff"/>
 <path d="m872.18 337.04h-544.35v241.59h544.32v-241.59zm30.109-26.953v295.47h-604.54v-295.47zm-322.86 187.98c1.8906-3.7188 6.4648-5.1953 10.156-3.2773 3.7188 1.918 5.1953 6.4648 3.2773 10.156-3.957 7.7344-10.598 14.258-18.953 18.715-7.8828 4.25-17.301 6.6992-27.363 6.6992-10.066 0-19.484-2.4805-27.363-6.6992-8.3242-4.4883-14.969-10.98-18.953-18.715-1.8906-3.7188-0.41406-8.2656 3.2773-10.156 3.7188-1.8906 8.2656-0.41406 10.156 3.2773 2.5391 4.9297 6.9648 9.2109 12.664 12.25 5.7266 3.0703 12.664 4.8711 20.191 4.8711s14.465-1.8008 20.191-4.8711c5.6992-3.0391 10.125-7.3203 12.664-12.25zm222.35 317.43h-57.062c-5.9336 0-11.363 2.4219-15.262 6.375-3.9258 3.9258-6.375 9.3281-6.375 15.262v52.812h100.3v-52.812c0-5.9336-2.4219-11.363-6.375-15.262-3.9258-3.9258-9.3281-6.375-15.262-6.375zm-115.51 0h-57.062c-5.9336 0-11.363 2.4219-15.262 6.375-3.9258 3.9258-6.375 9.3281-6.375 15.262v52.812h100.3v-52.812c0-5.9336-2.4219-11.363-6.375-15.262-3.9258-3.9258-9.3281-6.375-15.262-6.375zm-115.51 0h-57.062c-5.9336 0-11.363 2.4219-15.262 6.375-3.9258 3.9258-6.375 9.3281-6.375 15.262v52.812h100.3v-52.812c0-5.9336-2.4219-11.363-6.375-15.262-3.9258-3.9258-9.3281-6.375-15.262-6.375zm-115.51 0h-57.062c-5.9336 0-11.363 2.4219-15.262 6.375-3.9258 3.9258-6.375 9.3281-6.375 15.262v52.812h100.3v-52.812c0-5.9336-2.4219-11.363-6.375-15.262-3.9258-3.9258-9.3281-6.375-15.262-6.375zm310.37-67.984c0-5.875-2.5664-11.219-6.6992-15.145-4.25-4.0156-10.156-6.4961-16.648-6.4961h-53.637c-6.5234 0-12.398 2.4805-16.648 6.4961-4.1328 3.8984-6.6992 9.2383-6.6992 15.145v52.812h20.93c10.125 0 19.336 4.1328 26.008 10.805 1.1523 1.1523 2.2422 2.3906 3.2188 3.6602 1.0039-1.3008 2.0664-2.5391 3.2188-3.6602 6.6719-6.6719 15.883-10.805 26.008-10.805h20.93v-52.812zm-115.51 0c0-5.875-2.5664-11.219-6.6992-15.145-4.25-4.0156-10.156-6.4961-16.648-6.4961h-53.637c-6.5234 0-12.398 2.4805-16.648 6.4961-4.1328 3.8984-6.6992 9.2383-6.6992 15.145v52.812h20.93c10.125 0 19.336 4.1328 26.008 10.805 1.1523 1.1523 2.2422 2.3906 3.2188 3.6602 1.0039-1.3008 2.0664-2.5391 3.2188-3.6602 6.6719-6.6719 15.883-10.805 26.008-10.805h20.93v-52.812zm-115.51 0c0-5.875-2.5664-11.219-6.6992-15.145-4.25-4.0156-10.156-6.4961-16.648-6.4961h-53.637c-6.5234 0-12.398 2.4805-16.648 6.4961-4.1328 3.8984-6.6992 9.2383-6.6992 15.145v52.812h20.93c10.125 0 19.336 4.1328 26.008 10.805 1.1523 1.1523 2.2422 2.3906 3.2188 3.6602 1.0039-1.3008 2.0664-2.5391 3.2188-3.6602 6.6719-6.6719 15.883-10.805 26.008-10.805h20.93v-52.812zm129.57-329.09c0.85547-3.2461 3.8086-5.6367 7.3516-5.6367 4.1914 0 7.5859 3.3945 7.5859 7.5859 0 0.88672-0.14844 1.7109-0.41406 2.5078-0.85547 2.9219-0.5 5.9336 0.79688 8.4727 1.3008 2.4805 3.543 4.5156 6.4336 5.4922 0.14844 0.058594 0.29688 0.089844 0.44141 0.14844 2.9219 0.85547 5.9336 0.5 8.4727-0.79688 2.5664-1.3281 4.6055-3.6602 5.5781-6.6406 1.2695-3.9844 5.5195-6.1992 9.5039-4.9609 3.9844 1.2695 6.1992 5.5195 4.9609 9.5039-2.2148 6.9648-7.0547 12.398-13.105 15.527-6.0234 3.1289-13.227 3.957-20.191 1.7422-6.9688-2.2148-12.398-7.0547-15.527-13.105-3.0703-5.9336-3.9258-12.988-1.8594-19.867zm-173.66-24.648c6.9961 4.0742 14.523 7.4375 22.496 9.918 10.566 3.3047 21.816 5.0781 33.504 5.0781 11.691 0 22.938-1.7695 33.504-5.0781 7.9688-2.4805 15.5-5.8164 22.496-9.918 2.8633 6.8477 5.2266 14.258 6.9648 22.051 2.332 10.449 3.6016 21.699 3.6016 33.504 0 29.047-7.793 55.23-20.426 74.066-0.70703 1.0352-1.3867 2.0352-2.125 3.0391-0.14844 0.20703-0.29688 0.41406-0.44141 0.58984-11.719 15.793-27.039 25.418-43.602 25.418-17.801 0-34.125-11.102-46.168-29.047-12.605-18.832-20.426-44.988-20.426-74.066 0-11.809 1.2695-23.055 3.6016-33.477 1.7422-7.8242 4.1016-15.203 6.9648-22.082zm107.1 148.07c-13.965 16.148-31.676 25.77-51.098 25.77-23.172 0-43.895-13.668-58.715-35.809-14.23-21.227-23.027-50.422-23.027-82.48 0-12.754 1.418-25.121 4.0156-36.781v-0.03125c2.6875-11.957 6.6406-23.086 11.602-32.973 0.17578-0.41406 0.41406-0.82812 0.70703-1.2109 2.3906-3.4258 7.1445-4.25 10.539-1.832 7.7344 5.4609 16.473 9.7695 25.891 12.723 9.0625 2.832 18.832 4.3672 28.988 4.3672 10.184 0 19.926-1.5352 28.988-4.3672 2.0664-0.64844 4.1328-1.3594 6.1406-2.1562 3.3047-6.582 6.9961-12.781 10.98-18.539 4.5469-6.6133 9.5039-12.637 14.73-18.008 0.29688-0.32422 0.64844-0.64844 1.0039-0.91406 3.3359-2.5391 8.0586-1.8906 10.598 1.418 5.7578 7.5586 12.754 14.316 20.84 19.957 7.7617 5.4336 16.59 9.832 26.332 12.898 9.7109 3.0703 19.484 4.5742 28.957 4.6055 9.8008 0.058594 19.426-1.4453 28.516-4.3398 3.9844-1.2695 8.2656 0.97266 9.5039 4.9609 0.17578 0.53125 0.26562 1.0625 0.32422 1.5938 1.7422 10.953 2.1562 22.641 1.0938 34.715-1.0352 11.809-3.4258 24.031-7.293 36.281-9.6836 30.613-26.895 55.762-46.848 71.703-20.812 16.59-44.695 23.379-66.773 16.383-4.1016-1.3008-8.0312-3.0703-11.75-5.2266-1.4453-0.85547-2.8633-1.7422-4.2227-2.7148zm15.027-162.27c-0.17578-0.41406-0.41406-0.82812-0.70703-1.2109-1.3281-1.8906-3.3672-2.9805-5.4922-3.1875 2.0078-2.8047 4.1016-5.4922 6.2578-8.0312 5.4336 5.9922 11.602 11.453 18.449 16.234 9.0938 6.3477 19.305 11.453 30.406 14.969 11.098 3.5117 22.375 5.2266 33.477 5.2539 8.3555 0.03125 16.562-0.85547 24.414-2.6289 0.64844 7.3789 0.64844 15.145-0.03125 23.145-0.91406 10.746-3.1016 21.844-6.6406 33.031-8.7695 27.691-24.117 50.273-41.832 64.414-16.887 13.492-35.809 19.129-52.781 13.758-3.1016-0.97266-6.0234-2.2734-8.7383-3.8672-0.94531-0.5625-1.8906-1.1523-2.8047-1.7695 7.8516-12.309 13.902-27.098 17.594-43.484 0.5625 0.058593 1.1211 0.11719 1.6836 0.20703 2.4219 0.32422 4.9297 0.88672 7.5273 1.7109 7.1719 2.2734 13.254 6.082 17.77 10.746 4.4883 4.6055 7.4102 10.008 8.3555 15.527 0.67969 4.1328 4.5742 6.9062 8.707 6.2305 4.1328-0.67969 6.9062-4.5742 6.2305-8.707-1.4453-8.5625-5.8164-16.77-12.426-23.586-6.2305-6.4062-14.465-11.602-24.059-14.641-3.2773-1.0352-6.6719-1.7695-10.066-2.2734-0.35547-0.058593-0.70703-0.089843-1.0625-0.14844 0.91406-7.1133 1.3867-14.438 1.3867-21.902 0-6.1992-0.32422-12.34-0.97266-18.332 3.0703-0.53125 6.0234-1.625 8.6797-3.1602 5.5195-3.1875 9.9492-8.3828 12.016-14.938 1.2695-3.9844-0.97266-8.2656-4.9609-9.5039-3.9844-1.2695-8.2656 0.97266-9.5039 4.9609-0.88672 2.8047-2.7734 5.0469-5.1367 6.4062-1.0625 0.62109-2.1836 1.0625-3.3945 1.3008-0.23438-1.1523-0.47266-2.332-0.73828-3.4844-2.6875-11.984-6.6406-23.113-11.602-33.004zm-42.391 66.125c0 4.1914-3.3945 7.5859-7.5859 7.5859s-7.5859-3.3945-7.5859-7.5859c0-7.3203 2.9805-13.965 7.7617-18.746 4.8125-4.8125 11.426-7.7617 18.746-7.7617s13.965 2.9805 18.746 7.7617c4.8125 4.8125 7.7617 11.426 7.7617 18.746 0 4.1914-3.3945 7.5859-7.5859 7.5859s-7.5859-3.3945-7.5859-7.5859c0-3.1289-1.2695-5.9648-3.3359-8.0312-2.0664-2.0664-4.8984-3.3359-8.0312-3.3359-3.1289 0-5.9648 1.2695-8.0312 3.3359-2.0664 2.0664-3.3359 4.8984-3.3359 8.0312zm-70.141 0c0 4.1914-3.3945 7.5859-7.5859 7.5859s-7.5859-3.3945-7.5859-7.5859c0-7.3203 2.9805-13.965 7.7617-18.746 4.8125-4.8125 11.426-7.7617 18.746-7.7617s13.965 2.9805 18.746 7.7617c4.8125 4.8125 7.7617 11.426 7.7617 18.746 0 4.1914-3.3945 7.5859-7.5859 7.5859s-7.5859-3.3945-7.5859-7.5859c0-3.1289-1.2695-5.9648-3.3359-8.0312-2.0664-2.0664-4.8984-3.3359-8.0312-3.3359-3.1289 0-5.9648 1.2695-8.0312 3.3359-2.0664 2.0664-3.3359 4.8984-3.3359 8.0312zm-179.84-123.87h559.49c4.1914 0 7.5859 3.3945 7.5859 7.5859v256.77c0 4.1914-3.3945 7.5859-7.5859 7.5859l-559.49 0.03125c-4.1914 0-7.5859-3.3945-7.5859-7.5859v-256.79c0-4.1914 3.3945-7.5859 7.5859-7.5859z" fill-rule="evenodd"/>
</svg>
