<?xml version="1.0" encoding="UTF-8"?>
<svg width="1200pt" height="1200pt" version="1.1" viewBox="0 0 1200 1200" xmlns="http://www.w3.org/2000/svg">
 <path d="m1200 600c0 214.36-114.36 412.44-300 519.62-185.64 107.18-414.36 107.18-600 0-185.64-107.18-300-305.26-300-519.62s114.36-412.44 300-519.62c185.64-107.18 414.36-107.18 600 0 185.64 107.18 300 305.26 300 519.62" fill="#b3b3ff"/>
 <path d="m723.94 463.22c-4.5352-2.2656-12.09-3.7773-21.16-3.7773h-50.633v58.945h49.879c9.8242 0 17.383-1.5117 21.914-3.7773 9.0703-4.5352 12.848-12.848 12.848-24.938 0-12.852-4.5352-21.922-12.848-26.453z"/>
 <path d="m856.95 259.93h-513.89c-46.098 0-83.129 34.762-83.129 77.84v390.7c0 43.074 37.031 77.84 83.129 77.84h54.41v115.62c0 6.8008 4.5352 13.602 11.336 16.625 3.0234 1.5117 5.2891 1.5117 8.3125 1.5117 4.5352 0 9.0703-1.5117 12.848-3.7773l171.55-129.98h255.43c46.098 0 83.129-34.762 83.129-77.84v-390.7c0-43.078-37.031-77.84-83.129-77.84zm-281.12 200.27h-111.85v50.633h98.242v38.543l-98.242-0.003906v92.195l-45.344 0.003906v-220.67h157.19zm210.84 181.37h-50.633c-1.5117-4.5352-2.2656-9.0703-3.0234-12.09-1.5117-6.0469-1.5117-12.848-2.2656-18.895v-20.402c0-14.359-2.2656-23.426-7.5586-27.961-4.5352-4.5352-13.602-6.8008-26.449-6.8008h-45.344v86.152h-45.344v-220.67h105.8c15.113 0 26.449 2.2656 34.762 6.0469 8.3125 3.7773 15.113 8.3125 20.402 15.113 4.5352 5.2891 8.3125 12.09 11.336 18.895 3.0234 6.8008 3.7773 14.359 3.7773 23.426 0 10.578-3.0234 21.16-7.5586 30.984-5.2891 9.8242-14.359 17.383-26.449 21.16 9.8242 3.7773 17.383 9.8242 21.914 17.383 4.5352 7.5586 6.0469 18.895 6.0469 34.762v15.113c0 9.8242 0.75391 16.625 1.5117 20.402 1.5117 6.0469 3.7773 9.8242 8.3125 12.848l0.003906 4.5352z"/>
</svg>
