<?xml version="1.0" encoding="UTF-8"?>
<svg width="1200pt" height="1200pt" version="1.1" viewBox="0 0 1200 1200" xmlns="http://www.w3.org/2000/svg">
 <defs>
  <clipPath id="a">
   <path d="m222.14 285h755.71v630h-755.71z"/>
  </clipPath>
 </defs>
 <path d="m1200 600c0 214.36-114.36 412.44-300 519.62-185.64 107.18-414.36 107.18-600 0-185.64-107.18-300-305.26-300-519.62s114.36-412.44 300-519.62c185.64-107.18 414.36-107.18 600 0 185.64 107.18 300 305.26 300 519.62" fill="#b3b3ff"/>
 <g clip-path="url(#a)">
  <path d="m931.73 552.47c-23.023-31.488-46.012-44.027-46.977-44.547-0.87109-0.46484-1.8438-0.71094-2.832-0.71094h-83.012c15.195-35.496 22.613-60.523 22.613-76.32 0-56.562-46.008-102.58-102.56-102.58-56.559 0-102.58 46.016-102.58 102.58 0 15.797 7.4141 40.828 22.613 76.32h-173.23c28.156-57.84 42.434-98.016 42.434-119.46 0.003906-56.559-46.012-102.57-102.57-102.57-56.559 0-102.57 46.016-102.57 102.58 0 21.465 14.281 61.641 42.449 119.46l-27.426-0.003906c-0.98828 0-1.9609 0.24609-2.832 0.71094-0.83203 0.44531-20.559 11.199-41.746 37.715-0.007812 0.007813-0.011719 0.011719-0.019531 0.019531-8.1445 10.172-15.461 21.418-21.758 33.43-0.027344 0.046875-0.050781 0.089844-0.078125 0.13672-0.015625 0.03125-0.039062 0.054688-0.058593 0.085938-19.535 37.312-29.441 81.625-29.441 131.71 0 78.906 25.082 129.77 46.125 158.55 23.023 31.488 46.012 44.023 46.977 44.543 0.87109 0.46875 1.8438 0.71094 2.832 0.71094h563.85c0.98828 0 1.9609-0.24609 2.832-0.71094 0.96875-0.51953 23.953-13.055 46.977-44.543 21.043-28.773 46.125-79.641 46.125-158.55s-25.082-129.77-46.125-158.55zm-649.96 2.0625c9.0625-2.875 46.777-13.781 72.727-5.3008 7.2344 2.3594 13.598 6.582 18.934 12.527 15.109 28.254 26.891 48.59 27.012 48.793 1.0742 1.8516 3.0508 2.9883 5.1914 2.9883 2.1367 0 4.1172-1.1406 5.1875-2.9883 0.082031-0.14063 7.9492-13.738 19.016-34.004 6.5312-2.0742 10.961-1.6797 13.125 1.2461 1.582 2.1367 1.9531 4.8672 1.1367 8.3477-3.4453 14.68-27.047 36.758-45.051 45.961-6.2305 3.1836-14.086 5.9453-23.34 8.2109-7.2891 1.7773-13.137 7.0547-15.645 14.117-2.4922 7.0195-1.2891 14.75 3.2109 20.676 8.3789 11.062 4.0039 16.246 2.3555 18.199-1.0352 1.2266-4.1875 4.9648-13.504 2.7188-18.285-4.418-43.422-28.055-47.188-44.375-2.3281-10.09 0.11719-18.316 2.7031-27.027 3.1875-10.73 6.4844-21.832-0.48438-34.727-8.332-15.395-26.391-16.879-38.852-15.801 4.1406-6.8828 8.6445-13.426 13.465-19.562zm168.32 296.77c2.3867 14.336 2.5508 20.656-2.5977 22.711-1.4805 0.58594-3.8633 1.1289-7.4844-0.96875-10.512-6.0859-21.164-28.207-23.316-43.184-1.3047-9.0312 0.43359-16.336 2.1133-23.395 1.6641-7 3.3906-14.238 1.8086-22.293-2.2539-11.48-11.32-20.535-18.609-27.812-3.0586-3.0547-5.9453-5.9375-7.7148-8.3906-4.6289-6.3984-5.2148-24.008 3.4961-34.293 8.1484-9.5898 30.824-10.098 41.84-0.94141 3.7891 3.1445 7.3711 7.8242 10.652 13.914 5.9844 11.109 17.453 18.52 29.934 19.332 10.559 0.68359 13.609 6.2148 14.984 10.312 5.4375 16.266-12.758 33.695-27.379 47.699-6.918 6.625-12.891 12.344-16.215 17.652-5.0977 8.1172-3.2734 19.066-1.5117 29.656zm460.6-124.45c-1.207 2.0898-3.6523 2.7109-5.0039 2.8945-2.8633 0.39062-6.1875-0.36328-9.1289-2.0586-5.543-3.2031-8.4453-8.9961-6.3398-12.652 1.207-2.0898 3.6602-2.7109 5.0156-2.8984 0.5-0.066406 1.0117-0.10156 1.5352-0.10156 2.4766 0 5.1641 0.75391 7.5859 2.1484 0 0 0.003906 0 0.003906 0.003906 2.9336 1.6914 5.2422 4.1953 6.3359 6.8711 0.51953 1.2656 1.2031 3.6992-0.003906 5.793zm-28.188-93.703v0.003906c-2.125 4.6211-5.332 8.5391-8.793 10.738-2.6641 1.6914-5.2031 2.1953-6.9727 1.3828-3.9805-1.832-5.293-10.715-1.0898-19.855 3.6133-7.8516 9.7148-12.492 13.887-12.492 0.6875 0 1.3242 0.125 1.8906 0.38672 1.2227 0.55859 2.1758 1.7422 2.832 3.5156 1.582 4.2695 0.91016 10.527-1.7539 16.32zm-21.125 184.7c-4.4297 0.32422-6.7852-2.168-10.902-6.9336-3.6289-4.2031-8.1484-9.4258-15.562-10.871-1.1992-0.23438-2.3867-0.33984-3.5586-0.33984-5.332 0-10.344 2.1758-14.859 4.1328-7.6055 3.2969-12.145 4.9805-17.039 1.1602l-0.003906-0.003906c-2.3555-1.8398-3.6523-4.5391-3.9609-8.2578-0.82422-9.9766 5.8281-23.711 12.738-31.219 9.2578-10.066 27.176-18.082 46.336-13.309 17.547 4.3555 29.336 16.727 29.336 30.781 0.003906 14.328-12.84 34.203-22.523 34.859zm-80.641-270.91c62.703 3.4453 90.855 14.254 90.855 23.605 0 3.3398-1.0352 4.2539-1.375 4.5547-3.3672 2.9727-14.406 1.5898-23.281 0.48047-14.254-1.7852-30.406-3.8047-38.812 6.3086-10.152 12.227-3.2539 27.555 2.293 39.867 3.2812 7.2891 6.9961 15.547 5.0898 19.305-2.5938 5.0977-7.0195 8.6094-11.707 12.32-6.7891 5.3789-14.48 11.477-17.66 23.191-2.7656 10.172 1.207 20.898 4.7148 30.359 2.7695 7.4727 5.6328 15.203 2.9844 17.934-0.57031 0.58984-2.3125 2.3906-6.5977 1.7695-7.8516-1.1367-18.066-9.3906-22.777-18.395-2.9883-5.7227-2.0703-13.27-1.1797-20.566 1.1445-9.3906 2.4414-20.039-6.2617-26.102-9.0508-6.2891-18.18-0.61328-25.512 3.9492-5.6211 3.4922-11.441 7.1016-17.391 6.7188-5.1367-0.33203-7.668-3.0859-11.699-7.9258-4.457-5.3477-10.566-12.672-22.832-11.047-17.789 2.3438-32.012 18-37.113 40.852-2.5352 11.379 1.2227 20.469 4.8594 29.262 2.8633 6.918 5.5664 13.457 5.5664 21.438 0 10.191-11.152 33.656-28.629 47.223-9.9297 7.707-19.609 10.43-28.77 8.0859-12.938-3.3125-11.598-22.883-8.293-50.172 2.5664-21.191 4.9883-41.211-5.7656-50.129-9.2891-7.7109-19.18-5.5898-27.898-3.7227-5.9648 1.2773-11.602 2.4844-16.906 0.69531-12.473-4.2266-23.949-27.414-20.816-42.051 1.5938-7.4492 10.055-12.832 19.852-19.062 8.3008-5.2812 17.711-11.266 24.434-19.844 7.0312-8.9648 7.7148-20.73 8.3828-32.109 0.83203-14.234 1.5508-26.523 13.387-32.551 14.066-7.1602 24.273-2.9336 37.199 2.4141 7.6016 3.1445 15.461 6.3984 24.652 7.3672 5.6328 0.60156 11.887 0.27734 19.824-1.0273 24.527 49.387 49.961 93.316 50.223 93.766 1.0742 1.8516 3.0508 2.9883 5.1875 2.9883 2.1367 0 4.1172-1.1406 5.1875-2.9883 0.30859-0.54297 30.266-52.297 56.586-106.76zm-303.06 5.6094c-13.82-1.8906-19.164-15.164-21.18-26.695 1.1094-2.1953 2.2227-4.418 3.3398-6.6484h79.027c-12.914 13.633-38.336 36.477-61.188 33.344zm241.29-212.24c49.938 0 90.566 40.633 90.566 90.582 0 10.383-4.3789 32.676-25.246 79.895-0.011718 0.027343-0.027344 0.058593-0.039062 0.085937 0 0 0 0.003906-0.003906 0.007813-3.9141 8.8516-8.1484 18.023-12.582 27.27-20.055 41.855-42.711 82.754-52.695 100.42-8.9961-15.922-28.281-50.703-46.652-87.996-6.9453-14.066-13.215-27.422-18.641-39.699v-0.003906c-0.011719-0.027344-0.027344-0.058594-0.039063-0.085937-20.867-47.219-25.246-69.512-25.246-79.895 0-49.949 40.633-90.582 90.578-90.582zm-313.34-43.141c49.945 0 90.582 40.633 90.582 90.582 0 20.348-15.711 62.809-45.434 122.78-0.039063 0.078126-0.078125 0.14844-0.11328 0.22656-0.019531 0.046875-0.046874 0.089844-0.066406 0.13672-1.8984 3.8086-3.7969 7.5781-5.6758 11.297-7.6523 15.105-15.891 30.766-24.492 46.551-6.0625 11.137-11.234 20.387-14.797 26.688-4.9062-8.6836-12.875-22.965-22.043-40.125-8.3047-15.559-16.074-30.621-23.086-44.762-29.738-59.969-45.453-102.43-45.453-122.79 0-49.945 40.633-90.582 90.578-90.582z"/>
 </g>
 <path d="m718.96 490.33c32.766 0 59.422-26.664 59.422-59.438 0-32.773-26.656-59.438-59.422-59.438-32.773 0-59.438 26.664-59.438 59.438 0 32.773 26.664 59.438 59.438 59.438zm0-106.88c26.152 0 47.426 21.281 47.426 47.441 0 26.16-21.277 47.441-47.426 47.441-26.16 0-47.441-21.281-47.441-47.441 0-26.16 21.285-47.441 47.441-47.441z"/>
 <path d="m405.63 447.2c32.773 0 59.438-26.664 59.438-59.438 0-32.773-26.664-59.438-59.438-59.438-32.773 0-59.438 26.664-59.438 59.438 0 32.773 26.664 59.438 59.438 59.438zm0-106.88c26.16 0 47.441 21.281 47.441 47.441 0 26.16-21.281 47.441-47.441 47.441s-47.441-21.281-47.441-47.441c0-26.16 21.285-47.441 47.441-47.441z"/>
</svg>
