<?xml version="1.0" encoding="UTF-8"?>
<svg width="1200pt" height="1200pt" version="1.1" viewBox="0 0 1200 1200" xmlns="http://www.w3.org/2000/svg">
 <path d="m1200 600c0 214.36-114.36 412.44-300 519.62-185.64 107.18-414.36 107.18-600 0-185.64-107.18-300-305.26-300-519.62s114.36-412.44 300-519.62c185.64-107.18 414.36-107.18 600 0 185.64 107.18 300 305.26 300 519.62" fill="#b3b3ff"/>
 <path d="m921.94 402.76c-9.8242-16.625-30.23-17.383-49.879-18.137-9.8242 0-20.402-0.75391-28.719-3.0234-30.23-8.3125-111.09-61.969-133-88.418-2.2656-2.2656-3.7773-5.2891-6.0469-7.5586-9.0703-12.09-19.648-26.449-37.785-34.762-19.648-8.3125-42.32-9.8242-58.191-10.578-15.113 0-26.449 10.578-27.961 25.695-2.2656 22.672-9.0703 48.367-24.184 53.656-18.895 7.5586-30.23 17.383-38.543 24.938-9.8242 8.3125-11.336 9.8242-16.625 9.0703-2.2656-0.75391-6.8008-6.0469-9.8242-9.0703-5.2891-5.2891-9.8242-9.8242-16.625-13.602-10.578-6.0469-24.938-6.0469-41.562 0.75391-12.09 5.2891-19.648 17.383-17.383 30.23 1.5117 8.3125 3.7773 21.914 7.5586 36.273-12.09-0.75391-23.426-3.7773-30.23-11.336-15.871-17.383-48.367-17.383-96.73 1.5117-13.602 5.2891-22.672 18.895-21.16 34.008 2.2656 30.23 14.359 50.633 34.008 57.434 66.504 23.426 104.29 114.11 108.07 123.94 9.8242 38.543 0.75391 104.29-28.719 194.22-5.2891 15.113 0.75391 31.738 13.602 40.809 24.184 17.383 50.633 26.449 75.57 31.738l2.2656-21.16c0.75391-5.2891 1.5117-11.336 3.0234-16.625-19.648-3.7773-40.809-10.578-58.945-23.426 31.738-99 41.562-170.04 28.719-216.89 0-0.75391 0-1.5117-0.75391-1.5117-1.5117-4.5352-44.586-116.38-131.5-146.61-3.7773-1.5117-7.5586-8.3125-9.0703-21.914 31.738-12.09 49.121-12.09 52.145-10.578 23.426 25.695 61.211 24.938 84.641 24.184 6.0469 0 12.09-3.0234 15.113-8.3125 3.7773-5.2891 3.7773-11.336 2.2656-17.383-6.0469-15.113-9.8242-34.008-12.09-46.098 1.5117 0 2.2656-0.75391 2.2656-0.75391 1.5117 0.75391 5.2891 4.5352 8.3125 7.5586 8.3125 8.3125 18.137 18.137 32.496 19.648 22.672 2.2656 36.273-9.0703 46.855-18.137 7.5586-6.0469 15.113-12.848 27.961-18.137 31.738-12.848 43.074-49.879 46.855-76.328 9.8242 0.75391 23.426 2.2656 34.008 6.8008 9.0703 3.7773 15.871 12.848 22.672 21.914 2.2656 3.7773 5.2891 6.8008 7.5586 9.8242 25.699 34 112.61 91.434 151.14 102.01 12.848 3.0234 25.695 3.7773 37.785 4.5352 4.5352 0 11.336 0 15.871 0.75391-0.75391 1.5117-0.75391 2.2656-1.5117 3.7773-11.336 22.672-15.113 43.832-17.383 61.211-2.2656 12.09-3.7773 24.938-7.5586 26.449-22.672 11.336-74.816 56.68-71.793 92.195 0 5.2891 3.0234 9.8242 6.8008 13.602 3.7773 3.0234 9.0703 4.5352 14.359 3.7773 3.0234-0.75391 6.0469-1.5117 9.8242-1.5117 2.2656-0.75391 6.0469-1.5117 7.5586-1.5117 0.75391 1.5117 3.0234 5.2891 4.5352 13.602 3.0234 13.602 9.8242 42.32 5.2891 48.367-10.578 14.359-15.871 55.922-6.0469 78.594 7.5586 18.137 20.402 22.672 27.961 23.426h2.2656c-2.2656 2.2656-6.0469 6.0469-12.09 10.578-8.3125 6.0469-15.113 12.09-20.402 17.383-16.625 15.113-18.895 17.383-43.074 3.7773-1.5117-0.75391-3.0234-1.5117-4.5352-2.2656 5.2891 11.336 8.3125 22.672 9.8242 35.52l1.5117 11.336c27.961 8.3125 43.832-3.0234 61.969-19.648 5.2891-4.5352 10.578-9.8242 17.383-14.359 29.473-21.16 31.738-40.055 29.473-52.145-3.7773-14.359-15.871-24.184-33.25-27.207-3.7773-7.5586-2.2656-34.762 1.5117-42.32 14.359-18.895 9.8242-42.32 1.5117-80.105-6.8008-27.961-18.137-38.543-32.496-41.562 10.578-13.602 27.207-28.719 40.809-35.52 21.16-10.578 24.938-33.25 27.961-54.41 2.2656-15.113 5.2891-33.25 14.359-49.879 0-6.7891 9.8242-25.68 0-42.305z"/>
 <path d="m717.89 680.86c0 45.91-37.219 83.129-83.129 83.129s-83.129-37.219-83.129-83.129c0-45.91 37.219-83.129 83.129-83.129s83.129 37.219 83.129 83.129"/>
 <path d="m697.49 782.88c-18.137 11.336-39.297 18.137-62.723 18.137-22.672 0-44.586-6.8008-62.723-18.137-30.23 11.336-52.145 38.543-56.68 71.793l-9.0703 71.793c-0.75391 9.0703 5.2891 18.137 14.359 20.402 35.52 7.5586 74.059 11.336 113.36 11.336 39.297 0 77.84-3.7773 113.36-11.336 9.0703-2.2656 15.113-10.578 14.359-20.402l-8.3125-71.793c-3.7773-33.25-26.449-60.457-55.922-71.793z"/>
</svg>
