<?xml version="1.0" encoding="UTF-8"?>
<svg width="1200pt" height="1200pt" version="1.1" viewBox="0 0 1200 1200" xmlns="http://www.w3.org/2000/svg">
 <path d="m1200 600c0 214.36-114.36 412.44-300 519.62-185.64 107.18-414.36 107.18-600 0-185.64-107.18-300-305.26-300-519.62s114.36-412.44 300-519.62c185.64-107.18 414.36-107.18 600 0 185.64 107.18 300 305.26 300 519.62" fill="#b3b3ff"/>
 <path d="m694.46 505.54h-23.613v70.848c0 8.4375-4.5039 16.23-11.809 20.449-7.3086 4.2188-16.309 4.2188-23.617 0-7.3086-4.2188-11.809-12.012-11.809-20.449v-23.617h-23.617c-6.2617 0-12.27-2.4844-16.699-6.9141-4.4297-4.4297-6.918-10.438-6.9141-16.703v-23.613h-70.848c-6.2656-0.003906-12.273 2.4844-16.703 6.9141-4.4297 4.4297-6.918 10.438-6.9141 16.699v377.86c-0.003906 6.2617 2.4844 12.27 6.9141 16.699 4.4297 4.4297 10.438 6.918 16.703 6.9141h188.93-0.003906c6.2656 0.003906 12.273-2.4844 16.703-6.9141 4.4297-4.4297 6.9141-10.438 6.9141-16.699v-377.86c0-6.2617-2.4844-12.27-6.9141-16.699-4.4297-4.4297-10.438-6.918-16.703-6.9141z"/>
 <path d="m586.83 454.29c3.8945 2.6172 8.4805 4.0117 13.168 4.0117 4.6914 0 9.2773-1.3945 13.172-4.0117 5.9023-3.9688 57.68-40.188 57.68-90.453s-51.777-86.484-57.68-90.453v0.003906c-3.5273-2.3477-7.6211-3.7031-11.848-3.918-4.2305-0.21484-8.4414 0.71484-12.188 2.6953-3.7656 1.9766-6.9336 4.9297-9.1758 8.543-2.2422 3.6133-3.4766 7.7656-3.5742 12.016-0.78906 10.605-4.3672 20.812-10.367 29.59-6.0039 8.7773-14.219 15.816-23.812 20.398-3.9219 1.9609-7.2227 4.9766-9.5273 8.707-2.3047 3.7344-3.5273 8.0312-3.5273 12.418 0 50.266 51.777 86.484 57.68 90.453z"/>
 <path d="m348.09 523.13c4.332 3.8789 9.9375 6.0195 15.75 6.0195s11.422-2.1406 15.754-6.0195c18.52-16.695 29.812-39.949 31.48-64.828-1.668-24.879-12.961-48.133-31.48-64.828-4.5508-4.0078-10.469-6.1211-16.527-5.9023-6.0625 0.22266-11.809 2.7578-16.059 7.082-4.2461 4.3281-6.6758 10.121-6.7812 16.188-0.25 10.703-5.0078 20.805-13.102 27.812-6.5703 4.3789-10.516 11.754-10.516 19.648 1.668 24.879 12.961 48.133 31.48 64.828z"/>
 <path d="m836.16 529.15c6.7227-0.003906 13.129-2.8672 17.617-7.875 18.031-20.867 28.469-47.227 29.613-74.781 0-7.0039-3.1094-13.648-8.4883-18.137-9.7969-11.371-15.168-25.895-15.129-40.902-0.003906-6.418-2.6172-12.555-7.2383-17.008-4.6211-4.4492-10.855-6.8281-17.266-6.5898-6.4141 0.23828-12.453 3.0742-16.73 7.8594-18.031 20.867-28.469 47.223-29.613 74.777 1.1445 27.555 11.582 53.914 29.613 74.781 4.4883 5.0078 10.895 7.8711 17.621 7.875z"/>
 <path d="m883.39 576.39v47.23c0 8.4375-4.5 16.234-11.809 20.453-7.3047 4.2188-16.309 4.2188-23.617 0-7.3047-4.2188-11.805-12.016-11.805-20.453v-47.23h-47.234c-6.2617-0.003907-12.27 2.4844-16.699 6.9141-4.4297 4.4297-6.918 10.438-6.918 16.699v236.16c0 6.2617 2.4883 12.27 6.918 16.699 4.4297 4.4297 10.438 6.918 16.699 6.9141h94.465c6.2656 0.003906 12.273-2.4844 16.699-6.9141 4.4297-4.4297 6.918-10.438 6.918-16.699v-236.16c0-6.2617-2.4883-12.27-6.918-16.699-4.4258-4.4297-10.434-6.918-16.699-6.9141z"/>
 <path d="m411.07 576.39h-47.234v23.617-0.003906c0 8.4375-4.5 16.234-11.809 20.453-7.3047 4.2188-16.309 4.2188-23.613 0-7.3086-4.2188-11.809-12.016-11.809-20.453v-23.613c-6.2656-0.003907-12.273 2.4844-16.703 6.9141-4.4258 4.4297-6.9141 10.438-6.9141 16.699v259.78c0 6.2656 2.4883 12.273 6.9141 16.703 4.4297 4.4297 10.438 6.9141 16.703 6.9141h94.465c6.2617 0 12.27-2.4844 16.699-6.9141 4.4297-4.4297 6.918-10.438 6.9141-16.703v-259.78c0.003906-6.2617-2.4844-12.27-6.9141-16.699-4.4297-4.4297-10.438-6.918-16.699-6.9141z"/>
</svg>
