<?xml version="1.0" encoding="UTF-8"?>
<svg width="1200pt" height="1200pt" version="1.1" viewBox="0 0 1200 1200" xmlns="http://www.w3.org/2000/svg">
 <path d="m1200 600c0 214.36-114.36 412.44-300 519.62-185.64 107.18-414.36 107.18-600 0-185.64-107.18-300-305.26-300-519.62s114.36-412.44 300-519.62c185.64-107.18 414.36-107.18 600 0 185.64 107.18 300 305.26 300 519.62" fill="#b3b3ff"/>
 <path d="m373.29 249.65c-7.3438 2.5977-13.703 7.3984-18.215 13.746-4.5078 6.3477-6.9453 13.934-6.9766 21.723v579.38c7.4609-5.5586 16.066-9.3867 25.191-11.207z"/>
 <path d="m385.88 952.67h428.24c3.3398 0 6.543-1.3281 8.9062-3.6875 2.3633-2.3633 3.6875-5.5664 3.6875-8.9062v-62.977h-440.83c-13.5 0-25.973 7.2031-32.723 18.891-6.75 11.691-6.75 26.098 0 37.789 6.75 11.688 19.223 18.891 32.723 18.891zm302.29-50.383h62.977v0.003906c6.957 0 12.594 5.6367 12.594 12.594 0 6.957-5.6367 12.594-12.594 12.594h-62.977c-6.957 0-12.594-5.6367-12.594-12.594 0-6.957 5.6367-12.594 12.594-12.594zm-251.91 0.003906h201.53c6.9531 0 12.594 5.6367 12.594 12.594 0 6.957-5.6406 12.594-12.594 12.594h-201.53c-6.9531 0-12.594-5.6367-12.594-12.594 0-6.957 5.6406-12.594 12.594-12.594z"/>
 <path d="m650.63 322.91c-53.461 0.03125-104.73 21.262-142.55 59.043-37.824 37.781-59.121 89.02-59.219 142.48v151.14c16.551-8.6914 25.191-29.133 25.191-59.199v-66.754c0-42.84 15.602-84.211 43.879-116.39 28.281-32.18 67.309-52.961 109.79-58.469 42.484-5.5039 85.52 4.6445 121.07 28.551 16.055-7.1523 33-12.113 50.383-14.746 1.0312-0.17188 1.875-0.91406 2.1758-1.9141 0.41406-1.082 0.1875-2.3047-0.58984-3.1641-33.758-38.504-88.469-60.582-150.12-60.582z"/>
 <path d="m851.91 259.93c0-3.3398-1.3281-6.543-3.6875-8.9062-2.3633-2.3633-5.5664-3.6875-8.9062-3.6875h-440.84v604.57h440.84c3.3398 0 6.543-1.3281 8.9062-3.6875 2.3594-2.3633 3.6875-5.5664 3.6875-8.9062zm-26.84 135.18c-1.6523 4.7383-4.5508 8.9453-8.3984 12.168-3.8438 3.2227-8.4883 5.3477-13.441 6.1484-17.34 2.5508-34.168 7.8359-49.852 15.656-9.1484 4.5078-17.629 10.27-25.191 17.117 29.109 19.258 55.91 53.418 72.789 112.23l12.52 37.586c2.1953 6.6055-1.3789 13.746-7.9883 15.945-6.6055 2.1953-13.746-1.3789-15.945-7.9883l-9.6953-29.168h-66.504c0 13.359 5.3086 26.176 14.754 35.625 9.4492 9.4453 22.266 14.754 35.625 14.754 6.2266 0.089844 12.258 2.1719 17.211 5.9375 4.9531 3.7695 8.5742 9.0234 10.324 14.996l27.117 81.09c3.0898 9.1875 1.1523 19.324-5.1094 26.727s-15.934 10.996-25.512 9.4727c-66.238-10.605-98.48-31.488-112.9-44.602-44.902 40.328-84.449 44.926-100.05 44.926-13.746 0.015625-27.445-1.543-40.836-4.6445-9.3867-2.1367-16.992-8.9961-20.09-18.113-3.1055-8.9492-1.3398-18.871 4.6602-26.199 11.992-14.594 18.527-32.914 18.48-51.805 0.46094-20.531-1.7344-41.039-6.5273-61.012-1.0312-4.6367-2.0781-9.3438-3.0117-14.559h-28.25v28.969c0 50.508-20.883 72.121-38.402 81.379-3.6875 1.9648-7.8008 2.9961-11.977 3.0078-4.6055 0-9.125-1.2617-13.062-3.6523-7.5703-4.5234-12.184-12.715-12.129-21.535v-151.14c0.10547-60.141 24.059-117.79 66.605-160.29 42.551-42.504 100.22-66.391 160.36-66.43 68.895 0 130.52 25.191 169.05 69.16 3.3281 3.8047 5.5859 8.4258 6.5312 13.391s0.54688 10.09-1.1523 14.848z"/>
 <path d="m649.43 448.86c-26.449 0.13281-51.742 10.863-70.219 29.789-19.312 19.566-29.969 46.062-29.586 73.555-0.003906 14.926 1.832 29.797 5.4648 44.273 5.1836 21.773 7.5781 44.121 7.1289 66.5 0.066406 24.695-8.4648 48.641-24.133 67.727-0.51562 0.57422-0.66016 1.3984-0.36328 2.1172 0.27344 0.89453 1.0273 1.5664 1.9531 1.7344 11.52 2.6719 23.312 4.0117 35.141 3.9961 10.594 0 48.543-3.375 91.855-46.691 2.7109-2.7695 6.5625-4.1016 10.402-3.6016 3.8398 0.46094 7.25 2.6562 9.2578 5.957 0.074219 0.10156 21.41 30.832 105.43 44.297h0.003906c0.83984 0.15625 1.6953-0.17578 2.2148-0.85547 0.63281-0.67969 0.82812-1.6523 0.50391-2.5195l-27.23-81.414c-0.40234-1.2578-1.6367-3.3516-3.5156-3.3516-20.035-0.019532-39.246-7.9883-53.414-22.156-14.168-14.168-22.137-33.379-22.156-53.418 0-6.6797 2.6562-13.086 7.3789-17.812 4.7227-4.7227 11.133-7.375 17.812-7.375h58.391c-23.262-66.895-64.035-100.76-121.36-100.76z"/>
 <path d="m649.25 423.67h1.1328c18.672-0.11328 37.191 3.3672 54.551 10.254 5.6836-6.1094 11.965-11.633 18.754-16.488-46.816-25.965-103.88-25.227-150.01 1.9414-46.129 27.168-74.445 76.711-74.441 130.25v12.594h25.492c-0.15234-3.0742-0.25-6.2969-0.28906-9.7734-0.46094-34.184 12.793-67.129 36.805-91.465 23.164-23.707 54.859-37.145 88.004-37.309z"/>
</svg>
