<?xml version="1.0" encoding="UTF-8"?>
<svg width="1200pt" height="1200pt" version="1.1" viewBox="0 0 1200 1200" xmlns="http://www.w3.org/2000/svg">
 <defs>
  <clipPath id="a">
   <path d="m222.14 222.14h755.71v755.71h-755.71z"/>
  </clipPath>
 </defs>
 <path d="m1200 600c0 214.36-114.36 412.44-300 519.62-185.64 107.18-414.36 107.18-600 0-185.64-107.18-300-305.26-300-519.62s114.36-412.44 300-519.62c185.64-107.18 414.36-107.18 600 0 185.64 107.18 300 305.26 300 519.62" fill="#b3b3ff"/>
 <g clip-path="url(#a)">
  <path d="m446.5 824.36c0 6.2617-2.4883 12.27-6.9141 16.699-4.4297 4.4258-10.438 6.9141-16.699 6.9141-6.2656 0-12.273-2.4883-16.699-6.9141-4.4297-4.4297-6.918-10.438-6.918-16.699 0-6.2656 2.4883-12.27 6.918-16.699 4.4258-4.4297 10.434-6.918 16.699-6.918 6.2578 0.019531 12.254 2.5117 16.676 6.9375 4.4258 4.4258 6.9219 10.422 6.9375 16.68zm59.039 3.1875 0.003906 79.469h-197.79l29.402-103.09c7.6562-26.762 27.82-48.148 54.082-57.375 26.266-9.2266 55.371-5.1445 78.086 10.953 22.711 16.094 36.211 42.203 36.215 70.039zm-35.422-3.1875c0-12.527-4.9766-24.543-13.832-33.398-8.8594-8.8594-20.875-13.836-33.398-13.836-12.527 0-24.543 4.9766-33.398 13.836-8.8594 8.8555-13.836 20.871-13.836 33.398 0 12.527 4.9766 24.539 13.836 33.398 8.8555 8.8555 20.871 13.832 33.398 13.832 12.527 0.003906 24.543-4.9727 33.402-13.828 8.8555-8.8594 13.832-20.875 13.828-33.402zm-131.66-70.023c10.688-11.848 23.824-21.234 38.496-27.512l-40.621-52.191c-12.695-16.398-18.77-36.969-17.02-57.633 1.75-20.668 11.195-39.922 26.465-53.953l29.52-27.16c-14.969-6.6641-26.512-19.23-31.879-34.715l-29.52 27.039c-23.949 22.109-38.75 52.387-41.48 84.867-2.7344 32.48 6.8008 64.805 26.719 90.602zm-19.836-443.75c1.8633-0.007813 3.6914-0.49609 5.3125-1.418l21.02-10.746 16.176 31.527 83.957-43.219-16.062-31.523 20.898-10.746h0.003906c2.8086-1.418 4.9375-3.8984 5.9141-6.8906 0.97266-2.9922 0.71484-6.25-0.71875-9.0508-3.0312-5.7656-10.133-8.0273-15.941-5.0742-45.262 23.227-80.375 41.32-125.99 64.824-4.8789 2.4805-7.4141 7.9883-6.1172 13.309 1.293 5.3203 6.0742 9.0508 11.551 9.0078zm137.33-2.832c11.145-5.7461 24.117-6.8203 36.059-2.9883 11.938 3.832 21.863 12.258 27.586 23.414l86.316 167.91c5.7422 11.148 6.8164 24.121 2.9844 36.062-3.832 11.938-12.254 21.863-23.414 27.582l-83.957 43.219h0.003907c-11.148 5.7461-24.121 6.8203-36.059 2.9883-11.941-3.832-21.867-12.258-27.586-23.414l-22.555-43.809c17.027-4.8281 30.988-17.039 38.043-33.27 7.0547-16.23 6.4531-34.77-1.6328-50.508-8.0859-15.742-22.809-27.027-40.113-30.742-17.301-3.7188-35.359 0.52344-49.195 11.551l-10.863-21.137v0.003907c-5.7461-11.148-6.8203-24.121-2.9883-36.062 3.832-11.938 12.258-21.863 23.414-27.586zm16.176 31.527-32 16.414c-5.8047 2.9648-8.1055 10.074-5.1367 15.879 2.9688 5.8047 10.078 8.1055 15.883 5.1367l21.609-11.098 18.066 35.188c2.0547 3.9023 6.0977 6.3516 10.508 6.375 1.8828-0.023437 3.7383-0.46484 5.4297-1.2969 5.7852-3.0195 8.0508-10.137 5.0781-15.941l-23.496-45.578c-0.35547-0.58984-0.70703-1.1797-1.0625-1.6523v-0.003906c-3.4375-4.6523-9.7539-6.1055-14.879-3.4219zm40.148 284.69 16.176 31.527c2.0195 3.9375 6.082 6.4023 10.508 6.375 1.8906 0.035156 3.7617-0.41016 5.4336-1.2969l62.938-32.355c2.8086-1.3945 4.9375-3.8633 5.9023-6.8477 0.95703-3.0078 0.70313-6.2695-0.70703-9.0938l-16.176-31.41zm341.96-94.938c7.2852-12.945 15.953-25.062 25.859-36.133l-38.965 23.969c-1.0625 0.70703-2.125 1.418-3.0703 2.125l-0.003907 0.003906c-8.6797 6.6836-13.742 17.031-13.695 27.984v218.33c0 6.5234 5.2852 11.809 11.809 11.809 6.5195 0 11.805-5.2852 11.805-11.809v-94.461h50.656l-13.227-70.848-37.43-0.003906v-23.613h47.234c5.6914 0 10.566 4.0781 11.57 9.6797l70.848 377.86v0.003906c0.6875 3.4375-0.22266 7-2.4766 9.6836-2.2422 2.707-5.5781 4.2656-9.0938 4.25h-153.5v-59.039c-0.019531-6.5156-5.2969-11.789-11.809-11.809h-142.52l6.6133-35.426h53.254c15.656-0.003907 30.672-6.2266 41.742-17.297 11.07-11.07 17.293-26.086 17.297-41.742v-23.617c-0.019532-6.5117-5.293-11.789-11.809-11.809h-82.773l35.777-191.05c1.0078-5.6016 5.8828-9.6797 11.574-9.6797h70.848v-29.402c0.046875-10.953-5.0195-21.305-13.699-27.984-0.94531-0.71094-2.0078-1.418-3.0703-2.125l-38.965-23.969v-0.003906c9.9023 11.07 18.574 23.188 25.859 36.133-6.4883 2.8008-13.48 4.25-20.547 4.25-10.887-0.1875-21.527-3.2852-30.816-8.9727-11.328-6.5352-21.699-14.602-30.82-23.969-3.1758-4.6367-7.7031-8.1758-12.965-10.141-5.2617-1.9648-11-2.2578-16.438-0.84375-4.9805 0.58594-9.7969-2.0117-12.043-6.4922-2.2227-4.5039-1.3203-9.9219 2.2422-13.461 6.0234-6.2578 60.691-60.102 105.33-43.336 42.863 16.059 44.398 45.461 42.746 71.559v-0.003906c5.8086 3.7344 10.891 8.4961 14.996 14.051 4.1016-5.5547 9.1836-10.316 14.996-14.051-1.6523-26.098-0.11719-55.496 42.746-71.559 44.633-16.766 99.305 37.078 105.33 43.336v0.003906c3.5586 3.5391 4.4648 8.957 2.2422 13.461-2.25 4.4805-7.0625 7.0781-12.043 6.4922-5.4375-1.4141-11.176-1.1211-16.438 0.84375-5.2617 1.9648-9.7891 5.5039-12.965 10.141-9.1211 9.3672-19.492 17.434-30.82 23.969-9.2891 5.6875-19.93 8.7852-30.82 8.9727-7.0664 0-14.059-1.4492-20.543-4.25zm-53.492 70.965h-61.047l-13.227 70.848 74.273 0.003906zm-578.59 377.86h566.79v-47.234h-566.79zm212.54-495.94c0-9.3945-3.7305-18.406-10.375-25.051-6.6406-6.6406-15.652-10.375-25.047-10.375s-18.406 3.7344-25.051 10.375c-6.6406 6.6445-10.375 15.656-10.375 25.051s3.7344 18.406 10.375 25.047c6.6445 6.6445 15.656 10.375 25.051 10.375 9.3906-0.007812 18.395-3.7461 25.035-10.387s10.379-15.645 10.387-25.035zm283.39 366.05c9.3984 0.015625 18.418-3.7148 25.062-10.359 6.6445-6.6484 10.375-15.664 10.363-25.062v-11.809h-227.66c2.1797 8.7695 3.2891 17.77 3.3047 26.805v20.426z"/>
 </g>
</svg>
