<?xml version="1.0" encoding="UTF-8"?>
<svg width="1200pt" height="1200pt" version="1.1" viewBox="0 0 1200 1200" xmlns="http://www.w3.org/2000/svg">
 <path d="m1200 600c0 214.36-114.36 412.44-300 519.62-185.64 107.18-414.36 107.18-600 0-185.64-107.18-300-305.26-300-519.62s114.36-412.44 300-519.62c185.64-107.18 414.36-107.18 600 0 185.64 107.18 300 305.26 300 519.62" fill="#b3b3ff"/>
 <path d="m839.04 409.41c0-4.6445-1.8516-9.0938-5.1406-12.371-3.2891-3.2734-7.75-5.1055-12.395-5.0859h-443c-4.6328-0.019531-9.0859 1.8125-12.363 5.0898-3.2812 3.2812-5.1133 7.7305-5.0938 12.367v281.28h477.99zm-25.395 238.43c-0.078125 5.3789-2.2695 10.508-6.1016 14.285-3.832 3.7773-8.9961 5.8906-14.375 5.8906h-386.32c-5.4297 0-10.641-2.1562-14.48-6-3.8398-3.8398-6-9.0469-6-14.48v-208.8c0.10156-5.3633 2.3008-10.477 6.1328-14.234 3.8281-3.7617 8.9805-5.8672 14.348-5.8672h386.32c5.4297 0 10.641 2.1602 14.48 6 3.8398 3.8398 5.9961 9.0508 5.9961 14.48z"/>
 <path d="m793.16 426.19h-386.32c-7.1172 0.042969-12.879 5.8047-12.922 12.922v208.73c0.20312 7 5.918 12.582 12.922 12.617h386.32c7.1172-0.039062 12.879-5.8008 12.922-12.922v-208.8c-0.24609-6.9688-5.9492-12.508-12.922-12.543zm-302.29 214.02h-0.003906c0 1-0.39844 1.9609-1.1055 2.6719-0.70703 0.70703-1.668 1.1055-2.6719 1.1055h-55.621c-2.0859 0-3.7773-1.6914-3.7773-3.7773v-56.227c0-2.0859 1.6914-3.7773 3.7773-3.7773h55.848c1.0039 0 1.9648 0.39844 2.6719 1.1055 0.71094 0.70703 1.1055 1.668 1.1055 2.6719zm93.707 0c0 1-0.39844 1.9609-1.1094 2.6719-0.70703 0.70703-1.668 1.1055-2.6719 1.1055h-55.617c-2.0703-0.039063-3.7383-1.707-3.7812-3.7773v-87.438c0-2.0859 1.6914-3.7773 3.7812-3.7773h55.848c1 0 1.9609 0.39844 2.6719 1.1055 0.70703 0.70703 1.1055 1.668 1.1055 2.6719zm93.785 0c-0.042969 2.0703-1.7109 3.7383-3.7812 3.7773h-55.621c-2.0859 0-3.7773-1.6914-3.7773-3.7773v-125c0-2.0859 1.6914-3.7773 3.7773-3.7773h55.848c1.0039 0 1.9648 0.39453 2.6719 1.1055 0.71094 0.70703 1.1094 1.668 1.1094 2.6719zm93.707 0c0 1-0.39844 1.9609-1.1055 2.6719-0.71094 0.70703-1.6719 1.1055-2.6719 1.1055h-55.621c-2.0859 0-3.7812-1.6914-3.7812-3.7773v-172.3c0-2.0859 1.6953-3.7773 3.7812-3.7773h55.848c1 0 1.9609 0.39844 2.6719 1.1055 0.70703 0.71094 1.1055 1.6719 1.1055 2.6719z"/>
 <path d="m297.71 804.04c0.12109 6.0547 2.6094 11.82 6.9336 16.062 4.3242 4.2383 10.137 6.6133 16.191 6.6094h558.32c6.0547 0.003906 11.867-2.3711 16.191-6.6094 4.3242-4.2422 6.8125-10.008 6.9336-16.062v-11.184h-604.57z"/>
 <path d="m363.01 698.25-58.191 86.906h590.37l-58.191-86.906zm486.38 73.453c-0.64453 1.1875-1.8984 1.9141-3.25 1.8906h-492.42c-1.3516 0.023437-2.6016-0.70312-3.25-1.8906-0.67578-1.168-0.67578-2.6094 0-3.7773l33.781-56.527c0.6875-1.1328 1.9219-1.8203 3.25-1.8125h425.09c1.3008 0.003907 2.5078 0.69141 3.1719 1.8125l33.629 56.527c0.67578 1.168 0.67578 2.6094 0 3.7773z"/>
 <path d="m389.61 717.14-29.246 48.895h479.28l-29.25-48.895z"/>
 <path d="m435.26 587.76h48.289v48.289h-48.289z"/>
 <path d="m528.96 556.55h48.289v79.5h-48.289z"/>
 <path d="m622.75 518.99h48.289v117.06h-48.289z"/>
 <path d="m716.46 471.68h48.289v164.37h-48.289z"/>
</svg>
