<?xml version="1.0" encoding="UTF-8"?>
<svg width="1200pt" height="1200pt" version="1.1" viewBox="0 0 1200 1200" xmlns="http://www.w3.org/2000/svg">
 <path d="m1200 600c0 214.36-114.36 412.44-300 519.62-185.64 107.18-414.36 107.18-600 0-185.64-107.18-300-305.26-300-519.62s114.36-412.44 300-519.62c185.64-107.18 414.36-107.18 600 0 185.64 107.18 300 305.26 300 519.62" fill="#b3b3ff"/>
 <path d="m667.58 433.4-84.027-47.746-141.32 80.309h282.64l-57.305-32.562zm-172.01 64.363h0.14453c0.28125 0-0.046875 0-0.28906-0.11328l0.16016 0.11328zm-37.031-0.11328c-0.24219 0.074218-0.56641 0.11328-0.28906 0.11328h0.12891zm24.117 19.227h-11.336l-2.2656 118.32h15.871zm-25.234-31.801h39.047v7.4062c0.078125 1.7656-0.37109 3.5156-1.293 5.0234-0.039062 0.054688 0.066407 0.097656 0.20312 0.13672l0.16016 0.11328h-37.188l0.16016-0.11328c0.13672-0.039063 0.24219-0.082031 0.20312-0.13672-0.92188-1.5078-1.3711-3.2578-1.293-5.0234zm255.31 12.68h0.12891c0.28125 0-0.046875 0-0.28906-0.10547zm-37.031-0.11328c-0.24219 0.074219-0.56641 0.11328-0.28906 0.11328h0.12891zm-1.0898-12.566h39.051v7.4062c0.074219 1.7656-0.375 3.5117-1.293 5.0234 0 0.054688 0.066406 0.097656 0.20312 0.14453l0.16016 0.10547h-37.219l0.16016-0.11328c0.12891-0.039063 0.24219-0.082031 0.20312-0.13672-0.91797-1.5078-1.3711-3.2578-1.293-5.0234v-7.4062zm11.617 150.11h15.871l-2.2812-118.31h-11.336l-2.2656 118.32zm65.25 53.18h-335.82v11.949h335.79v-11.941zm-76.863-19.121h39.047v-3.5898c0.10156-3.3398-0.76562-6.6406-2.4922-9.5039-0.75391-1.1328-1.4453-1.8438-1.8828-1.8438h-30.328c-0.4375 0-1.125 0.71094-1.8906 1.8438h0.003906c-1.7266 2.8633-2.5898 6.1641-2.4883 9.5039v3.5898zm-217.16 0h39.016v-3.5898c0.10156-3.3398-0.76172-6.6406-2.4844-9.5039-0.75391-1.1328-1.4492-1.8438-1.8906-1.8438h-30.297c-0.4375 0-1.125 0.71094-1.8906 1.8438-1.7266 2.8633-2.5898 6.1641-2.4844 9.5039v3.5898zm-43.227 0h24.051v-3.5898c-0.082032-7.0859 1.8984-14.047 5.6992-20.031 1.5977-2.4375 3.5938-4.5859 5.9023-6.3555l2.3867-123.47c-3.7422-1.4727-6.9492-4.0508-9.1875-7.3906-3.1719-4.7031-4.8438-10.258-4.8008-15.93v-7.4062h-32.176c-4.4805 0-8.3555-3.1094-9.332-7.4805-0.97656-4.3672 1.2109-8.832 5.2656-10.734l176.84-100.51v0.003906c2.9727-1.6875 6.6172-1.6562 9.5625 0.082032l177.28 100.8c3.7617 2.1406 5.6094 6.543 4.5078 10.727-1.1055 4.1836-4.8906 7.0977-9.2148 7.1016h-28.227v7.4062c0.046875 5.6719-1.6289 11.227-4.8008 15.93-2.2305 3.3242-5.4141 5.8945-9.1367 7.375l2.3828 123.53c2.293 1.7656 4.2695 3.9023 5.8555 6.3203 3.8047 5.9844 5.7812 12.945 5.6992 20.035v3.5898h20.133v-0.003907c4.668 0.011719 9.1406 1.8711 12.438 5.1797l0.039063 0.039062v-0.003906c3.3086 3.3008 5.1719 7.7812 5.1758 12.457v14.879c-0.011718 4.668-1.8711 9.1406-5.1758 12.438l-0.039063 0.039063c-3.2969 3.3047-7.7695 5.168-12.438 5.1758h-338.72c-4.668-0.007812-9.1445-1.8711-12.441-5.1758v-0.039063c-3.3047-3.2969-5.1641-7.7695-5.1758-12.438v-14.879c0.007813-4.668 1.8711-9.1445 5.1758-12.441v-0.039062 0.003906c3.2969-3.3086 7.7734-5.168 12.441-5.1797zm190.89 0v-3.5898h-0.003906c0.097656-3.3281-0.76562-6.6172-2.4844-9.4688-0.75391-1.1328-1.4492-1.8438-1.8906-1.8438h-30.355c-0.4375 0-1.125 0.71094-1.8906 1.8438-1.7266 2.8672-2.5898 6.168-2.4844 9.5078v3.5898zm-0.92969-171.5h0.12891c0.28125 0-0.046875 0-0.28906-0.11328zm-37.031-0.11328c-0.24219 0.074219-0.56641 0.11328-0.28906 0.11328h0.12891zm-6.2188 18.137-0.003906 0.003906c-3.7422-1.4727-6.9492-4.0508-9.1875-7.3906-3.1719-4.7031-4.8438-10.258-4.8008-15.93v-7.4062h-31.324v7.4062c0.046874 5.6719-1.625 11.227-4.7969 15.93-2.2305 3.3281-5.4141 5.8984-9.1367 7.375l2.3789 123.54c2.293 1.7656 4.2734 3.9023 5.8594 6.3203 3.8008 5.9844 5.7812 12.945 5.6953 20.035v3.5898h31.266v-3.5898c-0.085937-7.0898 1.8945-14.051 5.6992-20.035 1.5938-2.4375 3.5898-4.5859 5.9023-6.3555l2.3867-123.47zm30.301 1.1016h-11.336l-2.2656 118.32h15.871zm32.949-31.793v7.4062-0.003906c0.046875 5.6758-1.625 11.23-4.7969 15.934-2.2305 3.3242-5.418 5.8945-9.1367 7.375l2.3945 123.5c2.2852 1.7578 4.2578 3.8867 5.8359 6.2969 3.8047 5.9961 5.7852 12.969 5.6953 20.07v3.5898h31.266v-3.5898c-0.085937-7.0859 1.8945-14.047 5.6992-20.031 1.5938-2.4375 3.5898-4.5859 5.9023-6.3555l2.3789-123.47c-3.7422-1.4727-6.9453-4.0508-9.1836-7.3906-3.1719-4.7031-4.8438-10.258-4.7969-15.934v-7.4062zm-58.191 0v7.4062l0.003906-0.003906c-0.078125 1.7695 0.37109 3.5195 1.2891 5.0273 0.039063 0.054687-0.066406 0.097656-0.20312 0.13672l-0.16016 0.11328h37.219l-0.16016-0.11328c-0.13672-0.039063-0.24219-0.082032-0.20312-0.13672h0.003906c0.91797-1.5078 1.3672-3.2578 1.293-5.0273v-7.4062zm-185.43 424.83c-5.1797-0.14844-9.3008-4.3867-9.3008-9.5664 0-5.1797 4.1211-9.418 9.3008-9.5625h449.08c5.1758 0.14453 9.2969 4.3828 9.2969 9.5625 0 5.1797-4.1211 9.418-9.2969 9.5664zm458.64-599.88h22.633v630.04h-494.99c-7.7734-0.29297-14.992-4.1172-19.602-10.383-5.918-7.9922-9.1133-17.676-9.1133-27.621 0-9.9414 3.1953-19.625 9.1133-27.617 4.6094-6.2695 11.828-10.094 19.602-10.391h462.8c5.2812 0 9.5586-4.2773 9.5586-9.5586zm-501.04-12.719c0.070312-9.9688 4.2578-19.465 11.562-26.246 7.6992-7.2109 17.863-11.195 28.41-11.141h441.95v585.02h-453.21c-10.668 0.097657-20.914 4.1875-28.719 11.461v-559.09zm62.867 488.95h365.04c5.1758-0.14453 9.2969-4.3828 9.2969-9.5625 0-5.1797-4.1211-9.418-9.2969-9.5625h-365.01c-5.1758 0.14453-9.2969 4.3828-9.2969 9.5625 0 5.1797 4.1211 9.418 9.2969 9.5625z" fill-rule="evenodd"/>
</svg>
