<?xml version="1.0" encoding="UTF-8"?>
<svg width="1200pt" height="1200pt" version="1.1" viewBox="0 0 1200 1200" xmlns="http://www.w3.org/2000/svg">
 <path d="m1200 600c0 214.36-114.36 412.44-300 519.62-185.64 107.18-414.36 107.18-600 0-185.64-107.18-300-305.26-300-519.62s114.36-412.44 300-519.62c185.64-107.18 414.36-107.18 600 0 185.64 107.18 300 305.26 300 519.62" fill="#b3b3ff"/>
 <path d="m909.84 713.36h-619.69c-16.707 0-30.23 13.52-30.23 30.23v166.26c0 16.707 13.52 30.23 30.23 30.23h619.69c16.707 0 30.23-13.52 30.23-30.23v-166.26c0-16.707-13.52-30.23-30.23-30.23zm-45.344 166.26h-529c-8.3242 0-15.113-6.7891-15.113-15.113 0-8.3242 6.7891-15.113 15.113-15.113h529c8.3242 0 15.113 6.7891 15.113 15.113 0 8.3242-6.7891 15.113-15.113 15.113zm0-75.57h-529c-8.3242 0-15.113-6.7891-15.113-15.113 0-8.3242 6.7891-15.113 15.113-15.113h529c8.3242 0 15.113 6.7891 15.113 15.113 0 8.3242-6.7891 15.113-15.113 15.113z"/>
 <path d="m426.71 541.82c0 30.465-23.91 55.172-53.43 55.172-29.52 0-53.43-24.707-53.43-55.172 0-30.465 23.91-55.172 53.43-55.172 29.52 0 53.43 24.707 53.43 55.172"/>
 <path d="m564.4 607.86c-11.633 7.4102-25.328 11.719-39.969 11.719-14.672 0-28.34-4.3086-39.969-11.719-21.371 13.371-35.602 37.02-35.602 64.09 0-20.871-8.4727-39.762-22.141-53.43-4.0742-4.0742-8.6211-7.5586-13.461-10.656-11.633 7.4102-25.328 11.719-39.969 11.719-14.672 0-28.34-4.3086-39.969-11.719-21.371 13.371-35.602 37.02-35.602 64.09v18.746h604.57v-18.746c0-20.871-8.4727-39.762-22.141-53.43-4.0742-4.0742-8.6211-7.5586-13.461-10.656-11.633 7.4102-25.328 11.719-39.969 11.719-14.672 0-28.34-4.3086-39.969-11.719-21.371 13.371-35.602 37.02-35.602 64.09 0-20.871-8.4727-39.762-22.141-53.43-4.0742-4.0742-8.6211-7.5586-13.461-10.656-11.633 7.4102-25.328 11.719-39.969 11.719-14.672 0-28.34-4.3086-39.969-11.719-21.371 13.371-35.602 37.02-35.602 64.09 0-20.871-8.4727-39.762-22.141-53.43-4.0742-4.0742-8.6211-7.5586-13.461-10.656z"/>
 <path d="m577.86 541.82c0 30.465-23.91 55.172-53.43 55.172-29.52 0-53.43-24.707-53.43-55.172 0-30.465 23.91-55.172 53.43-55.172 29.52 0 53.43 24.707 53.43 55.172"/>
 <path d="m729 541.82c0 30.465-23.91 55.172-53.43 55.172s-53.43-24.707-53.43-55.172c0-30.465 23.91-55.172 53.43-55.172s53.43 24.707 53.43 55.172"/>
 <path d="m880.14 541.82c0 30.465-23.91 55.172-53.43 55.172-29.52 0-53.43-24.707-53.43-55.172 0-30.465 23.91-55.172 53.43-55.172 29.52 0 53.43 24.707 53.43 55.172"/>
 <path d="m704.89 371.1 78.668 26.539-43.895 102.32c7.5586 12.105 11.926 26.449 11.926 41.801 0 2.8047-0.14844 5.5195-0.38281 8.1484l60.605-141.46c0.14844-0.38281 0.23438-0.76562 0.38281-1.1211l78.82 26.598c7.9414 2.6562 16.473-1.5938 19.129-9.5352l26.598-78.762c2.6562-7.9414-1.5938-16.473-9.5352-19.129l-186.21-62.789c-7.9414-2.6562-16.473 1.5938-19.129 9.5352l-26.598 78.762c-2.6562 7.9414 1.5938 16.473 9.5352 19.129z"/>
 <path d="m291.22 424.45c2.6562 7.9414 11.246 12.164 19.129 9.5352l78.82-26.598c0.14844 0.38281 0.23438 0.76562 0.38281 1.1211l58.953 137.53c0-1.4453-0.23437-2.8047-0.23437-4.2227 0-15.941 4.7539-30.762 12.781-43.156l-43.305-100.96 78.762-26.539c7.9414-2.6562 12.164-11.246 9.5352-19.129l-26.598-78.762c-2.6562-7.9414-11.246-12.164-19.129-9.5352l-186.18 62.762c-7.9414 2.6562-12.164 11.246-9.5352 19.129l26.598 78.762z"/>
</svg>
