<?xml version="1.0" encoding="UTF-8"?>
<svg width="1200pt" height="1200pt" version="1.1" viewBox="0 0 1200 1200" xmlns="http://www.w3.org/2000/svg">
 <path d="m1200 600c0 214.36-114.36 412.44-300 519.62-185.64 107.18-414.36 107.18-600 0-185.64-107.18-300-305.26-300-519.62s114.36-412.44 300-519.62c185.64-107.18 414.36-107.18 600 0 185.64 107.18 300 305.26 300 519.62" fill="#b3b3ff"/>
 <path d="m547.1 348.35c-55.168-55.168-144.34-55.168-198.75 0-54.41 55.168-54.41 144.34 0 198.75 55.168 55.168 144.34 55.168 198.75 0 55.168-54.41 55.168-143.59 0-198.75zm-36.273 150.39-12.09 12.09-50.633-50.633-50.633 50.633-12.09-12.09 50.633-50.633-50.633-50.633 12.09-12.09 50.633 50.633 50.633-50.633 12.09 12.09-50.633 50.633z"/>
 <path d="m851.66 652.9c-55.168-55.168-144.34-55.168-198.75 0-55.168 55.168-55.168 144.34 0 198.75 55.168 55.168 144.34 55.168 198.75 0 54.41-55.168 54.41-144.34 0-198.75zm-19.648 133h-160.21v-16.625h160.21zm0-50.633h-160.21v-16.625h160.21z"/>
 <path d="m547.1 652.9c-27.207-27.207-63.48-40.809-99.754-40.809-36.273 0-71.793 13.602-99.754 40.809-55.168 55.168-55.168 144.34 0 198.75 55.168 55.168 144.34 55.168 198.75 0 55.922-55.168 55.922-144.34 0.75391-198.75zm-18.895 107.31h-71.793v71.793h-16.625v-71.793h-71.793v-16.629h71.793v-71.793h16.625v71.793h71.793z"/>
 <path d="m851.66 348.35c-27.207-27.207-63.48-40.809-99.754-40.809-36.273 0-71.793 13.602-99.754 40.809-54.414 55.168-54.414 144.34 0.75391 198.75 55.168 55.168 144.34 55.168 198.75 0 54.41-54.41 54.41-143.59 0-198.75zm-24.184 103.54h-160.21v-16.625h160.21z"/>
</svg>
