<?xml version="1.0" encoding="UTF-8"?>
<svg width="1200pt" height="1200pt" version="1.1" viewBox="0 0 1200 1200" xmlns="http://www.w3.org/2000/svg">
 <path d="m1200 600c0 214.36-114.36 412.44-300 519.62-185.64 107.18-414.36 107.18-600 0-185.64-107.18-300-305.26-300-519.62s114.36-412.44 300-519.62c185.64-107.18 414.36-107.18 600 0 185.64 107.18 300 305.26 300 519.62" fill="#b3b3ff"/>
 <path d="m915.13 624.94c-15.113-17.383-34.008-43.832-49.879-84.641-0.75391-1.5117 0-3.7773 1.5117-5.2891 13.602-13.602 25.695-25.695 27.961-42.32 0-8.3125-3.0234-14.359-4.5352-17.383-11.336-21.16-8.3125-31.738-22.672-67.258-18.133-43.078-36.27-87.664-77.832-120.16-9.0703-6.8008-27.961-20.402-64.234-31.738-61.973-19.648-231.25-73.305-358.21 36.273-74.059 64.234-120.91 173.06-101.27 266.77 17.383 82.371 74.059 98.242 94.465 184.39 19.648 85.395-12.848 166.26-44.586 221.43 15.113 0.75391 30.23 0.75391 45.344 1.5117 0-1.5117 0-3.0234 0.75391-3.7773l48.367-83.129-0.003906-77.84c-30.984-9.8242-24.938-55.922 8.3125-55.922 33.25 0.75391 39.297 46.855 8.3125 55.922v80.105c0 1.5117-0.75391 3.0234-0.75391 3.7773l-46.855 80.863c12.848 0 24.938 0.75391 37.785 0.75391 0-1.5117 0-3.7773 0.75391-5.2891l46.098-80.105c-19.648-16.625-6.8008-50.633 18.895-49.879 40.809 1.5117 36.273 61.969-3.7773 57.434l-45.344 78.594c18.895 0.75391 37.785 0.75391 56.68 1.5117-0.75391-2.2656-1.5117-5.2891 0-7.5586l85.395-148.12c-20.402-15.871-7.5586-51.387 18.137-50.633 40.055 1.5117 37.031 60.457-3.0234 57.434l-85.391 149.64c21.16 0.75391 42.32 1.5117 63.48 1.5117 0-1.5117 0-2.2656 0.75391-3.7773l65.746-127.71c0.75391-2.2656 3.0234-3.7773 4.5352-3.7773l49.879-15.871c2.2656-37.031 56.68-36.273 57.434 0.75391 0 28.719-38.543 39.297-52.898 15.113l-46.098 14.359-61.969 121.67c18.895 0.75391 37.031 0.75391 55.922 1.5117 4.5352-18.137 14.359-45.344 37.031-71.039 9.8242-9.0703 18.137-24.184 32.496-19.648 32.496 9.8242 64.234 19.648 96.73 28.719 19.648 3.7773 31.738-2.2656 36.273-4.5352 23.426-13.602 34.762-49.879 21.914-89.176 21.16-6.0469 35.52-24.938 23.426-44.586 15.871-7.5586 21.914-21.914 11.336-39.297-2.2656-4.5352-4.5352-6.8008-6.8008-13.602-1.5117-4.5352-2.2656-6.8008-2.2656-9.0703 1.5117-6.8008 12.09-8.3125 21.914-13.602 12.848-6.8008 22.672-20.402 24.184-30.984 1.5117-16.629-12.094-30.23-23.43-42.32zm-163.23-111.85c0 3.7773-3.0234 6.0469-6.0469 6.0469h-28.719c-4.5352 20.402-12.09 39.297-23.426 55.922l20.402 20.402c2.2656 2.2656 2.2656 6.8008 0 9.0703l-37.031 37.031c-2.2656 2.2656-6.8008 2.2656-9.0703 0l-20.402-20.402c-16.625 11.336-35.52 18.895-55.922 23.426v28.719c0 3.7773-3.0234 6.0469-6.0469 6.0469h-52.898c-3.7773 0-6.0469-3.0234-6.0469-6.0469l0.007813-27.965c-20.402-4.5352-39.297-12.09-55.922-23.426l-20.402 20.402c-2.2656 2.2656-6.8008 2.2656-9.0703 0l-37.789-37.785c-2.2656-2.2656-2.2656-6.8008 0-9.0703l20.402-20.402c-11.336-16.625-18.895-35.52-23.426-55.922h-28.719c-3.7773 0-6.0469-3.0234-6.0469-6.0469v-52.898c0-3.7773 3.0234-6.0469 6.0469-6.0469h28.719c4.5352-19.648 12.09-39.297 23.426-55.922l-20.402-20.406c-2.2656-2.2656-2.2656-6.8008 0-9.0703l37.031-37.031c2.2656-2.2656 6.8008-2.2656 9.0703 0l20.402 20.402c16.625-11.336 36.273-18.895 55.922-23.426v-28.719c0-3.7773 3.0234-6.0469 6.0469-6.0469h52.898c3.7773 0 6.0469 3.0234 6.0469 6.0469v27.969c20.402 4.5352 39.297 12.09 55.922 23.426l20.402-20.402c2.2656-2.2656 6.8008-2.2656 9.0703 0l37.031 37.031c2.2656 2.2656 2.2656 6.8008 0 9.0703l-20.402 20.402c11.336 16.625 18.895 35.52 23.426 55.922h28.719c3.7773 0 6.0469 3.0234 6.0469 6.0469l-0.003907 53.652zm-46.098 309.09c0-15.871 24.184-15.871 24.938 0-0.75391 15.867-24.938 15.867-24.938 0zm-48.363-351.41c15.867 129.23-163.23 161.72-196.49 38.543-17.383-69.527 48.367-136.79 117.89-120.91 40.809 8.3125 72.551 41.562 78.598 82.371zm-64.992 333.27c-14.359-3.0234-11.336-23.426 3.0234-24.184 6.8008 0 12.09 5.2891 12.09 12.09 0 8.3164-8.3125 15.875-15.113 12.094zm-120.91 57.438c0-15.871 24.184-15.871 24.938 0-0.75391 15.867-24.938 15.867-24.938 0zm-64.238-87.664c0-15.871 24.184-15.871 24.938 0-0.75391 16.625-24.18 16.625-24.938 0z"/>
</svg>
