<?xml version="1.0" encoding="UTF-8"?>
<svg width="1200pt" height="1200pt" version="1.1" viewBox="0 0 1200 1200" xmlns="http://www.w3.org/2000/svg">
 <path d="m1200 600c0 214.36-114.36 412.44-300 519.62-185.64 107.18-414.36 107.18-600 0-185.64-107.18-300-305.26-300-519.62s114.36-412.44 300-519.62c185.64-107.18 414.36-107.18 600 0 185.64 107.18 300 305.26 300 519.62" fill="#b3b3ff"/>
 <path d="m569.02 547.86c0 18.895 15.871 34.762 34.762 34.762 18.895 0 34.762-15.871 34.762-34.762 0-18.895-15.871-34.762-34.762-34.762s-34.762 15.871-34.762 34.762zm57.438 0c0 12.09-9.8242 22.672-22.672 22.672-12.09 0-22.672-9.8242-22.672-22.672 0-12.09 9.8242-22.672 22.672-22.672 12.09 0.75781 22.672 10.582 22.672 22.672z"/>
 <path d="m639.3 460.95c-10.578 0-18.895 8.3125-18.895 18.895 0 10.578 8.3125 18.895 18.895 18.895 10.578 0 18.895-8.3125 18.895-18.895s-8.3125-18.895-18.895-18.895zm0 25.695c-3.7773 0-6.8008-3.0234-6.8008-6.8008s3.0234-6.8008 6.8008-6.8008 6.8008 3.0234 6.8008 6.8008c0.003906 3.7773-3.0195 6.8008-6.8008 6.8008z"/>
 <path d="m680.86 640.81c0 6.2617-5.0742 11.336-11.336 11.336-6.2617 0-11.336-5.0742-11.336-11.336 0-6.2578 5.0742-11.336 11.336-11.336 6.2617 0 11.336 5.0781 11.336 11.336"/>
 <path d="m529.72 611.34c2.2656 14.359 9.0703 37.785 30.23 60.457 32.496 35.52 80.105 34.008 80.105 34.008s49.121 0 81.617-34.008c18.895-19.648 25.695-44.586 28.719-60.457 1.5117-6.8008-4.5352-13.602-11.336-13.602h-198c-7.5547 0-12.848 6.8008-11.336 13.602zm139.81 5.293c12.848 0 23.426 10.578 23.426 23.426 0 12.848-10.578 23.426-23.426 23.426s-23.426-10.578-23.426-23.426c0-12.848 10.578-23.426 23.426-23.426z"/>
 <path d="m851.66 884.15h-158.7l-34.762-41.562h-43.832l-34.762 41.562h-125.45v-444.36h259.21c8.3125 0 15.871-6.8008 15.871-15.871 0-8.3125-6.8008-15.871-15.871-15.871h-31.742l-85.395 0.003906h-142.07v-83.129c0-9.8242-8.3125-18.137-18.137-18.137s-18.137 8.3125-18.137 18.137v558.47h-69.527c-6.8008 0-12.09 5.2891-12.09 12.09v32.496c0 6.8008 5.2891 12.09 12.09 12.09h504.06c6.8008 0 12.09-5.2891 12.09-12.09v-32.496c-0.75391-6.043-6.043-11.336-12.844-11.336z"/>
 <path d="m596.98 787.42c-1.5117 15.113 3.0234 46.855 42.32 46.855 29.473 0 37.031-28.719 37.031-42.32 0-9.8242-1.5117-18.895-15.871-35.52 0 0-3.7773 15.113-6.8008 18.137 0 0 3.0234-10.578-22.672-30.984 0 0 3.7773 12.848-5.2891 22.672-6.8008 6.8008-12.09 15.113-12.09 15.113s-2.2656-5.2891 0.75391-15.871c-0.003906 0.003906-15.871 5.293-17.383 21.918zm23.426 13.605c0.75391-6.8008 6.8008-9.0703 6.8008-9.0703-0.75391 4.5352 0 6.0469 0 6.0469s2.2656-3.0234 4.5352-6.0469c3.7773-3.7773 2.2656-9.0703 2.2656-9.0703 10.578 8.3125 9.0703 12.848 9.0703 12.848 1.5117-0.75391 3.0234-7.5586 3.0234-7.5586 6.0469 6.8008 6.0469 10.578 6.0469 14.359 0 5.2891-3.0234 17.383-15.113 17.383-15.117 0-17.387-12.848-16.629-18.891z"/>
 <path d="m686.91 329.46c18.895 0 34.762-15.871 34.762-34.762 0-18.895-15.113-34.766-34.762-34.766-19.648 0-34.762 15.871-34.762 34.762-0.003907 18.895 15.867 34.766 34.762 34.766zm0-57.434c12.09 0 22.672 9.8242 22.672 22.672 0 12.848-9.8242 22.672-22.672 22.672s-22.672-9.8242-22.672-22.672c0-12.848 10.578-22.672 22.672-22.672z"/>
 <path d="m768.53 348.35c10.578 0 18.895-8.3125 18.895-18.895 0-10.578-8.3125-18.895-18.895-18.895-10.578 0-18.895 8.3125-18.895 18.895s8.3125 18.895 18.895 18.895zm0-25.691c3.7773 0 6.8008 3.0234 6.8008 6.8008 0 3.7773-3.0234 6.8008-6.8008 6.8008s-6.8008-3.0234-6.8008-6.8008c0.75391-3.7812 3.7773-6.8008 6.8008-6.8008z"/>
 <path d="m697.49 456.41h-16.625v15.113c0 3.0234 2.2656 6.0469 5.2891 7.5586 49.121 19.648 80.105 68.77 77.84 121.67-3.0234 64.234-55.922 116.38-120.91 118.65-70.281 2.2656-128.47-54.41-128.47-124.69 0-50.633 30.23-95.977 77.84-115.62 3.0234-1.5117 5.2891-4.5352 5.2891-7.5586l0.75391-15.113h-16.625v9.0703c-50.633 22.672-83.129 72.547-83.129 128.47 0 77.84 63.48 141.32 141.32 141.32h4.5352c73.305-2.2656 133-61.211 136.79-134.52 3.0234-58.191-30.23-111.85-83.129-135.27z"/>
 <path d="m572.8 392.18h18.137c0-0.75391-0.75391-0.75391-0.75391-1.5117l-6.8008-14.359c-0.75391-2.2656 0-3.7773 0-4.5352 0.75391-0.75391 1.5117-2.2656 3.7773-2.2656h103.53c2.2656 0 3.7773 1.5117 3.7773 2.2656 0.75391 0.75391 1.5117 2.2656 0 4.5352l-6.8008 14.359c0 0.75391-0.75391 0.75391-0.75391 1.5117h18.891l3.7773-8.3125c3.0234-6.8008 2.2656-14.359-1.5117-20.402-3.7773-6.0469-10.578-9.8242-18.137-9.8242h-102.02c-7.5586 0-14.359 3.7773-18.137 9.8242-3.7773 6.0469-4.5352 13.602-1.5117 20.402z"/>
</svg>
