<?xml version="1.0" encoding="UTF-8"?>
<svg width="1200pt" height="1200pt" version="1.1" viewBox="0 0 1200 1200" xmlns="http://www.w3.org/2000/svg">
 <path d="m1200 600c0 214.36-114.36 412.44-300 519.62-185.64 107.18-414.36 107.18-600 0-185.64-107.18-300-305.26-300-519.62s114.36-412.44 300-519.62c185.64-107.18 414.36-107.18 600 0 185.64 107.18 300 305.26 300 519.62" fill="#b3b3ff"/>
 <path d="m630.96 364.79v-28.785c0-11.148-9.1523-20.301-20.301-20.301h-209.85c-11.148 0-20.301 9.1523-20.301 20.301v28.785zm-262.28 308.12c-11.766-11.766-31.98-3.4023-31.98 13.246 0 16.648 20.219 25.016 31.98 13.25 7.3164-7.3164 7.3164-19.18 0-26.496zm-13.246-21.723c31.047 0 46.707 37.715 24.727 59.695-21.977 21.98-59.695 6.3242-59.695-24.727-0.003906-19.309 15.656-34.969 34.969-34.969zm490.82-368.58c-33.305-33.305-87.309-33.305-120.61 0s-33.305 87.309 0 120.61c33.305 33.305 87.309 33.305 120.61 0 33.305-33.305 33.305-87.309 0-120.61zm-22.891 343.77c13.25-16.152 33.246-26.297 55.336-26.297h15.797c4.4844 0 8.1172 3.6367 8.1172 8.1172 0 4.4844-3.6367 8.1172-8.1172 8.1172h-15.797c-30.418 0-55.336 24.918-55.336 55.336 0 30.418 24.918 55.336 55.336 55.336h36.27c17.148 0 31.152-14.004 31.152-31.152v-91.227c0-88.078-72.094-160.18-160.18-160.18-48.34 0-93.023 21.723-123.25 58.156h119.95c22.41 0 40.715 18.305 40.715 40.715zm64.062 116.85-0.15625 77.656h-72.133c5.1602-6.8203 8.2266-15.305 8.2266-24.477v-79.477c13.25 16.152 33.246 26.297 55.336 26.297zm-380.33-336.65c1.1562-4.3242 5.6016-6.8945 9.9258-5.7383s6.8945 5.6016 5.7383 9.9258l-18.387 68.613c-1.1562 4.3242-5.6016 6.8945-9.9258 5.7383-4.3242-1.1562-6.8945-5.6016-5.7383-9.9258zm-25.609 51.582c3.8516 2.2578 5.1445 7.2148 2.8867 11.066-2.2578 3.8516-7.2148 5.1445-11.066 2.8867l-38.055-22.426c-5.3242-3.1289-5.3555-10.859 0.09375-14.008l37.961-22.371c3.8516-2.2578 8.8086-0.96484 11.066 2.8867 2.2578 3.8516 0.96484 8.8086-2.8867 11.066l-26.215 15.449zm56.68 13.949c-3.8516 2.2578-8.8086 0.96484-11.066-2.8867-2.2578-3.8516-0.96484-8.8086 2.8867-11.066l26.215-15.449-26.215-15.449c-3.8516-2.2578-5.1445-7.2148-2.8867-11.066 2.2578-3.8516 7.2148-5.1445 11.066-2.8867l37.961 22.371c5.4492 3.1484 5.4141 10.879 0.09375 14.008zm143.65 426.09h-192.95c-2.6406 0-4.8281 2.1875-4.8281 4.8281v34.52c0 2.6406 2.1875 4.8281 4.8281 4.8281h192.95c2.6406 0 4.8281-2.1875 4.8281-4.8281v-34.523c0-2.6367-2.1875-4.8242-4.8281-4.8242zm-133.35-16.238h73.758l-21.965-197.46h-29.832zm-142.02-533.59c-4.4844 0-8.1172-3.6367-8.1172-8.1172 0-4.4844 3.6367-8.1172 8.1172-8.1172h22.59c4.4844 0 8.1172 3.6367 8.1172 8.1172 0 4.4844-3.6367 8.1172-8.1172 8.1172zm58.047 0c-4.4844 0-8.1172-3.6367-8.1172-8.1172 0-4.4844 3.6367-8.1172 8.1172-8.1172h22.59c4.4844 0 8.1172 3.6367 8.1172 8.1172 0 4.4844-3.6367 8.1172-8.1172 8.1172zm117.95 0c-4.4844 0-8.1172-3.6367-8.1172-8.1172 0-4.4844 3.6367-8.1172 8.1172-8.1172h22.59c4.4844 0 8.1172 3.6367 8.1172 8.1172 0 4.4844-3.6367 8.1172-8.1172 8.1172zm-193.2 254.76 0.007813 0.019532h0.003906zm0.007813 0.019532c0.003906 0.007812 0.003906 0.007812-0.003906 0zm-67.629 0c-0.003907 0.007812-0.003907 0.007812 0.003906 0zm0.011718-0.019532-0.007812 0.019532h-0.003906zm-21.156 12.238m-33.832 58.555v-0.003906zm0-0.003906m0 24.484m0-0.007812v0.003906-0.003906zm33.832 58.559m21.152 12.234-0.007812-0.019531h-0.003907zm-0.007812-0.015625c-0.003907-0.007812-0.003907-0.007812 0.003906 0zm67.629 0c0.003906-0.007812 0.003906-0.007812 0 0zm-0.007813 0.015625 0.007813-0.019531zm21.207-12.23 0.015626 0.003906-0.007813-0.011719zm-0.050781-0.003907m28.93-1.9141 0.023437-0.042969c-0.007812 0.011719-0.023437 0.027344-0.035156 0.035156zm17.676-30.633 0.007812 0.003906 0.003907-0.007812zm0.011719-0.003906m-12.789-26.008m0 0v0.003906zm0.003906 0.007812m-0.003906-24.48v-0.003906zm-33.828-58.555m-18.25 7.1367c2.8633 1.6562 5.6602 3.5469 8.3672 5.6562 5.2227 4.0664 12.227 4.543 17.98 1.2188l-0.007813-0.011718 20.852-12.027 17.648 30.566-20.855 12.043 0.007813 0.011719c-5.7031 3.3047-8.8047 9.5938-7.9102 16.109 0.88281 6.4648 0.88281 13.719 0 20.18-0.89453 6.5195 2.207 12.809 7.9102 16.109l-0.007813 0.011719 20.871 12.051-17.645 30.562-20.863-12.043c-5.7539-3.3242-12.754-2.8477-17.98 1.2188v0.03125c-5.25 4.0859-11.125 7.4805-17.383 10.031-6.1094 2.4883-10.07 8.3594-10.07 14.949v24.043h-35.25v-24.043c0-6.5938-3.9648-12.461-10.07-14.949-6.332-2.5781-11.988-5.8633-17.383-10.062-5.2227-4.0664-12.223-4.543-17.98-1.2188l0.007812 0.011719-20.844 12.035-17.652-30.574 20.855-12.043-0.007813-0.011719c5.7031-3.3047 8.8047-9.5898 7.9102-16.109-0.88672-6.4727-0.88672-13.711 0-20.18 0.89453-6.5195-2.207-12.809-7.9102-16.109l0.007813-0.011719-20.855-12.043 17.645-30.562 20.848 12.035c5.7539 3.3242 12.754 2.8477 17.98-1.2188 5.3945-4.1992 11.055-7.4844 17.383-10.062 6.1055-2.4844 10.07-8.3555 10.07-14.949v-24.043h35.25v24.043c0 6.5938 3.9688 12.461 10.074 14.949 3.1484 1.2812 6.1641 2.7578 9.0078 4.4062zm-2.8516-19.406v-24.086c0-4.4492-1.8125-8.4883-4.7344-11.41l-0.015625 0.015625c-5.9102-5.8945-12.617-4.75-20.992-4.75v-19.562c0-13.539 11.117-24.477 24.477-24.477h394.62c13.445 0 24.477 11.031 24.477 24.477v253.1c0 13.445-11.031 24.477-24.477 24.477h-150.92l-16.117-144.9c-0.21094-4.2969-3.7617-7.7109-8.1094-7.7109h-44.332v0.015625c-4.082-0.003906-7.5977 3.0664-8.0547 7.2148l-16.172 145.38-150.92-0.003906c-8.5586 0-16.273-4.4492-20.695-11.426 6.6406 0 11.906 0.58594 17.227-4.7344l-0.015625-0.015625c2.9336-2.9414 4.75-6.9727 4.75-11.395v-24.082c7.5547-3.0859 14.633-7.1953 21.125-12.242l20.879 12.055c7.7266 4.4609 17.59 1.8125 22.031-5.8867l17.715-30.719c4.4609-7.7266 1.8008-17.559-5.8867-22l-20.879-12.055c1.1328-8.2969 1.1328-16.137 0-24.434l20.879-12.055c7.6875-4.4375 10.348-14.266 5.8867-22l-17.719-30.719c-3.9766-7.3945-14.133-10.445-22.031-5.8867l0.007812 0.011719-20.848 12.035c-6.3555-4.9375-13.66-9.1719-21.16-12.23zm241.67-100.51v-121.56h-250.46v122.26c2.4414-0.46094 4.9531-0.69922 7.5234-0.69922z" fill-rule="evenodd"/>
</svg>
