<?xml version="1.0" encoding="UTF-8"?>
<svg width="1200pt" height="1200pt" version="1.1" viewBox="0 0 1200 1200" xmlns="http://www.w3.org/2000/svg">
 <path d="m1200 600c0 214.36-114.36 412.44-300 519.62-185.64 107.18-414.36 107.18-600 0-185.64-107.18-300-305.26-300-519.62s114.36-412.44 300-519.62c185.64-107.18 414.36-107.18 600 0 185.64 107.18 300 305.26 300 519.62" fill="#b3b3ff"/>
 <path d="m760.21 764.75v-136.03h-54.41c-6.0469-33.25-24.938-60.457-52.145-75.57 1.5117-5.2891 2.2656-10.578 2.2656-15.871 0-4.5352-0.75391-9.0703-1.5117-12.848 15.113-6.8008 28.719-16.625 40.055-29.473 8.3125 1.5117 15.871 2.2656 23.426 2.2656 26.449 0 49.879-7.5586 68.77-23.426 30.984-24.938 49.121-69.527 49.121-120.16 0-18.895-2.2656-37.031-6.8008-53.656l-3.0234-10.578h-77.082c-0.75391-7.5586-2.2656-15.113-3.7773-22.672l-3.0234-11.336h-284.15l-3.0234 11.336c-1.5117 7.5586-3.0234 15.113-3.7773 22.672h-77.082l-3.0234 10.578c-4.5352 16.625-6.8008 34.762-6.8008 53.656 0 49.879 18.137 95.219 49.121 120.16 18.895 15.113 42.32 23.426 68.77 23.426 7.5586 0 15.113-0.75391 23.426-2.2656 12.09 12.09 25.695 21.914 40.055 29.473-0.75391 4.5352-1.5117 8.3125-1.5117 12.848 0 5.2891 0.75391 10.578 2.2656 15.871-27.207 15.113-46.098 42.32-52.145 75.57h-54.41v76.328l-210.09 0.003906v247.88h739.09v-188.17zm-418.67 120.16h-30.23v-55.168h30.23zm52.145 0h-30.23v-55.168h30.23zm357.45-556.21v-9.8242h52.145c2.2656 10.578 3.0234 22.672 3.0234 34.762 0 41.562-14.359 77.082-38.543 96.73-14.359 11.336-31.738 16.625-52.145 16.625 22.672-36.27 35.52-83.879 35.52-138.29zm-318.91 121.67c-24.184-19.648-38.543-55.922-38.543-96.73 0-12.09 0.75391-23.426 3.0234-34.762h52.145v9.8242c0 54.41 12.848 102.02 35.52 138.3-21.16 0.75-38.543-5.293-52.145-16.629zm204.8 431.51h-68.77v-30.23h19.648v-75.57h30.23v76.328h19.648v29.473zm-111.84-255.43c6.8008-24.938 23.426-43.832 46.098-52.145l18.137-6.8008-10.578-15.871c-3.0234-4.5352-4.5352-9.0703-4.5352-14.359 0-4.5352 1.5117-9.8242 3.7773-13.602l9.8242-16.625-18.895-5.2891c-62.723-19.648-90.688-101.27-90.688-173.06 0-15.113 1.5117-30.23 3.7773-43.832h170.79c0.75391 10.578 1.5117 21.16 1.5117 32.496 0 68.016-18.895 123.94-46.855 136.79l12.848 27.207c46.855-21.914 63.48-102.02 63.48-163.99 0-11.336-0.75391-21.914-1.5117-32.496h35.52c2.2656 13.602 3.7773 28.719 3.7773 43.832 0 71.793-27.961 153.41-90.688 173.06l-18.137 6.0469 9.8242 16.625c2.2656 3.7773 3.7773 9.0703 3.7773 13.602 0 5.2891-1.5117 10.578-4.5352 14.359l-10.578 15.871 18.137 6.8008c22.672 8.3125 39.297 27.207 46.098 52.145zm287.17 258.45h-30.23v-55.168h30.23zm52.902 0h-30.23v-55.168h30.23zm49.121 0h-30.23v-55.168h30.23z"/>
</svg>
