<?xml version="1.0" encoding="UTF-8"?>
<svg width="1200pt" height="1200pt" version="1.1" viewBox="0 0 1200 1200" xmlns="http://www.w3.org/2000/svg">
 <path d="m1200 600c0 214.36-114.36 412.44-300 519.62-185.64 107.18-414.36 107.18-600 0-185.64-107.18-300-305.26-300-519.62s114.36-412.44 300-519.62c185.64-107.18 414.36-107.18 600 0 185.64 107.18 300 305.26 300 519.62" fill="#b3b3ff"/>
 <path d="m531.99 416.36h-19.66l43.07-58.953 43.07 58.953h-19.66c-6.0508 0-10.566 4.5469-10.566 10.566v91.457h-24.176l0.03125-91.426c-1.5352-5.3125-6.0508-10.598-12.105-10.598zm222.94-113.36v92.191h24.176v-92.191c0-6.0508 4.5469-10.566 10.566-10.566h19.66l-43.07-58.953-43.07 58.953h19.66c7.5273 0 12.074 4.5156 12.074 10.566zm-89.184 154.18h203.27c4.5469 0 8.3242-3.7773 8.3242-8.3242v-23.438c0-4.5469-3.7773-8.3242-8.3242-8.3242l-203.27 0.03125c-4.5469 0-8.3242 3.7773-8.3242 8.3242l0.03125 23.41c0 4.5469 3.7773 8.3242 8.2969 8.3242zm0 61.961h203.27c4.5469 0 8.3242-3.7773 8.3242-8.3242v-24.176c0-4.5469-3.7773-8.3242-8.3242-8.3242h-203.27c-4.5469 0-8.3242 3.7773-8.3242 8.3242v23.438c0.03125 5.2852 3.8086 9.0625 8.3242 9.0625zm211.6 29.461c0-4.5469-3.7773-8.3242-8.3242-8.3242l-137.53 0.03125c0.76562 3.0117 1.5039 5.2852 1.5039 8.3242v23.438c0 3.0117-0.76563 6.0508-1.5039 8.3242h137.53c4.5469 0 8.3242-3.7773 8.3242-8.3242zm0 85.402v-23.438c0-4.5469-3.7773-8.3242-8.3242-8.3242l-137.53 0.03125c0.76562 3.0117 1.5039 5.2852 1.5039 8.3242v23.438c0 3.0117-0.76563 6.0508-1.5039 8.3242h137.53c4.5469-0.03125 8.3242-3.8086 8.3242-8.3555zm-314.36 8.3242h140.58c4.5469 0 8.3242-3.7773 8.3242-8.3242v-23.438c0-4.5469-3.7773-8.3242-8.3242-8.3242l-140.58 0.03125c0.76562 3.0117 1.5039 5.2852 1.5039 8.3242v23.438c-0.76562 2.9805-0.76562 6.0234-1.5039 8.2969zm-62.73-61.992h203.27c4.5469 0 8.3242-3.7773 8.3242-8.3242v-23.438c0-4.5469-3.7773-8.3242-8.3242-8.3242l-203.27 0.058594c-4.5469 0-8.3242 3.7773-8.3242 8.3242v23.438c0 4.4883 3.7773 8.2656 8.3242 8.2656zm-117.14-98.984v99.016h24.176v-99.016c0-6.0508 4.5469-10.566 10.566-10.566h19.66l-43.07-58.953-43.07 58.953h19.66c7.5273-0.03125 12.074 4.5156 12.074 10.566zm-52.16 160.98h203.27c4.5469 0 8.3242-3.7773 8.3242-8.3242v-23.438c0-4.5469-3.7773-8.3242-8.3242-8.3242l-203.27 0.03125c-4.5469 0-8.3242 3.7773-8.3242 8.3242v23.438c0.03125 4.5156 3.8086 8.2969 8.3242 8.2969zm111.85 21.137h-156.43c2.2734 71.793 29.461 138.3 72.562 190.43 30.23-14.348 65.004-25.684 104.3-33.238-12.105-47.617-19.66-101.25-20.426-157.2zm43.836 222.94c-6.7891-14.348-12.105-29.461-17.387-46.109-35.512 6.7891-67.246 17.387-95.234 29.461 43.07 44.574 99.016 76.344 161.71 89.184-18.094-15.852-34.746-40.766-49.094-72.531zm-2.2734-70.258c36.281-6.0508 75.57-9.832 115.63-9.832 40.059 0 78.578 3.0117 115.63 9.832 12.105-46.109 19.66-98.242 20.398-152.65l-271.29-0.03125c0.73828 55.172 7.5586 107.34 19.633 152.68zm225.21 21.137c-34.773-6.0508-71.793-9.0625-109.58-9.0625s-74.805 3.0117-109.58 9.0625c4.5469 14.348 9.832 27.957 15.883 40.797 25.684 55.941 59.688 88.441 93.695 88.441 34.004 0 68.016-32.5 93.695-88.41 6.0508-12.84 10.598-26.449 15.883-40.824zm3.7773 49.121c-14.348 31.734-30.996 55.91-49.121 73.297 62.73-12.84 118.64-44.574 161.71-89.184-27.219-12.84-59.688-22.672-95.234-29.461-5.2539 15.883-11.305 30.996-17.359 45.344zm43.836-222.94c-0.76562 55.91-7.5586 109.58-20.398 156.43 38.555 8.3242 74.066 19.66 104.3 33.238 43.07-52.133 70.289-117.91 72.562-190.43l-156.46 0.03125z"/>
</svg>
