<?xml version="1.0" encoding="UTF-8"?>
<svg width="1200pt" height="1200pt" version="1.1" viewBox="0 0 1200 1200" xmlns="http://www.w3.org/2000/svg">
 <path d="m1200 600c0 214.36-114.36 412.44-300 519.62-185.64 107.18-414.36 107.18-600 0-185.64-107.18-300-305.26-300-519.62s114.36-412.44 300-519.62c185.64-107.18 414.36-107.18 600 0 185.64 107.18 300 305.26 300 519.62" fill="#b3b3ff"/>
 <path d="m379.51 408.97 100.95-45.344-13.594-13.594c-9.9453-10.434-14.926-23.914-14.926-37.344 0-13.879 5.293-27.785 15.844-38.336s24.457-15.836 38.336-15.836c13.879 0 27.785 5.2852 38.336 15.836 19.895 19.895 39.801 39.801 59.695 59.695h78.281c9.0234 0 17.559 1.2031 25.84 3.6523 8.2031 2.418 15.996 6.1133 23.672 11.121l54.527 35.598c9.3281 6.0859 17.066 13.238 23.242 21.492l0.74219 1.0898c5.875 8.0977 10.301 17.164 13.328 27.242l25.512 84.785c2.375 7.9805-2.168 16.398-10.148 18.77-1.4375 0.42969-2.8828 0.625-4.3125 0.625l-15.461 0.027344c-3.9023 0-7.7305-0.22266-11.496-0.67969l28.027 28.027c2.0703 2.0703 3.7031 4.6758 4.3125 7.5234l21.316 68.578h54.785c8.3438 0 15.113 6.7656 15.113 15.113 0 8.3438-6.7656 15.113-15.113 15.113h-65.871c-1.9805 0-3.8828-0.38281-5.6133-1.0703l-78.074-24.262c-3.3125-0.77734-5.6875-2.3555-7.9609-4.8008l-7.3984-7.3711c-6.7227 3.918-14.539 6.1602-22.852 6.1602-18.645 0-35.535-0.41797-48.727-0.74219-17.559-0.42969-27.812-0.67969-37.668 0.73047-13.711 1.9805-28.777 7.5859-64.848 21.012l-2.4648 0.91797c-12.203 4.543-24.484 6.4727-36.641 5.8125-12.184-0.67969-24.18-3.9453-35.785-9.793l-90.277-45.496h-31.883v10.121c0 12.441-5.1055 23.77-13.301 31.973-8.2656 8.2578-19.594 13.363-32.035 13.363h-45.387c-8.3438 0-15.113-6.7656-15.113-15.113v-266.62c0-8.3438 6.7656-15.113 15.113-15.113h45.387c12.441 0 23.77 5.1055 31.973 13.301 6.3984 6.4102 10.906 14.664 12.613 23.84zm415.74 424.83c8.3086 0 15.051 6.7383 15.051 15.051 0 8.3086-6.7383 15.051-15.051 15.051l-340.22-0.019531c-8.3086 0-15.051-6.7383-15.051-15.051 0-8.3086 6.7383-15.051 15.051-15.051zm0-72.809c8.3438 0 15.113 6.7656 15.113 15.113 0 8.3438-6.7656 15.113-15.113 15.113h-388.43c-8.3438 0-15.113-6.7656-15.113-15.113 0-8.3438 6.7656-15.113 15.113-15.113zm-46.477 36.418c8.3086 0 15.051 6.7383 15.051 15.051 0 8.3086-6.7383 15.051-15.051 15.051l-405.41 0.019531c-8.3086 0-15.051-6.7383-15.051-15.051 0-8.3086 6.7383-15.051 15.051-15.051zm161.48-44.844v119.83h28.895c8.3438 0 15.113 6.7656 15.113 15.113 0.21484 12.879 0.50781 25.973 0.70703 38.871 0 8.3438-6.7656 15.113-15.113 15.113h-565.82c-35.445 0-67.695-14.523-91.062-37.883-23.43-23.367-37.945-55.645-37.945-91.133 0-35.445 14.523-67.695 37.883-91.062 23.43-23.422 55.68-37.945 91.125-37.945h565.82c8.3438 0 15.113 6.7656 15.113 15.113v38.871c0 8.3438-6.7656 15.113-15.113 15.113zm-30.223 119.83v-119.83h-507.76c-16.477 0-31.473 6.7461-42.328 17.582-10.828 10.879-17.582 25.875-17.582 42.328 0 16.484 6.7461 31.48 17.582 42.336 10.879 10.828 25.875 17.582 42.328 17.582zm44.496 38.871-0.16016-8.6484h-552.1c-24.797 0-47.352-10.148-63.668-26.465-16.316-16.387-26.465-38.918-26.465-63.676 0-24.797 10.148-47.352 26.465-63.668 16.387-16.316 38.918-26.465 63.668-26.465h552.47v-8.6484h-550.71c-27.172 0-51.887 11.121-69.781 29-17.879 17.895-29 42.613-29 69.781 0 27.145 11.121 51.859 29.027 69.766 17.871 17.906 42.586 29.027 69.754 29.027h550.49zm-544.27-328.27h35.398c2.2852 0.035156 4.6133 0.55469 6.793 1.6523l93.551 47.145c7.8555 3.9531 15.859 6.1758 23.859 6.6133 8.0234 0.4375 16.234-0.86719 24.465-3.9375l2.4648-0.91797c38.336-14.273 54.367-20.234 71.113-22.652 11.969-1.7227 23.27-1.4375 42.629-0.96484 10.961 0.25781 24.875 0.61719 48.012 0.61719 3.9102 0 7.4883-1.4531 10.156-3.8555 2.7656-2.5156 4.5156-5.8828 4.9102-9.6562 0.40234-3.8906-0.6875-7.6133-2.8203-10.559-1.9922-2.8008-5.043-4.8984-8.668-5.7656-31.035-6.5703-62.078-13.129-93.113-19.699-2.3828-0.5-4.7031-1.1406-7.0352-1.9375l-0.76953-0.25c-2.6328-0.9375-5.1133-2.0273-7.5781-3.3125l-58.215-30.312c-5.0234-2.6797-9.0859-6.5078-11.898-11.141-2.8398-4.6758-4.3828-10.043-4.3828-15.656v-26.438c0-8.6562 2.418-16.859 6.7305-23.852l0.63281-1.0625c0.95312-1.4648 2.0078-2.875 3.1328-4.2227-18.797-18.797-37.594-37.613-56.395-56.41l-122.98 55.234v141.34zm-45.336-180.95h-30.277v236.4h30.277c4.168 0 7.9609-1.7031 10.691-4.418 2.7148-2.7305 4.418-6.5234 4.418-10.691v-206.18c0-4.168-1.7031-7.9609-4.418-10.691-2.7305-2.7148-6.5234-4.418-10.691-4.418zm232.41-49.52 230.51 230.51 6.2852-6.2852-230.51-230.51zm209.14 251.88-3.0273-3.0273c-0.34766 2.6797-0.9375 5.293-1.7305 7.793zm-57.23-57.23-173.28-173.28-6.3125 6.3008 163.63 163.59zm-200.96-188.34c11.328-11.316 22.645-22.637 33.961-33.953l-29.16-29.16c-4.6484-4.6484-10.809-6.9805-16.969-6.9805-6.1602 0-12.316 2.3281-16.969 6.9805-4.6484 4.6484-6.9883 10.809-6.9883 16.969 0 5.918 2.125 11.809 6.3477 16.379l29.777 29.77zm300.24 246.27c-6.668 6.6602-13.336 13.328-19.992 19.992l29.008 9.0156zm-169.45-72.801-67.863-67.883c-1.1875 2.168-1.8555 4.75-1.8555 7.543v26.438l58.195 30.312c1.3555 0.70703 2.5703 1.2578 3.6875 1.6523l4.0352 1.1328zm-14.699-168.04 45.344 45.344c6.1328 1.1953 12.141 3.0625 17.941 5.5703 7.4727 3.2305 14.551 7.4609 21.09 12.656l31.027 24.625c1.2773 1.043 2.4297 2.3047 3.3555 3.7852l15.121 23.902c5.7109 9.0312 13.156 16.086 21.789 20.832 7.2734 4.0078 15.531 6.418 24.43 7.0586l-19.609-65.184c-2.043-6.8281-4.9375-12.828-8.6562-18.02l-0.69531-0.86719c-4.1133-5.5078-9.2578-10.266-15.441-14.301l-54.527-35.598c-5.1484-3.3555-10.379-5.8477-15.824-7.4609-5.3008-1.5781-11.016-2.3477-17.281-2.3477h-48.059z"/>
</svg>
