<?xml version="1.0" encoding="UTF-8"?>
<svg width="1200pt" height="1200pt" version="1.1" viewBox="0 0 1200 1200" xmlns="http://www.w3.org/2000/svg">
 <defs>
  <clipPath id="b">
   <path d="m222.14 434h755.71v540h-755.71z"/>
  </clipPath>
  <clipPath id="a">
   <path d="m222.14 227h562.86v599h-562.86z"/>
  </clipPath>
 </defs>
 <path d="m1200 600c0 214.36-114.36 412.44-300 519.62-185.64 107.18-414.36 107.18-600 0-185.64-107.18-300-305.26-300-519.62s114.36-412.44 300-519.62c185.64-107.18 414.36-107.18 600 0 185.64 107.18 300 305.26 300 519.62" fill="#b3b3ff"/>
 <g clip-path="url(#b)">
  <path d="m968.79 698.62-188.93 40.055 62.723-161.72 2.2656 0.75391c0.75391 0.75391 2.2656 0.75391 3.0234 0.75391 3.0234 0 6.0469-1.5117 6.8008-4.5352l13.602-32.496c12.848-0.75391 18.895 3.0234 28.719 14.359 0.75391 0.75391 0.75391 0.75391 1.5117 1.5117 0 0 0.75391 0.75391 0.75391 0.75391l49.879 20.402c0.75391 0.75391 2.2656 0.75391 3.0234 0.75391 3.0234 0 6.0469-1.5117 6.8008-4.5352l17.383-42.32c1.5117-3.7773 0-8.3125-4.5352-9.8242l-48.359-22.66c-0.75391 0-1.5117-0.75391-2.2656-0.75391h-5.2891c-12.848 0-15.871-1.5117-24.938-10.578l-3.7773-3.7773c-0.75391-0.75391-1.5117-0.75391-2.2656-1.5117l-61.211-25.695c-12.09-5.2891-24.938-9.0703-38.543-12.09l-44.586-10.578c-3.7773-0.75391-7.5586 0.75391-9.0703 4.5352l-3.7773 9.8242c-1.5117 3.7773 0 8.3125 4.5352 9.8242l22.672 9.8242c18.137 7.5586 43.074 32.496 52.145 41.562l-14.359 34.762-101.28 226.71-463.25 95.977c-3.7773 0.75391-6.0469 3.7773-6.0469 7.5586v65.746 0.75391 1.5117c0 0.75391 0 0.75391 0.75391 1.5117 0 0.75391 0.75391 0.75391 0.75391 1.5117 0 0.75391 0.75391 0.75391 0.75391 1.5117l0.75391 0.75391 31.738 23.426c3.0234 2.2656 6.0469 2.2656 9.0703 0l27.207-19.648 27.207 19.648c3.0234 2.2656 6.0469 2.2656 9.0703 0l27.961-19.648 27.207 19.648c3.0234 2.2656 6.0469 2.2656 9.0703 0l27.961-19.648 27.961 19.648c3.0234 2.2656 6.0469 2.2656 9.0703 0l27.961-19.648 27.961 19.648c3.0234 2.2656 6.0469 2.2656 9.0703 0l27.961-19.648 27.961 19.648c3.0234 2.2656 6.0469 2.2656 9.0703 0l27.207-19.648 27.961 19.648c3.0234 2.2656 6.0469 2.2656 9.0703 0l27.961-19.648 27.961 19.648c3.0234 2.2656 6.0469 2.2656 9.0703 0l27.961-19.648 27.961 19.648c1.5117 0.75391 3.0234 1.5117 4.5352 1.5117 2.2656 0 3.7773-0.75391 5.2891-2.2656l32.496-34.762c1.5117-1.5117 2.2656-3.0234 2.2656-5.2891v-23.426h151.89c4.5352 0 7.5586-3.7773 7.5586-7.5586v-194.22c0-2.2656-0.75391-4.5352-3.0234-6.0469-1.5117-1.5117-3.7773-2.2656-6.0469-1.5117zm-54.41-157.19 9.8242-24.184 35.52 14.359-11.336 28.719-35.52-15.117zm-35.52-25.695 4.5352-11.336c8.3125 7.5586 14.359 9.8242 25.695 10.578l-9.0703 21.16c-7.5586-6.8008-15.113-9.8242-25.695-10.578zm-115.62-58.945 18.137 3.7773c12.09 3.0234 24.184 6.8008 36.273 11.336l54.41 22.672-2.2656 5.2891-25.691 60.461-3.0234-1.5117-32.496-13.605 13.602-32.496c1.5117-3.0234 0.75391-6.0469-1.5117-8.3125-1.5078-1.5117-32.492-35.516-57.434-47.609zm39.297 102.78 25.695 10.578-66.504 171.55-9.0703 2.2656c-3.7773 0.75391-6.0469 3.7773-6.0469 7.5586v8.3125l-36.273 7.5586zm-2.2656 367.28-25.695 27.207-26.449-18.895c-3.0234-2.2656-6.0469-2.2656-9.0703 0l-27.961 19.648-27.961-19.648c-3.0234-2.2656-6.0469-2.2656-9.0703 0l-27.961 19.648-27.961-19.648c-3.0234-2.2656-6.0469-2.2656-9.0703 0l-27.207 19.648-27.961-19.648c-3.0234-2.2656-6.0469-2.2656-9.0703 0l-27.961 19.648-27.961-19.648c-3.0234-2.2656-6.0469-2.2656-9.0703 0l-27.961 19.648-27.961-19.648c-3.0234-2.2656-6.0469-2.2656-9.0703 0l-27.961 19.648-27.207-19.648c-3.0234-2.2656-6.0469-2.2656-9.0703 0l-27.961 19.648-27.207-19.648c-3.0234-2.2656-6.0469-2.2656-9.0703 0l-27.207 19.648-21.902-17.379v-55.168l508.6-105.8v68.77c0 2.2656 0.75391 3.7773 2.2656 5.2891l51.387 51.387 0.003907 24.941zm162.48-35.52h-151.14l-49.121-49.121v-84.641l200.27-42.316z" fill="#010101"/>
 </g>
 <path d="m820.67 819.54-0.75391 32.496c0 2.2656 0.75391 3.7773 2.2656 5.2891 1.5117 1.5117 3.7773 2.2656 5.2891 2.2656h96.73c4.5352 0 7.5586-3.7773 7.5586-7.5586v-89.168c0-2.2656-0.75391-4.5352-3.0234-6.0469-1.5117-1.5117-4.5352-2.2656-6.8008-1.5117l-123.18 25.695c-3.0234 0.75391-5.2891 2.2656-6.0469 5.2891-0.75391 3.0234 0 5.2891 2.2656 7.5586zm95.219-46.852v72.547h-80.863l0.75391-27.961c0-2.2656-0.75391-4.5352-2.2656-6.0469l-18.137-17.383z" fill="#010101"/>
 <g clip-path="url(#a)">
  <path d="m271.27 825.58c12.848 0 24.938-4.5352 34.762-14.359l29.473-29.473c3.0234-3.0234 3.0234-7.5586 0-10.578l-13.602-13.602 105.04-105.04c19.648 18.895 46.855 30.984 76.328 30.984 61.969 0 111.85-49.879 111.85-111.85v-108.07l101.27-99.754 13.602 13.602c1.5117 1.5117 3.7773 2.2656 5.2891 2.2656 2.2656 0 3.7773-0.75391 5.2891-2.2656l29.473-29.473c9.0703-9.0703 14.359-21.914 14.359-34.762 0-12.848-5.2891-25.695-14.359-34.762-15.113-15.871-38.543-18.137-57.434-9.0703v-34.004c0-4.5352-3.7773-7.5586-7.5586-7.5586h-401.28c-4.5352 0-7.5586 3.7773-7.5586 7.5586v77.082c0 4.5352 3.7773 7.5586 7.5586 7.5586h37.785l47.609 118.65c0.75391 1.5117 1.5117 3.0234 3.0234 3.7773v128.47c0 15.113 3.0234 29.473 8.3125 42.32l-111.09 111.84-12.848-12.848c-3.0234-3.0234-7.5586-3.0234-10.578 0l-29.473 29.473c-9.0703 9.0664-14.359 21.16-14.359 34.762 0 13.602 5.2891 25.695 14.359 34.762 9.8242 9.0703 21.914 14.359 34.762 14.359zm329.49-254.68c0 52.898-43.074 96.73-96.73 96.73-25.695 0-48.367-9.8242-65.746-26.449l37.785-37.785c8.3125 3.7773 18.137 6.8008 27.961 6.8008 36.273 0 65.746-29.473 65.746-65.746 0-9.8242-2.2656-19.648-6.8008-27.961l37.031-37.031-0.003906 91.441zm-112.6 20.406 63.48-63.48c1.5117 5.2891 3.0234 10.578 3.0234 15.871 0 27.961-22.672 49.879-49.879 49.879-6.8008 0.75-12.09-0.003906-16.625-2.2695zm222.93-302.29c12.848-12.848 34.762-12.848 47.609 0 6.0469 6.0469 9.8242 15.113 9.8242 24.184 0 9.0703-3.7773 17.383-9.8242 24.184l-24.184 24.184-10.578-10.578c0-1.5117-0.75391-2.2656-1.5117-3.0234l-21.914-21.914c-0.75391-0.75391-2.2656-1.5117-3.0234-1.5117l-9.8242-9.8242zm-399.77 15.871v-61.969h385.41v37.785l-23.426 23.426-361.99 0.003906zm371.81 25.695-34.762 34.762 18.137-45.344h6.0469zm-324.96-10.582h291.71l-29.473 73.305-34.762 34.762-184.39 0.003906zm145.86 158.7c-36.273 0-65.746 29.473-65.746 65.746 0 9.0703 2.2656 18.137 5.2891 25.695l-30.984 30.984c-3.0234-9.8242-5.2891-19.648-5.2891-30.23l-0.003906-126.96h162.48l-40.055 40.809c-7.5547-3.7773-16.625-6.043-25.691-6.043zm13.602 17.379-61.969 61.969c-1.5117-4.5352-2.2656-9.0703-2.2656-13.602 0-27.961 22.672-49.879 49.879-49.879 5.2852 0 9.8203 0.75781 14.355 1.5117zm176.84-154.16 10.578 10.578-393.72 393.73-10.578-10.578zm-447.38 410.35 24.184-24.184 47.609 47.609-24.184 24.184c-12.848 12.848-34.762 12.848-47.609 0-6.0469-6.0469-9.8242-15.113-9.8242-24.184 0-8.3125 3.7812-16.625 9.8242-23.426z" fill="#010101"/>
 </g>
</svg>
