<?xml version="1.0" encoding="UTF-8"?>
<svg width="1200pt" height="1200pt" version="1.1" viewBox="0 0 1200 1200" xmlns="http://www.w3.org/2000/svg">
 <path d="m1200 600c0 214.36-114.36 412.44-300 519.62-185.64 107.18-414.36 107.18-600 0-185.64-107.18-300-305.26-300-519.62s114.36-412.44 300-519.62c185.64-107.18 414.36-107.18 600 0 185.64 107.18 300 305.26 300 519.62" fill="#b3b3ff"/>
 <path d="m856.95 259.93h-513.89c-46.098 0-83.129 34.762-83.129 77.84v390.7c0 43.074 37.031 77.84 83.129 77.84h54.41v115.62c0 6.8008 4.5352 13.602 11.336 16.625 3.0234 1.5117 5.2891 1.5117 8.3125 1.5117 4.5352 0 9.0703-1.5117 12.848-3.7773l171.55-129.98h255.43c46.098 0 83.129-34.762 83.129-77.84v-390.7c0-43.078-37.031-77.84-83.129-77.84zm-269.79 381.64h-167.77v-220.67h161.72v39.297h-116.38v46.855h107.31v38.543l-107.31-0.003906v56.68h122.43zm184.39-14.359c-15.871 13.602-37.785 19.648-65.746 19.648-28.719 0-52.145-6.8008-68.77-19.648-16.625-12.848-24.938-30.984-24.938-54.41h43.832c1.5117 9.8242 4.5352 17.383 8.3125 22.672 7.5586 9.0703 20.402 13.602 39.297 13.602 11.336 0 20.402-1.5117 27.207-3.7773 12.848-4.5352 19.648-12.848 19.648-25.695 0-7.5586-3.0234-12.848-9.8242-16.625-6.8008-3.7773-16.625-7.5586-30.984-10.578l-24.184-5.2891c-23.426-5.2891-39.297-10.578-48.367-16.625-15.113-9.8242-22.672-26.449-22.672-47.609 0-19.648 7.5586-36.273 21.914-49.121 14.359-12.848 36.273-19.648 64.234-19.648 23.426 0 43.832 6.0469 60.457 18.137 16.625 12.09 25.695 30.23 26.449 53.656l-43.828-0.003906c-0.75391-13.602-6.8008-22.672-18.137-27.961-7.5586-3.7773-16.625-5.2891-27.207-5.2891-12.09 0-21.914 2.2656-29.473 7.5586-7.5586 4.5352-10.578 11.336-10.578 20.402 0 7.5586 3.7773 13.602 10.578 17.383 4.5352 2.2656 14.359 5.2891 29.473 9.0703l38.543 9.0703c16.625 3.7773 29.473 9.0703 37.785 15.871 12.848 10.578 19.648 25.695 19.648 45.344 0.75781 19.641-6.8008 36.266-22.672 49.867z"/>
</svg>
