<?xml version="1.0" encoding="UTF-8"?>
<svg width="1200pt" height="1200pt" version="1.1" viewBox="0 0 1200 1200" xmlns="http://www.w3.org/2000/svg">
 <path d="m1200 600c0 214.36-114.36 412.44-300 519.62-185.64 107.18-414.36 107.18-600 0-185.64-107.18-300-305.26-300-519.62s114.36-412.44 300-519.62c185.64-107.18 414.36-107.18 600 0 185.64 107.18 300 305.26 300 519.62" fill="#b3b3ff"/>
 <path d="m633.91 757.73c1.7188-1.375 3.4062-2.7422 5.082-4.1055 0.22266-0.17969 0.42969-0.34766 0.64844-0.52344l0.32031-0.25781c0.79688-0.64453 1.6016-1.3008 2.4102-1.9648l0.54297-0.44141c3.2578-2.6641 6.5625-5.4023 9.9375-8.2266 0.015625-0.015625 0.03125-0.027344 0.050782-0.042969 2.875-2.4062 5.8008-4.8789 8.75-7.3789 2.1992-1.875 4.4609-3.8125 6.7578-5.793 2.2383-1.9219 4.4609-3.8477 6.6992-5.8047 0.03125-0.027343 0.066406-0.058593 0.097656-0.085937l-31.195-31.203c-3.0938 3.5508-6.1367 7.0664-9.0781 10.504-1.5195 1.7773-3.0273 3.5391-4.5039 5.2852l-0.94141 1.1133c-0.58984 0.69531-1.1797 1.3945-1.7617 2.0938-0.027344 0.03125-0.058594 0.070312-0.085937 0.10547l-0.007813 0.007813c-1.5781 1.8594-3.125 3.7148-4.6445 5.5469-4.7344 5.6875-9.2852 11.25-13.605 16.637l7.7422 7.7422z"/>
 <path d="m882.63 461.48c-43.078 33.859-95.195 80.898-146.75 132.45-19.062 19.062-37.523 38.207-54.871 56.895l-1.8594 2.0078c-0.66797 0.72266-1.3359 1.4414-2 2.1641-0.65625 0.71094-1.3203 1.4219-1.9727 2.1328-0.003907 0.003906-0.003907 0.003906-0.007813 0.007812-4.0859 4.4414-8.1172 8.8633-12.074 13.25l33.605 33.613c1.7188-1.5469 3.4414-3.0898 5.1602-4.6523 0.35547-0.32812 0.71875-0.65625 1.0781-0.97656l0.35547-0.31641 0.1875-0.17188c0.90625-0.82812 1.8359-1.6797 2.7656-2.5352 1.3516-1.2383 2.707-2.4805 4.0664-3.7383 0.20312-0.19141 0.40625-0.375 0.60938-0.5625 4.543-4.1836 9.1211-8.4492 13.727-12.77 1.3828-1.2891 2.75-2.582 4.1133-3.8828 0.15234-0.14453 0.30078-0.28125 0.45312-0.42969 0.003906 0 0.003906-0.003906 0.003906-0.003906 11.02-10.406 22.086-21.098 32.945-31.816 0.046875-0.046875 0.097656-0.082032 0.14453-0.12891 3.6133-3.5547 7.2383-7.168 10.863-10.793 51.555-51.555 98.594-103.67 132.45-146.75 29.805-37.922 41.523-58.605 46.125-69.117-10.508 4.5977-31.195 16.312-69.117 46.117z"/>
 <path d="m385.26 652.58c-29.711 0-53.879 24.168-53.879 53.879 0 29.711 24.168 53.883 53.879 53.883 29.711 0 53.883-24.172 53.883-53.883 0-29.711-24.172-53.879-53.883-53.879z"/>
 <path d="m378.09 548.66c22.977 0 41.668-18.691 41.668-41.668 0-22.977-18.691-41.668-41.668-41.668-22.977 0-41.672 18.691-41.672 41.668 0 22.977 18.691 41.668 41.672 41.668z"/>
 <path d="m529.35 855.79c36.414 0.003906 76.773-22.965 87.934-74.051l-22.484-22.488-8.8828-8.8867c-7.1562 2.1133-18.418 5.8359-29.438 11.098-19.395 9.2617-30.371 19.648-30.117 28.492 0.60156 20.816-0.96094 46.969-16.027 63.504 5.8281 1.5234 12.258 2.332 19.016 2.332z"/>
 <path d="m717.37 343.86c-50.316-31.727-107.36-48.5-164.95-48.5-92.164 0-177.79 41.809-234.91 114.71-52.676 67.223-76.578 148.81-67.301 229.73 8.9922 78.461 47.711 149.68 109.02 200.54 50.715 42.066 110.13 64.305 171.83 64.309h0.023437c87.117 0.003906 170.27-43.477 234.17-122.43 23.969-29.613 35.109-61.078 29.793-84.164-2.6484-11.5-9.4727-20.875-20.328-27.965-8.5352 8.3398-17.156 16.629-25.719 24.711-0.15625 0.14844-0.32031 0.30078-0.47656 0.44922-0.90234 0.85547-1.8047 1.7109-2.6992 2.5508l-1.4453 1.3633c-0.027344 0.027344-0.058594 0.054688-0.085938 0.082031-4.6367 4.3516-9.2656 8.6602-13.844 12.879l-0.007812 0.007812c-2.0039 1.8594-4.0078 3.6953-5.9961 5.5156l-1.793 1.6406-0.55469 0.49609c-0.23438 0.20703-0.46875 0.41797-0.69531 0.62891-0.042969 0.039062-0.085938 0.082031-0.13281 0.12109 0 0.003906-0.003906 0.003906-0.003906 0.003906-3.0508 2.7734-6.0664 5.5039-9.0586 8.1719 0 0.003906-0.003906 0.003906-0.003906 0.007813-2.1523 1.9375-4.332 3.8867-6.5 5.8047-3.9219 3.4922-7.8281 6.9219-11.68 10.293l-0.007812 0.007812-0.003907 0.003906c-2.3008 2.0117-4.582 3.9883-6.8555 5.9414-0.003906 0.003906-0.003906 0.003906-0.007813 0.007812-2.2969 1.9844-4.5977 3.9531-6.8828 5.9023-0.015625 0.011719-0.027344 0.023437-0.042969 0.035156-3.0117 2.5586-5.9883 5.0664-8.9258 7.5234-3.4453 2.8828-6.8125 5.6719-10.148 8.3984v0.003906c-0.003906 0.003907-0.015625 0.007813-0.019531 0.015626-0.011719 0.011718-0.027344 0.019531-0.035156 0.03125l-1.1445 0.93359c-0.16016 0.13281-0.31641 0.25781-0.47656 0.39062-0.47656 0.38672-0.95312 0.78125-1.4258 1.1641l-0.92969 0.75391-0.003906 0.003906c-0.019531 0.015625-0.035156 0.027344-0.054687 0.042969-3.5664 2.8984-7.2305 5.8359-11.078 8.8711-6.0977 31.043-21.219 56.75-43.965 74.598-20.598 16.164-46.398 25.066-72.637 25.066h-0.007812c-23.426-0.003906-44.102-7.0742-58.219-19.918-3.9844-3.6289-5.6055-9.1797-4.1953-14.379s5.6172-9.1758 10.887-10.289c7.3828-1.5625 21.125-4.4648 19.832-49.137-0.62891-21.738 15.145-40.391 46.879-55.445 14.953-7.0898 29.828-11.625 37.348-13.695 5.9141-7.4922 12.273-15.344 19.016-23.441 1.5586-1.875 3.1523-3.7891 4.7773-5.7031 0.625-0.75391 1.2617-1.5 1.8945-2.25l0.91016-1.0742c1.5234-1.8008 3.0625-3.6055 4.6172-5.4219 5-5.8438 10.262-11.902 15.645-17.992l0.83594-0.94531c0.60938-0.69141 1.2266-1.3906 1.8438-2.0781 0.40234-0.46484 0.82031-0.94141 1.2383-1.4023 2.7031-3.043 5.4688-6.1328 8.2773-9.25-24.59-6.375-44.902-21.551-57.711-43.727-17.766-30.766-17.828-68.879-0.16797-99.469 26.934-46.652 79.387-53.617 108.26-53.617 6.2148 0 12.684 0.29688 19.23 0.88672 3.7422 0.33594 7.3867 0.50781 10.832 0.50781 31.824 0 42.441-13.633 45.746-25.066 6.7617-23.422-10-62.645-49.773-87.738zm-339.28 92.742c38.812 0 70.387 31.574 70.387 70.387s-31.574 70.387-70.387 70.387-70.387-31.578-70.387-70.387c-0.003906-38.812 31.57-70.387 70.387-70.387zm7.1719 352.46c-45.543 0-82.598-37.055-82.598-82.598 0-45.543 37.055-82.598 82.598-82.598s82.598 37.055 82.598 82.598c0.003906 45.543-37.051 82.598-82.598 82.598zm147.26-329.48c-37.625 0-68.234-30.609-68.234-68.234s30.609-68.234 68.234-68.234 68.23 30.609 68.23 68.234-30.609 68.234-68.23 68.234z"/>
 <path d="m532.52 351.83c-21.789 0-39.516 17.727-39.516 39.516s17.727 39.516 39.516 39.516c21.785 0 39.512-17.727 39.512-39.516s-17.727-39.516-39.512-39.516z"/>
</svg>
